NunitoSans-XminExtraBold.ufo
<glyph name="ampersand" format="2">
  <advance width="745.4216867469879"/>
  <unicode hex="0026"/>
  <outline>
    <contour>
      <point x="308.8313253012048" y="-10.626506024096384" type="curve" smooth="yes"/>
      <point x="395.26506024096386" y="-10.626506024096384"/>
      <point x="476.95180722891564" y="25.49397590361446"/>
      <point x="538.4578313253012" y="84.73493975903614" type="curve"/>
      <point x="504.7590361445783" y="84.73493975903614" type="line"/>
      <point x="587.9397590361446" y="0.0" type="line"/>
      <point x="771.2650602409637" y="0.0" type="line"/>
      <point x="588.4819277108434" y="177.8313253012048" type="line"/>
      <point x="589.1686746987953" y="142.75903614457832" type="line"/>
      <point x="644.301204819277" y="218.32530120481925"/>
      <point x="677.1807228915662" y="320.578313253012"/>
      <point x="681.4939759036145" y="428.9518072289157" type="curve"/>
      <point x="557.4457831325301" y="428.9518072289157" type="line"/>
      <point x="552.8192771084338" y="353.65060240963857"/>
      <point x="534.7590361445783" y="282.66265060240966"/>
      <point x="502.4457831325301" y="227.97590361445782" type="curve"/>
      <point x="534.7710843373494" y="227.97590361445782" type="line"/>
      <point x="374.7951807228916" y="391.7469879518072" type="line"/>
      <point x="374.1084337349398" y="359.5542168674699" type="line"/>
      <point x="476.2168674698795" y="412.66265060240966"/>
      <point x="520.4096385542168" y="476.54216867469876"/>
      <point x="520.4096385542168" y="554.7349397590361" type="curve" smooth="yes"/>
      <point x="520.4096385542168" y="652.8072289156627"/>
      <point x="448.2771084337349" y="715.6265060240964"/>
      <point x="334.26506024096386" y="715.6265060240964" type="curve" smooth="yes"/>
      <point x="208.74698795180723" y="715.6265060240964"/>
      <point x="126.42168674698796" y="644.4939759036145"/>
      <point x="126.42168674698796" y="540.1084337349398" type="curve" smooth="yes"/>
      <point x="126.42168674698796" y="483.48192771084337"/>
      <point x="151.36144578313255" y="429.9759036144578"/>
      <point x="206.91566265060243" y="378.2409638554217" type="curve"/>
      <point x="229.30120481927713" y="408.6867469879518" type="line"/>
      <point x="194.36144578313255" y="389.31325301204816" type="line" smooth="yes"/>
      <point x="108.12048192771084" y="341.0120481927711"/>
      <point x="53.867469879518076" y="276.26506024096386"/>
      <point x="53.867469879518076" y="185.95180722891564" type="curve" smooth="yes"/>
      <point x="53.867469879518076" y="68.19277108433735"/>
      <point x="152.19277108433735" y="-10.626506024096384"/>
    </contour>
    <contour>
      <point x="318.3373493975904" y="105.9156626506024" type="curve" smooth="yes"/>
      <point x="244.79518072289156" y="105.9156626506024"/>
      <point x="203.55421686746988" y="140.4698795180723"/>
      <point x="203.55421686746988" y="197.51807228915663" type="curve" smooth="yes"/>
      <point x="203.55421686746988" y="249.13253012048193"/>
      <point x="228.6144578313253" y="284.1927710843373"/>
      <point x="286.6506024096385" y="316.3614457831325" type="curve" smooth="yes"/>
      <point x="314.3975903614458" y="331.48192771084337" type="line"/>
      <point x="250.49397590361446" y="334.9156626506024" type="line"/>
      <point x="452.73493975903614" y="133.19277108433735" type="line"/>
      <point x="456.67469879518075" y="169.26506024096383" type="line"/>
      <point x="417.86746987951807" y="127.46987951807229"/>
      <point x="374.81927710843377" y="105.9156626506024"/>
    </contour>
    <contour>
      <point x="334.26506024096386" y="613.1566265060242" type="curve" smooth="yes"/>
      <point x="373.87951807228916" y="613.1566265060242"/>
      <point x="399.43373493975906" y="591.2891566265059"/>
      <point x="399.43373493975906" y="549.4216867469879" type="curve" smooth="yes"/>
      <point x="399.43373493975906" y="505.61445783132524"/>
      <point x="371.6265060240964" y="477.1807228915663"/>
      <point x="294.89156626506025" y="437.69879518072287" type="curve"/>
      <point x="326.96385542168673" y="436.32530120481925" type="line"/>
      <point x="279.9759036144578" y="484.8072289156627"/>
      <point x="263.9759036144578" y="509.1807228915663"/>
      <point x="263.9759036144578" y="544.0481927710842" type="curve" smooth="yes"/>
      <point x="263.9759036144578" y="585.9759036144578"/>
      <point x="291.5903614457831" y="613.1566265060242"/>
    </contour>
  </outline>
</glyph>
<glyph name="quotesingle" format="2">
  <advance width="254.84337349397592"/>
  <unicode hex="0027"/>
  <outline>
    <contour>
      <point x="76.80722891566265" y="406.855421686747" type="line"/>
      <point x="178.72289156626505" y="406.855421686747" type="line"/>
      <point x="214.67469879518072" y="705.0" type="line"/>
      <point x="40.855421686746986" y="705.0" type="line"/>
    </contour>
  </outline>
</glyph>
<glyph name="plus" format="2">
  <advance width="600.0"/>
  <unicode hex="002B"/>
  <outline>
    <contour>
      <point x="246.1686746987952" y="40.0" type="line"/>
      <point x="353.8313253012048" y="40.0" type="line"/>
      <point x="353.8313253012048" y="235.4819277108434" type="line"/>
      <point x="544.0" y="235.4819277108434" type="line"/>
      <point x="544.0" y="338.51807228915663" type="line"/>
      <point x="353.8313253012048" y="338.51807228915663" type="line"/>
      <point x="353.8313253012048" y="528.0" type="line"/>
      <point x="246.1686746987952" y="528.0" type="line"/>
      <point x="246.1686746987952" y="338.51807228915663" type="line"/>
      <point x="56.0" y="338.51807228915663" type="line"/>
      <point x="56.0" y="235.4819277108434" type="line"/>
      <point x="246.1686746987952" y="235.4819277108434" type="line"/>
    </contour>
  </outline>
</glyph>
<glyph name="comma" format="2">
  <advance width="259.5903614457831"/>
  <unicode hex="002C"/>
  <outline>
    <contour>
      <point x="120.95180722891567" y="-143.96385542168673" type="line"/>
      <point x="187.7831325301205" y="-77.81927710843372"/>
      <point x="210.9156626506024" y="-18.807228915662648"/>
      <point x="210.9156626506024" y="57.024096385542165" type="curve" smooth="yes"/>
      <point x="210.9156626506024" y="160.3012048192771" type="line"/>
      <point x="48.674698795180724" y="160.3012048192771" type="line"/>
      <point x="48.674698795180724" y="0.0" type="line"/>
      <point x="158.96385542168676" y="0.0" type="line"/>
      <point x="126.63855421686746" y="35.89156626506024" type="line"/>
      <point x="126.63855421686746" y="-11.80722891566265"/>
      <point x="109.19277108433735" y="-49.93975903614458"/>
      <point x="62.12048192771085" y="-97.38554216867469" type="curve"/>
    </contour>
  </outline>
</glyph>
<glyph name="hyphen" format="2">
  <advance width="439.6385542168675"/>
  <unicode hex="002D"/>
  <outline>
    <contour>
      <point x="65.49397590361446" y="183.91566265060243" type="line"/>
      <point x="374.144578313253" y="183.91566265060243" type="line"/>
      <point x="374.144578313253" y="302.71084337349396" type="line"/>
      <point x="65.49397590361446" y="302.71084337349396" type="line"/>
    </contour>
  </outline>
</glyph>
<glyph name="four" format="2">
  <advance width="600.0"/>
  <unicode hex="0034"/>
  <outline>
    <contour>
      <point x="333.33734939759034" y="0.0" type="line"/>
      <point x="485.4578313253012" y="0.0" type="line"/>
      <point x="485.4578313253012" y="126.1686746987952" type="line"/>
      <point x="580.6987951807229" y="126.1686746987952" type="line"/>
      <point x="580.6987951807229" y="248.4578313253012" type="line"/>
      <point x="485.4578313253012" y="248.4578313253012" type="line"/>
      <point x="485.4578313253012" y="705.0" type="line"/>
      <point x="358.7831325301205" y="705.0" type="line"/>
      <point x="36.36144578313253" y="237.0843373493976" type="line"/>
      <point x="36.36144578313253" y="126.1686746987952" type="line"/>
      <point x="333.33734939759034" y="126.1686746987952" type="line"/>
    </contour>
    <contour>
      <point x="333.33734939759034" y="248.4578313253012" type="line"/>
      <point x="151.0843373493976" y="248.4578313253012" type="line"/>
      <point x="151.0843373493976" y="209.75903614457832" type="line"/>
      <point x="361.710843373494" y="520.0481927710844" type="line"/>
      <point x="333.33734939759034" y="520.0481927710844" type="line"/>
    </contour>
  </outline>
</glyph>
<glyph name="five" format="2">
  <advance width="600.0"/>
  <unicode hex="0035"/>
  <outline>
    <contour>
      <point x="300.6746987951807" y="-10.626506024096384" type="curve" smooth="yes"/>
      <point x="465.2530120481928" y="-10.626506024096384"/>
      <point x="567.3253012048192" y="84.0"/>
      <point x="567.3253012048192" y="226.13253012048193" type="curve" smooth="yes"/>
      <point x="567.3253012048192" y="360.7590361445783"/>
      <point x="477.44578313253015" y="451.7590361445783"/>
      <point x="343.81927710843377" y="451.7590361445783" type="curve" smooth="yes"/>
      <point x="277.89156626506025" y="451.7590361445783"/>
      <point x="221.3975903614458" y="427.89156626506025"/>
      <point x="188.33734939759037" y="386.90361445783134" type="curve"/>
      <point x="225.72289156626505" y="386.90361445783134" type="line"/>
      <point x="225.72289156626505" y="577.6987951807229" type="line"/>
      <point x="523.3855421686748" y="577.6987951807229" type="line"/>
      <point x="523.3855421686748" y="705.0" type="line"/>
      <point x="77.2289156626506" y="705.0" type="line"/>
      <point x="77.2289156626506" y="270.04819277108436" type="line"/>
      <point x="177.32530120481925" y="270.04819277108436" type="line"/>
      <point x="212.75903614457832" y="307.84337349397595"/>
      <point x="254.0" y="326.71084337349396"/>
      <point x="305.0481927710843" y="326.71084337349396" type="curve" smooth="yes"/>
      <point x="374.96385542168673" y="326.71084337349396"/>
      <point x="418.26506024096386" y="284.48192771084337"/>
      <point x="418.26506024096386" y="220.81927710843374" type="curve" smooth="yes"/>
      <point x="418.26506024096386" y="157.84337349397592"/>
      <point x="373.5903614457831" y="118.36144578313252"/>
      <point x="297.73493975903614" y="118.36144578313252" type="curve" smooth="yes"/>
      <point x="230.55421686746988" y="118.36144578313252"/>
      <point x="165.55421686746988" y="140.73493975903614"/>
      <point x="106.12048192771084" y="184.289156626506" type="curve"/>
      <point x="57.22891566265061" y="67.18072289156628" type="line"/>
      <point x="111.60240963855424" y="20.060240963855424"/>
      <point x="207.73493975903617" y="-10.626506024096384"/>
    </contour>
  </outline>
</glyph>
<glyph name="six" format="2">
  <advance width="600.0"/>
  <unicode hex="0036"/>
  <outline>
    <contour>
      <point x="326.9397590361446" y="-10.626506024096384" type="curve" smooth="yes"/>
      <point x="467.0722891566265" y="-10.626506024096384"/>
      <point x="565.2650602409639" y="89.93975903614458"/>
      <point x="565.2650602409639" y="229.75903614457832" type="curve" smooth="yes"/>
      <point x="565.2650602409639" y="361.3855421686747"/>
      <point x="476.95180722891564" y="457.6385542168675"/>
      <point x="358.45783132530124" y="457.6385542168675" type="curve" smooth="yes"/>
      <point x="265.4698795180723" y="457.6385542168675"/>
      <point x="194.2289156626506" y="400.96385542168673"/>
      <point x="177.97590361445782" y="307.48192771084337" type="curve"/>
      <point x="191.5421686746988" y="307.48192771084337" type="line"/>
      <point x="191.5421686746988" y="371.51807228915663" type="line" smooth="yes"/>
      <point x="191.5421686746988" y="514.0361445783133"/>
      <point x="248.59036144578315" y="586.6385542168674"/>
      <point x="356.44578313253015" y="586.6385542168674" type="curve" smooth="yes"/>
      <point x="412.87951807228916" y="586.6385542168674"/>
      <point x="469.6265060240964" y="566.2048192771084"/>
      <point x="518.3132530120482" y="524.9638554216867" type="curve"/>
      <point x="567.5180722891566" y="639.7590361445783" type="line"/>
      <point x="512.3855421686748" y="688.5060240963855"/>
      <point x="434.0120481927711" y="715.6265060240964"/>
      <point x="358.4457831325301" y="715.6265060240964" type="curve" smooth="yes"/>
      <point x="162.18072289156626" y="715.6265060240964"/>
      <point x="45.10843373493976" y="579.0"/>
      <point x="45.10843373493976" y="342.81927710843377" type="curve" smooth="yes"/>
      <point x="45.10843373493976" y="118.3132530120482"/>
      <point x="146.9277108433735" y="-10.626506024096384"/>
    </contour>
    <contour>
      <point x="318.68674698795184" y="110.16867469879517" type="curve" smooth="yes"/>
      <point x="256.71084337349396" y="110.16867469879517"/>
      <point x="214.9156626506024" y="155.59036144578315"/>
      <point x="214.9156626506024" y="223.50602409638554" type="curve" smooth="yes"/>
      <point x="214.9156626506024" y="291.4216867469879"/>
      <point x="256.71084337349396" y="337.5301204819277"/>
      <point x="318.68674698795184" y="337.5301204819277" type="curve" smooth="yes"/>
      <point x="380.66265060240966" y="337.5301204819277"/>
      <point x="422.4578313253012" y="291.4216867469879"/>
      <point x="422.4578313253012" y="223.50602409638554" type="curve" smooth="yes"/>
      <point x="422.4578313253012" y="155.59036144578315"/>
      <point x="380.66265060240966" y="110.16867469879517"/>
    </contour>
  </outline>
</glyph>
<glyph name="colon" format="2">
  <advance width="259.5903614457831"/>
  <unicode hex="003A"/>
  <outline>
    <contour>
      <point x="48.674698795180724" y="291.4578313253012" type="line"/>
      <point x="210.9156626506024" y="291.4578313253012" type="line"/>
      <point x="210.9156626506024" y="440.566265060241" type="line"/>
      <point x="48.674698795180724" y="440.566265060241" type="line"/>
    </contour>
    <contour>
      <point x="48.674698795180724" y="0.0" type="line"/>
      <point x="210.9156626506024" y="0.0" type="line"/>
      <point x="210.9156626506024" y="149.79518072289156" type="line"/>
      <point x="48.674698795180724" y="149.79518072289156" type="line"/>
    </contour>
  </outline>
</glyph>
<glyph name="equal" format="2">
  <advance width="600.0"/>
  <unicode hex="003D"/>
  <outline>
    <contour>
      <point x="56.0" y="335.48192771084337" type="line"/>
      <point x="544.0" y="335.48192771084337" type="line"/>
      <point x="544.0" y="438.51807228915663" type="line"/>
      <point x="56.0" y="438.51807228915663" type="line"/>
    </contour>
    <contour>
      <point x="56.0" y="136.1686746987952" type="line"/>
      <point x="544.0" y="136.1686746987952" type="line"/>
      <point x="544.0" y="238.5180722891566" type="line"/>
      <point x="56.0" y="238.5180722891566" type="line"/>
    </contour>
  </outline>
</glyph>
<glyph name="question" format="2">
  <advance width="468.39759036144574"/>
  <unicode hex="003F"/>
  <outline>
    <contour>
      <point x="183.6265060240964" y="223.40963855421688" type="line"/>
      <point x="273.72289156626505" y="223.40963855421688" type="line"/>
      <point x="278.66265060240966" y="253.6024096385542" type="line" smooth="yes"/>
      <point x="284.34939759036143" y="289.6506024096385"/>
      <point x="302.09638554216866" y="325.89156626506025"/>
      <point x="364.7831325301205" y="377.566265060241" type="curve" smooth="yes"/>
      <point x="434.4096385542169" y="435.2409638554217"/>
      <point x="458.4096385542169" y="483.2409638554217"/>
      <point x="458.4096385542169" y="544.6144578313252" type="curve" smooth="yes"/>
      <point x="458.4096385542169" y="646.4337349397591"/>
      <point x="369.0240963855422" y="715.6265060240964"/>
      <point x="236.75903614457832" y="715.6265060240964" type="curve" smooth="yes"/>
      <point x="151.0722891566265" y="715.6265060240964"/>
      <point x="60.192771084337345" y="684.1927710843373"/>
      <point x="1.6867469879518073" y="634.4457831325301" type="curve"/>
      <point x="50.89156626506024" y="519.6506024096386" type="line"/>
      <point x="105.57831325301206" y="564.5180722891566"/>
      <point x="163.0120481927711" y="586.6385542168674"/>
      <point x="225.93975903614458" y="586.6385542168674" type="curve" smooth="yes"/>
      <point x="276.73493975903614" y="586.6385542168674"/>
      <point x="305.4096385542169" y="564.3373493975903"/>
      <point x="305.4096385542169" y="527.2289156626506" type="curve" smooth="yes"/>
      <point x="305.4096385542169" y="496.18072289156623"/>
      <point x="291.9759036144578" y="471.566265060241"/>
      <point x="254.9879518072289" y="431.144578313253" type="curve" smooth="yes"/>
      <point x="203.3734939759036" y="375.0361445783132"/>
      <point x="183.6265060240964" y="328.855421686747"/>
      <point x="183.6265060240964" y="269.9879518072289" type="curve" smooth="yes"/>
    </contour>
    <contour>
      <point x="147.55421686746988" y="0.0" type="line"/>
      <point x="309.7951807228916" y="0.0" type="line"/>
      <point x="309.7951807228916" y="160.3012048192771" type="line"/>
      <point x="147.55421686746988" y="160.3012048192771" type="line"/>
    </contour>
  </outline>
</glyph>
<glyph name="K" format="2">
  <advance width="687.4939759036145"/>
  <unicode hex="004B"/>
  <anchor x="341.39759036144574" y="0.0" name="bottom"/>
  <anchor x="341.3975903614458" y="705.0" name="top"/>
  <anchor x="21.433734939759038" y="705.0" name="topleft"/>
  <outline>
    <contour>
      <point x="70.73493975903614" y="0.0" type="line"/>
      <point x="225.9879518072289" y="0.0" type="line"/>
      <point x="225.9879518072289" y="322.2409638554217" type="line"/>
      <point x="227.9879518072289" y="322.2409638554217" type="line"/>
      <point x="533.3132530120481" y="0.0" type="line"/>
      <point x="721.3855421686748" y="0.0" type="line"/>
      <point x="347.79518072289153" y="401.5783132530121" type="line"/>
      <point x="347.10843373493975" y="335.12048192771084" type="line"/>
      <point x="707.2048192771084" y="705.0" type="line"/>
      <point x="520.8192771084337" y="705.0" type="line"/>
      <point x="227.9879518072289" y="397.69879518072287" type="line"/>
      <point x="225.9879518072289" y="397.69879518072287" type="line"/>
      <point x="225.9879518072289" y="705.0" type="line"/>
      <point x="70.73493975903614" y="705.0" type="line"/>
    </contour>
  </outline>
</glyph>
<glyph name="N" format="2">
  <advance width="752.6987951807229"/>
  <unicode hex="004E"/>
  <anchor x="376.50602409638554" y="0.0" name="bottom"/>
  <anchor x="376.1927710843373" y="705.0" name="top"/>
  <outline>
    <contour>
      <point x="70.73493975903614" y="0.0" type="line"/>
      <point x="215.10843373493975" y="0.0" type="line"/>
      <point x="215.10843373493975" y="484.0843373493977" type="line"/>
      <point x="188.5421686746988" y="484.0843373493977" type="line"/>
      <point x="567.5421686746987" y="0.0" type="line"/>
      <point x="681.9638554216867" y="0.0" type="line"/>
      <point x="681.9638554216867" y="705.0" type="line"/>
      <point x="537.5903614457832" y="705.0" type="line"/>
      <point x="537.5903614457832" y="221.6024096385542" type="line"/>
      <point x="564.843373493976" y="221.6024096385542" type="line"/>
      <point x="185.84337349397592" y="705.0" type="line"/>
      <point x="70.73493975903614" y="705.0" type="line"/>
    </contour>
  </outline>
</glyph>
<glyph name="P" format="2">
  <advance width="663.5903614457831"/>
  <unicode hex="0050"/>
  <anchor x="337.0120481927711" y="0.0" name="bottom"/>
  <anchor x="336.69879518072287" y="705.0" name="top"/>
  <outline>
    <contour>
      <point x="70.73493975903614" y="0.0" type="line"/>
      <point x="225.9879518072289" y="0.0" type="line"/>
      <point x="225.9879518072289" y="253.66265060240963" type="line"/>
      <point x="393.0240963855422" y="253.66265060240963" type="line" smooth="yes"/>
      <point x="550.2168674698795" y="253.66265060240963"/>
      <point x="639.0963855421686" y="338.1686746987952"/>
      <point x="639.0963855421686" y="479.67469879518075" type="curve" smooth="yes"/>
      <point x="639.0963855421686" y="621.1807228915662"/>
      <point x="550.2168674698795" y="705.0"/>
      <point x="393.0240963855422" y="705.0" type="curve" smooth="yes"/>
      <point x="70.73493975903614" y="705.0" type="line"/>
    </contour>
    <contour>
      <point x="225.9879518072289" y="374.3975903614458" type="line"/>
      <point x="225.9879518072289" y="584.2650602409639" type="line"/>
      <point x="366.7590361445783" y="584.2650602409639" type="line" smooth="yes"/>
      <point x="447.421686746988" y="584.2650602409639"/>
      <point x="490.03614457831327" y="549.5903614457832"/>
      <point x="490.03614457831327" y="479.67469879518075" type="curve" smooth="yes"/>
      <point x="490.03614457831327" y="409.7590361445783"/>
      <point x="447.421686746988" y="374.3975903614458"/>
      <point x="366.7590361445783" y="374.3975903614458" type="curve" smooth="yes"/>
    </contour>
  </outline>
</glyph>
<glyph name="S" format="2">
  <advance width="641.0240963855422"/>
  <unicode hex="0053"/>
  <anchor x="326.7590361445783" y="0.0" name="bottom"/>
  <anchor x="331.26506024096386" y="705.0" name="top"/>
  <outline>
    <contour>
      <point x="323.13253012048193" y="-10.626506024096384" type="curve" smooth="yes"/>
      <point x="498.7710843373494" y="-10.626506024096384"/>
      <point x="611.156626506024" y="76.87951807228916"/>
      <point x="611.156626506024" y="208.89156626506022" type="curve" smooth="yes"/>
      <point x="611.156626506024" y="310.144578313253"/>
      <point x="547.4698795180723" y="370.96385542168673"/>
      <point x="416.72289156626505" y="398.96385542168673" type="curve" smooth="yes"/>
      <point x="304.27710843373495" y="422.9036144578313" type="line" smooth="yes"/>
      <point x="234.79518072289156" y="437.33734939759034"/>
      <point x="210.18072289156626" y="459.9518072289157"/>
      <point x="210.18072289156626" y="498.55421686746985" type="curve" smooth="yes"/>
      <point x="210.18072289156626" y="551.2168674698795"/>
      <point x="258.28915662650604" y="586.6385542168674"/>
      <point x="341.8313253012048" y="586.6385542168674" type="curve" smooth="yes"/>
      <point x="420.26506024096386" y="586.6385542168674"/>
      <point x="487.51807228915663" y="564.2650602409639"/>
      <point x="541.0120481927711" y="521.6506024096386" type="curve"/>
      <point x="585.9638554216867" y="636.4457831325301" type="line"/>
      <point x="530.5903614457832" y="685.9397590361446"/>
      <point x="439.7710843373494" y="715.6265060240964"/>
      <point x="343.45783132530124" y="715.6265060240964" type="curve" smooth="yes"/>
      <point x="173.25301204819277" y="715.6265060240964"/>
      <point x="57.18072289156627" y="626.433734939759"/>
      <point x="57.18072289156627" y="491.67469879518075" type="curve" smooth="yes"/>
      <point x="57.18072289156627" y="386.73493975903614"/>
      <point x="118.49397590361446" y="322.855421686747"/>
      <point x="246.12048192771084" y="295.54216867469876" type="curve" smooth="yes"/>
      <point x="359.2530120481928" y="271.60240963855426" type="line" smooth="yes"/>
      <point x="431.855421686747" y="256.48192771084337"/>
      <point x="458.1566265060241" y="235.24096385542168"/>
      <point x="458.1566265060241" y="197.0722891566265" type="curve" smooth="yes"/>
      <point x="458.1566265060241" y="151.40963855421688"/>
      <point x="419.3614457831325" y="118.36144578313252"/>
      <point x="323.13253012048193" y="118.36144578313252" type="curve" smooth="yes"/>
      <point x="234.89156626506022" y="118.36144578313252"/>
      <point x="152.19277108433735" y="144.67469879518072"/>
      <point x="88.7590361445783" y="188.5421686746988" type="curve"/>
      <point x="43.807228915662655" y="67.18072289156628" type="line"/>
      <point x="109.43373493975903" y="19.060240963855424"/>
      <point x="211.81927710843374" y="-10.626506024096384"/>
    </contour>
  </outline>
</glyph>
<glyph name="V" format="2">
  <advance width="727.4096385542169"/>
  <unicode hex="0056"/>
  <anchor x="364.20481927710847" y="0.0" name="bottom"/>
  <anchor x="363.20481927710847" y="705.0" name="top"/>
  <outline>
    <contour>
      <point x="300.49397590361446" y="0.0" type="line"/>
      <point x="426.91566265060237" y="0.0" type="line"/>
      <point x="744.3614457831326" y="705.0" type="line"/>
      <point x="584.7951807228916" y="705.0" type="line"/>
      <point x="342.3855421686747" y="141.87951807228916" type="line"/>
      <point x="391.65060240963857" y="141.87951807228916" type="line"/>
      <point x="148.86746987951807" y="705.0" type="line"/>
      <point x="-16.951807228915662" y="705.0" type="line"/>
    </contour>
  </outline>
</glyph>
<glyph name="W" format="2">
  <advance width="1120.2048192771085"/>
  <unicode hex="0057"/>
  <anchor x="560.4457831325301" y="0.0" name="bottom"/>
  <anchor x="560.7590361445783" y="705.0" name="top"/>
  <outline>
    <contour>
      <point x="267.55421686746985" y="0.0" type="line"/>
      <point x="393.91566265060237" y="0.0" type="line"/>
      <point x="573.3855421686748" y="501.27710843373495" type="line"/>
      <point x="549.4457831325301" y="501.27710843373495" type="line"/>
      <point x="726.2891566265059" y="0.0" type="line"/>
      <point x="852.3373493975903" y="0.0" type="line"/>
      <point x="1105.2168674698794" y="705.0" type="line"/>
      <point x="954.8433734939758" y="705.0" type="line"/>
      <point x="768.7469879518072" y="160.5180722891566" type="line"/>
      <point x="805.9397590361446" y="160.5180722891566" type="line"/>
      <point x="621.4698795180723" y="705.0" type="line"/>
      <point x="508.9277108433735" y="705.0" type="line"/>
      <point x="315.5783132530121" y="160.5180722891566" type="line"/>
      <point x="358.71084337349396" y="160.5180722891566" type="line"/>
      <point x="176.24096385542168" y="705.0" type="line"/>
      <point x="16.674698795180724" y="705.0" type="line"/>
    </contour>
  </outline>
</glyph>
<glyph name="bracketleft" format="2">
  <advance width="376.86746987951807"/>
  <unicode hex="005B"/>
  <outline>
    <contour>
      <point x="104.12048192771084" y="-180.0" type="line"/>
      <point x="362.3614457831325" y="-180.0" type="line"/>
      <point x="362.3614457831325" y="-67.83132530120483" type="line"/>
      <point x="255.12048192771084" y="-67.83132530120483" type="line"/>
      <point x="255.12048192771084" y="592.8313253012047" type="line"/>
      <point x="362.3614457831325" y="592.8313253012047" type="line"/>
      <point x="362.3614457831325" y="705.0" type="line"/>
      <point x="104.12048192771084" y="705.0" type="line"/>
    </contour>
  </outline>
</glyph>
<glyph name="bracketright" format="2">
  <advance width="376.86746987951807"/>
  <unicode hex="005D"/>
  <outline>
    <contour>
      <point x="14.506024096385541" y="-180.0" type="line"/>
      <point x="272.433734939759" y="-180.0" type="line"/>
      <point x="272.433734939759" y="705.0" type="line"/>
      <point x="14.506024096385541" y="705.0" type="line"/>
      <point x="14.506024096385541" y="592.8313253012047" type="line"/>
      <point x="121.43373493975903" y="592.8313253012047" type="line"/>
      <point x="121.43373493975903" y="-67.83132530120483" type="line"/>
      <point x="14.506024096385541" y="-67.83132530120483" type="line"/>
    </contour>
  </outline>
</glyph>
<glyph name="a" format="2">
  <advance width="557.3373493975903"/>
  <unicode hex="0061"/>
  <anchor x="279.07228915662654" y="0.0" name="bottom"/>
  <anchor x="455.6385542168675" y="0.0" name="ogonek"/>
  <anchor x="283.3855421686747" y="484.0" name="top"/>
  <outline>
    <contour>
      <point x="220.80722891566265" y="-10.626506024096384" type="curve" smooth="yes"/>
      <point x="299.2409638554217" y="-10.626506024096384"/>
      <point x="352.421686746988" y="30.090361445783138"/>
      <point x="366.855421686747" y="91.61445783132531" type="curve"/>
      <point x="360.7951807228916" y="91.61445783132531" type="line"/>
      <point x="360.7951807228916" y="0.0" type="line"/>
      <point x="501.6024096385542" y="0.0" type="line"/>
      <point x="501.6024096385542" y="252.36144578313252" type="line" smooth="yes"/>
      <point x="501.6024096385542" y="388.62650602409633"/>
      <point x="428.5903614457831" y="451.1927710843374"/>
      <point x="278.8493975903615" y="451.1927710843374" type="curve" smooth="yes"/>
      <point x="204.96987951807228" y="451.1927710843374"/>
      <point x="111.01807228915662" y="429.22289156626505"/>
      <point x="59.361445783132524" y="395.81927710843377" type="curve"/>
      <point x="95.46385542168674" y="298.7831325301205" type="line"/>
      <point x="151.80722891566265" y="330.87349397590367"/>
      <point x="210.9698795180723" y="345.56024096385545"/>
      <point x="267.0602409638554" y="345.56024096385545" type="curve" smooth="yes"/>
      <point x="332.98795180722897" y="345.56024096385545"/>
      <point x="359.1385542168675" y="322.6024096385542"/>
      <point x="359.1385542168675" y="272.40361445783134" type="curve" smooth="yes"/>
      <point x="359.1385542168675" y="179.4036144578313" type="line" smooth="yes"/>
      <point x="359.1385542168675" y="125.57831325301206"/>
      <point x="314.49397590361446" y="86.8132530120482"/>
      <point x="256.6385542168675" y="86.8132530120482" type="curve" smooth="yes"/>
      <point x="207.24698795180726" y="86.8132530120482"/>
      <point x="181.25903614457832" y="109.71084337349397"/>
      <point x="181.25903614457832" y="141.13253012048193" type="curve" smooth="yes"/>
      <point x="181.25903614457832" y="175.52409638554215"/>
      <point x="211.81325301204822" y="191.18072289156626"/>
      <point x="311.79518072289153" y="191.18072289156626" type="curve" smooth="yes"/>
      <point x="374.73493975903614" y="191.18072289156626" type="line"/>
      <point x="374.73493975903614" y="263.53614457831327" type="line"/>
      <point x="313.0481927710843" y="263.53614457831327" type="line" smooth="yes"/>
      <point x="112.8975903614458" y="263.53614457831327"/>
      <point x="36.42168674698796" y="229.44578313253012"/>
      <point x="36.42168674698796" y="135.16265060240966" type="curve" smooth="yes"/>
      <point x="36.42168674698796" y="55.596385542168676"/>
      <point x="111.04819277108435" y="-10.626506024096384"/>
    </contour>
  </outline>
</glyph>
<glyph name="c" format="2">
  <advance width="477.9518072289157"/>
  <unicode hex="0063"/>
  <anchor x="286.4457831325301" y="0.0" name="bottom"/>
  <anchor x="286.4457831325301" y="484.0" name="top"/>
  <outline>
    <contour>
      <point x="297.6084337349398" y="-10.626506024096384" type="curve" smooth="yes"/>
      <point x="357.54819277108436" y="-10.626506024096384"/>
      <point x="424.80120481927713" y="8.120481927710845"/>
      <point x="468.0542168674699" y="37.89759036144578" type="curve"/>
      <point x="429.0120481927711" y="141.50000000000003" type="line"/>
      <point x="395.20481927710847" y="115.6024096385542"/>
      <point x="348.4879518072289" y="101.2590361445783"/>
      <point x="309.7409638554217" y="101.2590361445783" type="curve" smooth="yes"/>
      <point x="231.5421686746988" y="101.2590361445783"/>
      <point x="188.24096385542168" y="146.6807228915663"/>
      <point x="188.24096385542168" y="221.3132530120482" type="curve" smooth="yes"/>
      <point x="188.24096385542168" y="296.94578313253015"/>
      <point x="231.5421686746988" y="339.96385542168673"/>
      <point x="309.7409638554217" y="339.96385542168673" type="curve" smooth="yes"/>
      <point x="349.4879518072289" y="339.96385542168673"/>
      <point x="395.20481927710847" y="325.6204819277109"/>
      <point x="429.0120481927711" y="299.7530120481928" type="curve"/>
      <point x="468.0542168674699" y="403.32530120481925" type="line"/>
      <point x="424.80120481927713" y="434.78915662650604"/>
      <point x="358.5783132530121" y="451.1927710843374"/>
      <point x="297.6084337349398" y="451.1927710843374" type="curve" smooth="yes"/>
      <point x="136.3132530120482" y="451.1927710843374"/>
      <point x="34.2710843373494" y="362.9096385542169"/>
      <point x="34.2710843373494" y="221.65662650602408" type="curve" smooth="yes"/>
      <point x="34.2710843373494" y="80.71686746987952"/>
      <point x="135.96987951807228" y="-10.626506024096384"/>
    </contour>
  </outline>
</glyph>
<glyph name="d" format="2">
  <advance width="610.0240963855422"/>
  <unicode hex="0064"/>
  <anchor x="306.3253012048193" y="0.0" name="bottom"/>
  <anchor x="298.13253012048193" y="221.6265060240964" name="center"/>
  <anchor x="425.7590361445783" y="531.8493975903614" name="stroke"/>
  <anchor x="305.6385542168675" y="705.0" name="top"/>
  <anchor x="588.4698795180723" y="705.0" name="topright"/>
  <outline>
    <contour>
      <point x="245.98795180722888" y="-10.626506024096384" type="curve" smooth="yes"/>
      <point x="326.82530120481925" y="-10.626506024096384"/>
      <point x="392.19879518072287" y="30.807228915662655"/>
      <point x="412.54216867469876" y="86.39156626506023" type="curve"/>
      <point x="405.2289156626506" y="86.39156626506023" type="line"/>
      <point x="405.2289156626506" y="0.0" type="line"/>
      <point x="551.6024096385541" y="0.0" type="line"/>
      <point x="551.6024096385541" y="705.0" type="line"/>
      <point x="400.6024096385542" y="705.0" type="line"/>
      <point x="400.6024096385542" y="359.8012048192771" type="line"/>
      <point x="411.22891566265054" y="359.8012048192771" type="line"/>
      <point x="388.9156626506024" y="413.38554216867476"/>
      <point x="325.19879518072287" y="451.1927710843374"/>
      <point x="245.98795180722888" y="451.1927710843374" type="curve" smooth="yes"/>
      <point x="121.8975903614458" y="451.1927710843374"/>
      <point x="34.2710843373494" y="361.59638554216866"/>
      <point x="34.2710843373494" y="220.6265060240964" type="curve" smooth="yes"/>
      <point x="34.2710843373494" y="80.0"/>
      <point x="122.8975903614458" y="-10.626506024096384"/>
    </contour>
    <contour>
      <point x="294.26506024096386" y="100.9156626506024" type="curve" smooth="yes"/>
      <point x="227.31927710843374" y="100.9156626506024"/>
      <point x="184.3012048192771" y="142.71084337349396"/>
      <point x="184.3012048192771" y="220.6265060240964" type="curve" smooth="yes"/>
      <point x="184.3012048192771" y="298.8855421686747"/>
      <point x="227.31927710843374" y="340.3072289156626"/>
      <point x="294.26506024096386" y="340.3072289156626" type="curve" smooth="yes"/>
      <point x="360.867469879518" y="340.3072289156626"/>
      <point x="404.2289156626506" y="298.8855421686747"/>
      <point x="404.2289156626506" y="220.6265060240964" type="curve" smooth="yes"/>
      <point x="404.2289156626506" y="142.71084337349396"/>
      <point x="360.867469879518" y="100.9156626506024"/>
    </contour>
  </outline>
</glyph>
<glyph name="e" format="2">
  <advance width="548.5783132530121"/>
  <unicode hex="0065"/>
  <anchor x="286.81927710843377" y="0.0" name="bottom"/>
  <anchor x="380.3975903614458" y="0.0" name="ogonek"/>
  <anchor x="286.81927710843377" y="484.0" name="top"/>
  <outline>
    <contour>
      <point x="315.8313253012048" y="-10.626506024096384" type="curve" smooth="yes"/>
      <point x="380.89156626506025" y="-10.626506024096384"/>
      <point x="457.45783132530124" y="9.090361445783133"/>
      <point x="506.36746987951807" y="40.897590361445786" type="curve"/>
      <point x="470.921686746988" y="137.56024096385542" type="line"/>
      <point x="424.8614457831325" y="109.34939759036143"/>
      <point x="369.60843373493975" y="96.97590361445782"/>
      <point x="318.7710843373494" y="96.97590361445782" type="curve" smooth="yes"/>
      <point x="218.7831325301205" y="96.97590361445782"/>
      <point x="174.10843373493975" y="138.7409638554217"/>
      <point x="174.10843373493975" y="222.56626506024097" type="curve" smooth="yes"/>
      <point x="174.10843373493975" y="235.1325301204819" type="line" smooth="yes"/>
      <point x="174.10843373493975" y="310.2409638554217"/>
      <point x="216.0963855421687" y="356.7530120481928"/>
      <point x="290.1024096385542" y="356.7530120481928" type="curve" smooth="yes"/>
      <point x="357.6746987951807" y="356.7530120481928"/>
      <point x="394.28915662650604" y="318.3614457831326"/>
      <point x="394.28915662650604" y="245.8192771084337" type="curve"/>
      <point x="410.63253012048193" y="261.1927710843374" type="line"/>
      <point x="158.10843373493975" y="261.1927710843374" type="line"/>
      <point x="158.10843373493975" y="188.83734939759034" type="line"/>
      <point x="518.9638554216867" y="188.83734939759034" type="line"/>
      <point x="518.9638554216867" y="220.49397590361446" type="line" smooth="yes"/>
      <point x="518.9638554216867" y="361.71686746987956"/>
      <point x="428.89156626506025" y="451.1927710843374"/>
      <point x="285.16265060240966" y="451.1927710843374" type="curve" smooth="yes"/>
      <point x="138.0" y="451.1927710843374"/>
      <point x="34.2710843373494" y="353.9096385542169"/>
      <point x="34.2710843373494" y="221.25301204819277" type="curve" smooth="yes"/>
      <point x="34.2710843373494" y="80.62650602409639"/>
      <point x="138.6867469879518" y="-10.626506024096384"/>
    </contour>
  </outline>
</glyph>
<glyph name="f" format="2">
  <advance width="382.4819277108434"/>
  <unicode hex="0066"/>
  <anchor x="171.65060240963857" y="0.0" name="bottom"/>
  <anchor x="171.65060240963857" y="595.0" name="top"/>
  <outline>
    <contour>
      <point x="95.80722891566265" y="0.0" type="line"/>
      <point x="246.80722891566262" y="0.0" type="line"/>
      <point x="246.80722891566262" y="328.3975903614458" type="line"/>
      <point x="375.4216867469879" y="328.3975903614458" type="line"/>
      <point x="375.4216867469879" y="440.566265060241" type="line"/>
      <point x="227.95783132530119" y="440.566265060241" type="line"/>
      <point x="246.80722891566262" y="425.6265060240964" type="line"/>
      <point x="246.80722891566262" y="500.83734939759034" type="line" smooth="yes"/>
      <point x="246.80722891566262" y="565.0361445783132"/>
      <point x="273.9879518072289" y="593.0542168674698"/>
      <point x="352.4216867469879" y="598.3975903614459" type="curve" smooth="yes"/>
      <point x="398.73493975903614" y="601.3975903614459" type="line"/>
      <point x="389.79518072289153" y="710.6265060240964" type="line"/>
      <point x="335.15662650602405" y="707.3132530120482" type="line" smooth="yes"/>
      <point x="171.84939759036143" y="698.0"/>
      <point x="95.80722891566265" y="626.8072289156627"/>
      <point x="95.80722891566265" y="477.5421686746988" type="curve" smooth="yes"/>
      <point x="95.80722891566265" y="413.8072289156626" type="line"/>
      <point x="129.1325301204819" y="440.566265060241" type="line"/>
      <point x="2.7469879518072293" y="440.566265060241" type="line"/>
      <point x="2.7469879518072293" y="328.3975903614458" type="line"/>
      <point x="95.80722891566265" y="328.3975903614458" type="line"/>
    </contour>
  </outline>
</glyph>
<glyph name="g" format="2">
  <advance width="614.6506024096386"/>
  <unicode hex="0067"/>
  <anchor x="306.69879518072287" y="484.0" name="top"/>
  <outline>
    <contour>
      <point x="293.2530120481928" y="-190.6265060240964" type="curve" smooth="yes"/>
      <point x="462.65060240963857" y="-190.6265060240964"/>
      <point x="556.2289156626506" y="-107.80722891566265"/>
      <point x="556.2289156626506" y="57.14457831325301" type="curve" smooth="yes"/>
      <point x="556.2289156626506" y="440.566265060241" type="line"/>
      <point x="409.855421686747" y="440.566265060241" type="line"/>
      <point x="409.855421686747" y="359.80120481927713" type="line"/>
      <point x="415.8554216867469" y="359.80120481927713" type="line"/>
      <point x="392.5722891566265" y="414.38554216867476"/>
      <point x="328.1686746987952" y="451.1927710843374"/>
      <point x="248.95783132530119" y="451.1927710843374" type="curve" smooth="yes"/>
      <point x="122.8975903614458" y="451.1927710843374"/>
      <point x="34.2710843373494" y="364.2530120481928"/>
      <point x="34.2710843373494" y="232.59638554216863" type="curve" smooth="yes"/>
      <point x="34.2710843373494" y="100.93975903614458"/>
      <point x="122.8975903614458" y="12.313253012048193"/>
      <point x="248.95783132530119" y="12.313253012048193" type="curve" smooth="yes"/>
      <point x="327.82530120481925" y="12.313253012048193"/>
      <point x="394.54216867469876" y="52.09036144578314"/>
      <point x="417.16867469879514" y="106.36144578313255" type="curve"/>
      <point x="409.16867469879514" y="106.36144578313255" type="line"/>
      <point x="409.16867469879514" y="39.63855421686747" type="line" smooth="yes"/>
      <point x="409.16867469879514" y="-39.78313253012049"/>
      <point x="366.3614457831325" y="-77.77108433734941"/>
      <point x="280.4638554216868" y="-77.77108433734941" type="curve" smooth="yes"/>
      <point x="218.56626506024097" y="-77.77108433734941"/>
      <point x="147.9277108433735" y="-59.7710843373494"/>
      <point x="96.09036144578313" y="-26.903614457831328" type="curve"/>
      <point x="55.39156626506024" y="-131.16265060240963" type="line"/>
      <point x="120.2710843373494" y="-172.22289156626505"/>
      <point x="203.7168674698795" y="-190.6265060240964"/>
    </contour>
    <contour>
      <point x="296.578313253012" y="122.54216867469879" type="curve" smooth="yes"/>
      <point x="226.00602409638554" y="122.54216867469879"/>
      <point x="184.3012048192771" y="164.96385542168676"/>
      <point x="184.3012048192771" y="232.59638554216863" type="curve" smooth="yes"/>
      <point x="184.3012048192771" y="299.5722891566265"/>
      <point x="226.00602409638554" y="340.96385542168673"/>
      <point x="296.578313253012" y="340.96385542168673" type="curve" smooth="yes"/>
      <point x="367.15060240963857" y="340.96385542168673"/>
      <point x="408.855421686747" y="299.5722891566265"/>
      <point x="408.855421686747" y="232.59638554216863" type="curve" smooth="yes"/>
      <point x="408.855421686747" y="164.96385542168676"/>
      <point x="367.15060240963857" y="122.54216867469879"/>
    </contour>
  </outline>
</glyph>
<glyph name="h" format="2">
  <advance width="595.3373493975903"/>
  <unicode hex="0068"/>
  <anchor x="299.3253012048193" y="0.0" name="bottom"/>
  <anchor x="299.3253012048193" y="224.28313253012047" name="center"/>
  <anchor x="334.0120481927711" y="316.0301204819277" name="dot"/>
  <anchor x="184.26506024096383" y="590.1927710843373" name="stroke"/>
  <anchor x="299.0120481927711" y="705.0" name="top"/>
  <anchor x="235.66265060240963" y="705.0" name="topright"/>
  <outline>
    <contour>
      <point x="58.421686746987945" y="0.0" type="line"/>
      <point x="209.42168674698794" y="0.0" type="line"/>
      <point x="209.42168674698794" y="229.4036144578313" type="line" smooth="yes"/>
      <point x="209.42168674698794" y="293.3192771084337"/>
      <point x="249.50000000000003" y="335.0542168674699"/>
      <point x="313.7590361445783" y="335.0542168674699" type="curve" smooth="yes"/>
      <point x="364.36144578313247" y="335.0542168674699"/>
      <point x="388.60240963855426" y="309.0963855421687"/>
      <point x="388.60240963855426" y="243.5843373493976" type="curve" smooth="yes"/>
      <point x="388.60240963855426" y="0.0" type="line"/>
      <point x="539.6024096385543" y="0.0" type="line"/>
      <point x="539.6024096385543" y="252.49397590361448" type="line" smooth="yes"/>
      <point x="539.6024096385543" y="386.2831325301205"/>
      <point x="483.91566265060237" y="451.1927710843374"/>
      <point x="366.6024096385542" y="451.1927710843374" type="curve" smooth="yes"/>
      <point x="288.48192771084337" y="451.1927710843374"/>
      <point x="226.04819277108433" y="414.7590361445783"/>
      <point x="195.79518072289156" y="351.89156626506025" type="curve"/>
      <point x="209.42168674698794" y="351.89156626506025" type="line"/>
      <point x="209.42168674698794" y="705.0" type="line"/>
      <point x="58.421686746987945" y="705.0" type="line"/>
    </contour>
  </outline>
</glyph>
<glyph name="m" format="2">
  <advance width="889.2168674698795"/>
  <unicode hex="006D"/>
  <anchor x="445.95180722891564" y="0.0" name="bottom"/>
  <anchor x="445.95180722891564" y="484.0" name="top"/>
  <outline>
    <contour>
      <point x="60.421686746987945" y="0.0" type="line"/>
      <point x="211.42168674698794" y="0.0" type="line"/>
      <point x="211.42168674698794" y="226.7771084337349" type="line" smooth="yes"/>
      <point x="211.42168674698794" y="293.9759036144578"/>
      <point x="245.4698795180723" y="335.0542168674699"/>
      <point x="303.0120481927711" y="335.0542168674699" type="curve" smooth="yes"/>
      <point x="349.21084337349396" y="335.0542168674699"/>
      <point x="370.10843373493975" y="309.0963855421687"/>
      <point x="370.10843373493975" y="243.89759036144576" type="curve" smooth="yes"/>
      <point x="370.10843373493975" y="0.0" type="line"/>
      <point x="521.1084337349398" y="0.0" type="line"/>
      <point x="521.1084337349398" y="226.7771084337349" type="line" smooth="yes"/>
      <point x="521.1084337349398" y="293.9759036144578"/>
      <point x="555.843373493976" y="335.0542168674699"/>
      <point x="612.6987951807229" y="335.0542168674699" type="curve" smooth="yes"/>
      <point x="659.5843373493975" y="335.0542168674699"/>
      <point x="680.4819277108434" y="309.0963855421687"/>
      <point x="680.4819277108434" y="243.89759036144576" type="curve" smooth="yes"/>
      <point x="680.4819277108434" y="0.0" type="line"/>
      <point x="831.4819277108434" y="0.0" type="line"/>
      <point x="831.4819277108434" y="252.49397590361448" type="line" smooth="yes"/>
      <point x="831.4819277108434" y="386.9397590361446"/>
      <point x="778.1385542168674" y="451.1927710843374"/>
      <point x="665.2590361445784" y="451.1927710843374" type="curve" smooth="yes"/>
      <point x="589.078313253012" y="451.1927710843374"/>
      <point x="524.1385542168675" y="413.35542168674704"/>
      <point x="493.9156626506024" y="349.23493975903614" type="curve"/>
      <point x="506.5722891566265" y="349.23493975903614" type="line"/>
      <point x="484.6626506024096" y="420.4457831325301"/>
      <point x="432.00602409638554" y="451.1927710843374"/>
      <point x="358.5120481927711" y="451.1927710843374" type="curve" smooth="yes"/>
      <point x="282.45180722891564" y="451.1927710843374"/>
      <point x="224.73493975903614" y="413.1024096385542"/>
      <point x="197.13855421686748" y="351.89156626506025" type="curve"/>
      <point x="207.13855421686748" y="351.89156626506025" type="line"/>
      <point x="207.13855421686748" y="440.566265060241" type="line"/>
      <point x="60.421686746987945" y="440.566265060241" type="line"/>
    </contour>
  </outline>
</glyph>
<glyph name="o" format="2">
  <advance width="588.5301204819277"/>
  <unicode hex="006F"/>
  <anchor x="294.26506024096386" y="0.0" name="bottom"/>
  <anchor x="294.26506024096386" y="220.6265060240964" name="center"/>
  <anchor x="353.26506024096386" y="0.0" name="ogonek"/>
  <anchor x="294.26506024096386" y="484.0" name="top"/>
  <anchor x="357.33734939759034" y="434.6566265060241" name="topright"/>
  <outline>
    <contour>
      <point x="294.26506024096386" y="-10.626506024096384" type="curve" smooth="yes"/>
      <point x="451.1867469879518" y="-10.626506024096384"/>
      <point x="554.9156626506024" y="79.0"/>
      <point x="554.9156626506024" y="220.6265060240964" type="curve" smooth="yes"/>
      <point x="554.9156626506024" y="362.2228915662651"/>
      <point x="451.1867469879518" y="451.1927710843374"/>
      <point x="294.26506024096386" y="451.1927710843374" type="curve" smooth="yes"/>
      <point x="137.0" y="451.1927710843374"/>
      <point x="34.2710843373494" y="362.2228915662651"/>
      <point x="34.2710843373494" y="220.6265060240964" type="curve" smooth="yes"/>
      <point x="34.2710843373494" y="79.0"/>
      <point x="137.0" y="-10.626506024096384"/>
    </contour>
    <contour>
      <point x="294.26506024096386" y="100.9156626506024" type="curve" smooth="yes"/>
      <point x="227.31927710843374" y="100.9156626506024"/>
      <point x="184.3012048192771" y="142.71084337349396"/>
      <point x="184.3012048192771" y="220.6265060240964" type="curve" smooth="yes"/>
      <point x="184.3012048192771" y="298.8855421686747"/>
      <point x="227.31927710843374" y="340.3072289156626"/>
      <point x="294.26506024096386" y="340.3072289156626" type="curve" smooth="yes"/>
      <point x="360.867469879518" y="340.3072289156626"/>
      <point x="404.2289156626506" y="298.8855421686747"/>
      <point x="404.2289156626506" y="220.6265060240964" type="curve" smooth="yes"/>
      <point x="404.2289156626506" y="142.71084337349396"/>
      <point x="360.867469879518" y="100.9156626506024"/>
    </contour>
  </outline>
</glyph>
<glyph name="q" format="2">
  <advance width="610.0240963855422"/>
  <unicode hex="0071"/>
  <anchor x="306.26506024096386" y="0.0" name="bottom"/>
  <anchor x="306.26506024096386" y="484.0" name="top"/>
  <outline>
    <contour>
      <point x="400.6024096385542" y="-180.0" type="line"/>
      <point x="551.6024096385541" y="-180.0" type="line"/>
      <point x="551.6024096385541" y="440.566265060241" type="line"/>
      <point x="405.2289156626506" y="440.566265060241" type="line"/>
      <point x="405.2289156626506" y="355.51807228915663" type="line"/>
      <point x="412.54216867469876" y="355.51807228915663" type="line"/>
      <point x="392.19879518072287" y="410.7590361445783"/>
      <point x="326.82530120481925" y="451.1927710843374"/>
      <point x="245.98795180722888" y="451.1927710843374" type="curve" smooth="yes"/>
      <point x="122.8975903614458" y="451.1927710843374"/>
      <point x="34.2710843373494" y="361.59638554216866"/>
      <point x="34.2710843373494" y="220.6265060240964" type="curve" smooth="yes"/>
      <point x="34.2710843373494" y="80.6566265060241"/>
      <point x="121.8975903614458" y="-10.626506024096384"/>
      <point x="245.98795180722888" y="-10.626506024096384" type="curve" smooth="yes"/>
      <point x="325.19879518072287" y="-10.626506024096384"/>
      <point x="388.9156626506024" y="27.83734939759036"/>
      <point x="411.22891566265054" y="81.79518072289157" type="curve"/>
      <point x="400.6024096385542" y="81.79518072289157" type="line"/>
    </contour>
    <contour>
      <point x="294.26506024096386" y="100.9156626506024" type="curve" smooth="yes"/>
      <point x="227.31927710843374" y="100.9156626506024"/>
      <point x="184.3012048192771" y="142.71084337349396"/>
      <point x="184.3012048192771" y="220.6265060240964" type="curve" smooth="yes"/>
      <point x="184.3012048192771" y="298.8855421686747"/>
      <point x="227.31927710843374" y="340.3072289156626"/>
      <point x="294.26506024096386" y="340.3072289156626" type="curve" smooth="yes"/>
      <point x="360.867469879518" y="340.3072289156626"/>
      <point x="404.2289156626506" y="298.8855421686747"/>
      <point x="404.2289156626506" y="220.6265060240964" type="curve" smooth="yes"/>
      <point x="404.2289156626506" y="142.71084337349396"/>
      <point x="360.867469879518" y="100.9156626506024"/>
    </contour>
  </outline>
</glyph>
<glyph name="r" format="2">
  <advance width="412.3614457831325"/>
  <unicode hex="0072"/>
  <anchor x="134.89156626506025" y="0.0" name="bottom"/>
  <anchor x="233.89156626506022" y="484.0" name="top"/>
  <outline>
    <contour>
      <point x="58.421686746987945" y="0.0" type="line"/>
      <point x="212.04819277108433" y="0.0" type="line"/>
      <point x="212.04819277108433" y="208.88554216867468" type="line" smooth="yes"/>
      <point x="212.04819277108433" y="276.3373493975904"/>
      <point x="248.03614457831327" y="312.5783132530121"/>
      <point x="324.3975903614458" y="319.6385542168675" type="curve" smooth="yes"/>
      <point x="408.6144578313253" y="326.578313253012" type="line"/>
      <point x="399.67469879518075" y="453.87951807228916" type="line"/>
      <point x="356.34939759036143" y="450.566265060241" type="line" smooth="yes"/>
      <point x="266.28915662650604" y="444.1927710843373"/>
      <point x="210.97590361445782" y="401.0"/>
      <point x="195.79518072289156" y="325.31325301204816" type="curve"/>
      <point x="205.13855421686748" y="325.31325301204816" type="line"/>
      <point x="205.13855421686748" y="440.566265060241" type="line"/>
      <point x="58.421686746987945" y="440.566265060241" type="line"/>
    </contour>
  </outline>
</glyph>
<glyph name="s" format="2">
  <advance width="492.07228915662654"/>
  <unicode hex="0073"/>
  <anchor x="246.50602409638554" y="0.0" name="bottom"/>
  <anchor x="255.19277108433735" y="484.0" name="top"/>
  <outline>
    <contour>
      <point x="245.87951807228916" y="-10.626506024096384" type="curve" smooth="yes"/>
      <point x="382.8012048192771" y="-10.626506024096384"/>
      <point x="463.3072289156626" y="47.536144578313255"/>
      <point x="463.3072289156626" y="138.95180722891564" type="curve" smooth="yes"/>
      <point x="463.3072289156626" y="206.144578313253"/>
      <point x="418.3975903614458" y="246.08433734939754"/>
      <point x="329.77108433734946" y="258.1445783132531" type="curve" smooth="yes"/>
      <point x="218.6987951807229" y="273.20481927710847" type="line" smooth="yes"/>
      <point x="189.96385542168676" y="277.26506024096386"/>
      <point x="175.43975903614458" y="290.81927710843377"/>
      <point x="175.43975903614458" y="309.8072289156626" type="curve" smooth="yes"/>
      <point x="175.43975903614458" y="334.5120481927711"/>
      <point x="201.33734939759037" y="354.4397590361446"/>
      <point x="266.355421686747" y="354.4397590361446" type="curve" smooth="yes"/>
      <point x="312.13253012048193" y="354.4397590361446"/>
      <point x="372.3253012048193" y="338.7530120481928"/>
      <point x="414.2951807228916" y="311.22891566265065" type="curve"/>
      <point x="448.74096385542174" y="403.0120481927711" type="line"/>
      <point x="400.921686746988" y="435.7590361445783"/>
      <point x="332.07228915662654" y="451.1927710843374"/>
      <point x="265.38554216867465" y="451.1927710843374" type="curve" smooth="yes"/>
      <point x="125.83734939759036" y="451.1927710843374"/>
      <point x="45.765060240963855" y="388.0301204819277"/>
      <point x="45.765060240963855" y="302.55421686746985" type="curve" smooth="yes"/>
      <point x="45.765060240963855" y="236.36144578313255"/>
      <point x="90.33132530120483" y="193.76506024096386"/>
      <point x="174.8975903614458" y="181.70481927710844" type="curve" smooth="yes"/>
      <point x="285.9698795180723" y="166.30120481927713" type="line" smooth="yes"/>
      <point x="317.7650602409638" y="161.86746987951807"/>
      <point x="332.63253012048193" y="150.6867469879518"/>
      <point x="332.63253012048193" y="130.3855421686747" type="curve" smooth="yes"/>
      <point x="332.63253012048193" y="105.33734939759036"/>
      <point x="306.64457831325296" y="87.12650602409637"/>
      <point x="244.90963855421688" y="87.12650602409637" type="curve" smooth="yes"/>
      <point x="183.3132530120482" y="87.12650602409637"/>
      <point x="116.46385542168674" y="103.43975903614458"/>
      <point x="69.46385542168674" y="131.9036144578313" type="curve"/>
      <point x="36.98795180722892" y="38.52409638554217" type="line"/>
      <point x="86.52409638554218" y="6.433734939759036"/>
      <point x="163.06024096385542" y="-10.626506024096384"/>
    </contour>
  </outline>
</glyph>
<glyph name="t" format="2">
  <advance width="404.36144578313247"/>
  <unicode hex="0074"/>
  <anchor x="238.45783132530119" y="0.0" name="bottom"/>
  <anchor x="188.7710843373494" y="230.86746987951807" name="center"/>
  <anchor x="168.33734939759034" y="590.1506024096385" name="top"/>
  <anchor x="290.6626506024096" y="705.0" name="topright"/>
  <outline>
    <contour>
      <point x="299.33734939759034" y="-10.626506024096384" type="curve" smooth="yes"/>
      <point x="335.8433734939759" y="-10.626506024096384"/>
      <point x="378.4096385542168" y="-1.3132530120481927"/>
      <point x="405.85542168674704" y="12.93975903614458" type="curve"/>
      <point x="385.00602409638554" y="121.48192771084337" type="line"/>
      <point x="362.1265060240964" y="115.16867469879517"/>
      <point x="342.4096385542168" y="110.79518072289156"/>
      <point x="324.66265060240966" y="110.79518072289156" type="curve" smooth="yes"/>
      <point x="267.6144578313253" y="110.79518072289156"/>
      <point x="243.49397590361446" y="137.09638554216866"/>
      <point x="243.49397590361446" y="191.60843373493975" type="curve" smooth="yes"/>
      <point x="243.49397590361446" y="328.3975903614458" type="line"/>
      <point x="387.73493975903614" y="328.3975903614458" type="line"/>
      <point x="387.73493975903614" y="440.566265060241" type="line"/>
      <point x="243.49397590361446" y="440.566265060241" type="line"/>
      <point x="243.49397590361446" y="590.1506024096385" type="line"/>
      <point x="92.49397590361446" y="590.1506024096385" type="line"/>
      <point x="92.49397590361446" y="440.566265060241" type="line"/>
      <point x="-0.5662650602409633" y="440.566265060241" type="line"/>
      <point x="-0.5662650602409633" y="328.3975903614458" type="line"/>
      <point x="92.49397590361446" y="328.3975903614458" type="line"/>
      <point x="92.49397590361446" y="186.54819277108433" type="line" smooth="yes"/>
      <point x="92.49397590361446" y="56.28313253012048"/>
      <point x="159.25301204819277" y="-10.626506024096384"/>
    </contour>
  </outline>
</glyph>
<glyph name="u" format="2">
  <advance width="589.6506024096386"/>
  <unicode hex="0075"/>
  <anchor x="294.32530120481925" y="0.0" name="bottom"/>
  <anchor x="485.26506024096386" y="0.0" name="ogonek"/>
  <anchor x="294.32530120481925" y="484.68674698795184" name="top"/>
  <anchor x="421.9397590361446" y="434.0" name="topright"/>
  <outline>
    <contour>
      <point x="239.210843373494" y="-10.626506024096384" type="curve" smooth="yes"/>
      <point x="314.01807228915663" y="-10.626506024096384"/>
      <point x="367.8855421686747" y="26.837349397590366"/>
      <point x="397.1385542168674" y="91.67469879518072" type="curve"/>
      <point x="384.5120481927711" y="91.67469879518072" type="line"/>
      <point x="384.5120481927711" y="0.0" type="line"/>
      <point x="531.2289156626506" y="0.0" type="line"/>
      <point x="531.2289156626506" y="440.566265060241" type="line"/>
      <point x="380.2289156626506" y="440.566265060241" type="line"/>
      <point x="380.2289156626506" y="211.47590361445782" type="line" smooth="yes"/>
      <point x="380.2289156626506" y="148.87349397590359"/>
      <point x="339.83734939759034" y="105.51204819277108"/>
      <point x="283.89156626506025" y="105.51204819277108" type="curve" smooth="yes"/>
      <point x="231.97590361445782" y="105.51204819277108"/>
      <point x="206.73493975903614" y="131.78313253012047"/>
      <point x="206.73493975903614" y="193.0421686746988" type="curve" smooth="yes"/>
      <point x="206.73493975903614" y="440.566265060241" type="line"/>
      <point x="55.73493975903614" y="440.566265060241" type="line"/>
      <point x="55.73493975903614" y="188.7590361445783" type="line" smooth="yes"/>
      <point x="55.73493975903614" y="55.96987951807229"/>
      <point x="118.67469879518072" y="-10.626506024096384"/>
    </contour>
  </outline>
</glyph>
<glyph name="v" format="2">
  <advance width="534.2048192771084"/>
  <unicode hex="0076"/>
  <anchor x="269.07228915662654" y="0.0" name="bottom"/>
  <anchor x="269.07228915662654" y="484.0" name="top"/>
  <outline>
    <contour>
      <point x="205.36144578313255" y="0.0" type="line"/>
      <point x="328.8433734939759" y="0.0" type="line"/>
      <point x="547.0060240963855" y="440.566265060241" type="line"/>
      <point x="398.8855421686747" y="440.566265060241" type="line"/>
      <point x="255.789156626506" y="133.28313253012047" type="line"/>
      <point x="284.3253012048193" y="133.28313253012047" type="line"/>
      <point x="146.85542168674698" y="440.566265060241" type="line"/>
      <point x="-10.487951807228914" y="440.566265060241" type="line"/>
    </contour>
  </outline>
</glyph>
<glyph name="w" format="2">
  <advance width="860.5180722891566"/>
  <unicode hex="0077"/>
  <anchor x="430.7590361445783" y="0.0" name="bottom"/>
  <anchor x="430.7590361445783" y="484.0" name="top"/>
  <outline>
    <contour>
      <point x="199.83734939759034" y="0.0" type="line"/>
      <point x="320.4096385542169" y="0.0" type="line"/>
      <point x="456.95180722891564" y="311.3734939759036" type="line"/>
      <point x="403.31325301204816" y="311.3734939759036" type="line"/>
      <point x="540.7951807228916" y="0.0" type="line"/>
      <point x="661.367469879518" y="0.0" type="line"/>
      <point x="863.2289156626506" y="440.566265060241" type="line"/>
      <point x="719.421686746988" y="440.566265060241" type="line"/>
      <point x="589.9096385542168" y="138.50602409638552" type="line"/>
      <point x="611.8795180722891" y="138.50602409638552" type="line"/>
      <point x="483.36746987951807" y="440.566265060241" type="line"/>
      <point x="387.40361445783134" y="440.566265060241" type="line"/>
      <point x="255.86144578313255" y="138.50602409638552" type="line"/>
      <point x="278.4879518072289" y="138.50602409638552" type="line"/>
      <point x="149.03614457831327" y="440.566265060241" type="line"/>
      <point x="-3.3373493975903585" y="440.566265060241" type="line"/>
    </contour>
  </outline>
</glyph>
<glyph name="x" format="2">
  <advance width="558.8433734939758"/>
  <unicode hex="0078"/>
  <anchor x="280.26506024096386" y="0.0" name="bottom"/>
  <anchor x="280.26506024096386" y="484.0" name="top"/>
  <outline>
    <contour>
      <point x="-10.710843373493972" y="0.0" type="line"/>
      <point x="163.42168674698794" y="0.0" type="line"/>
      <point x="304.65060240963857" y="164.6024096385542" type="line"/>
      <point x="255.16265060240963" y="164.6024096385542" type="line"/>
      <point x="398.39156626506025" y="0.0" type="line"/>
      <point x="572.5542168674699" y="0.0" type="line"/>
      <point x="342.5722891566265" y="256.9518072289157" type="line"/>
      <point x="337.9759036144578" y="190.70481927710844" type="line"/>
      <point x="558.9277108433735" y="440.566265060241" type="line"/>
      <point x="386.10843373493975" y="440.566265060241" type="line"/>
      <point x="255.84939759036143" y="289.6204819277108" type="line"/>
      <point x="305.36746987951807" y="289.6204819277108" type="line"/>
      <point x="174.76506024096386" y="440.566265060241" type="line"/>
      <point x="1.6024096385542204" y="440.566265060241" type="line"/>
      <point x="218.3012048192771" y="194.27108433734938" type="line"/>
      <point x="221.5843373493976" y="261.2951807228916" type="line"/>
    </contour>
  </outline>
</glyph>
<glyph name="y" format="2">
  <advance width="533.2048192771085"/>
  <unicode hex="0079"/>
  <anchor x="422.2168674698795" y="0.0" name="bottom"/>
  <anchor x="267.4457831325301" y="484.0" name="top"/>
  <outline>
    <contour>
      <point x="85.87349397590363" y="-180.0" type="line"/>
      <point x="238.24698795180726" y="-180.0" type="line"/>
      <point x="547.3493975903614" y="440.566265060241" type="line"/>
      <point x="398.88554216867465" y="440.566265060241" type="line"/>
      <point x="255.47590361445785" y="133.28313253012047" type="line"/>
      <point x="284.0120481927711" y="133.28313253012047" type="line"/>
      <point x="145.85542168674698" y="440.566265060241" type="line"/>
      <point x="-11.487951807228912" y="440.566265060241" type="line"/>
      <point x="206.42168674698797" y="-4.120481927710843" type="line"/>
      <point x="206.42168674698797" y="54.65060240963855" type="line"/>
    </contour>
  </outline>
</glyph>
<glyph name="z" format="2">
  <advance width="480.26506024096386"/>
  <unicode hex="007A"/>
  <anchor x="245.50602409638554" y="0.0" name="bottom"/>
  <anchor x="245.50602409638554" y="484.0" name="top"/>
  <outline>
    <contour>
      <point x="45.554216867469876" y="0.0" type="line"/>
      <point x="456.144578313253" y="0.0" type="line"/>
      <point x="456.144578313253" y="110.85542168674698" type="line"/>
      <point x="176.85542168674698" y="110.85542168674698" type="line"/>
      <point x="176.85542168674698" y="71.27710843373492" type="line"/>
      <point x="445.45783132530124" y="346.21686746987956" type="line"/>
      <point x="445.45783132530124" y="440.566265060241" type="line"/>
      <point x="45.554216867469876" y="440.566265060241" type="line"/>
      <point x="45.554216867469876" y="330.36746987951807" type="line"/>
      <point x="312.5301204819277" y="330.36746987951807" type="line"/>
      <point x="312.5301204819277" y="368.00602409638554" type="line"/>
      <point x="45.554216867469876" y="95.34939759036145" type="line"/>
    </contour>
  </outline>
</glyph>
<glyph name="cent" format="2">
  <advance width="600.0"/>
  <unicode hex="00A2"/>
  <outline>
    <contour>
      <point x="260.03614457831327" y="-115.0" type="line"/>
      <point x="378.83132530120486" y="-115.0" type="line"/>
      <point x="378.83132530120486" y="18.819277108433734" type="line"/>
      <point x="342.07228915662654" y="-9.626506024096386" type="line"/>
      <point x="417.4879518072289" y="-7.656626506024097"/>
      <point x="479.8614457831325" y="13.060240963855422"/>
      <point x="524.4277108433735" y="44.463855421686745" type="curve"/>
      <point x="487.0421686746988" y="147.066265060241" type="line"/>
      <point x="450.6084337349398" y="121.22891566265059"/>
      <point x="400.921686746988" y="104.88554216867469"/>
      <point x="355.80120481927713" y="104.88554216867469" type="curve" smooth="yes"/>
      <point x="275.3192771084337" y="104.88554216867469"/>
      <point x="231.3012048192771" y="151.93373493975906"/>
      <point x="231.3012048192771" y="222.2831325301205" type="curve" smooth="yes"/>
      <point x="231.3012048192771" y="291.9457831325301"/>
      <point x="275.9759036144578" y="337.33734939759034"/>
      <point x="356.14457831325296" y="337.33734939759034" type="curve" smooth="yes"/>
      <point x="401.9216867469879" y="337.33734939759034"/>
      <point x="449.9518072289157" y="320.99397590361446"/>
      <point x="487.0421686746988" y="295.8132530120482" type="curve"/>
      <point x="524.4277108433735" y="398.07228915662654" type="line"/>
      <point x="479.8614457831325" y="429.84939759036143"/>
      <point x="417.2349397590362" y="446.9096385542169"/>
      <point x="343.7590361445783" y="447.566265060241" type="curve"/>
      <point x="378.83132530120486" y="419.43373493975906" type="line"/>
      <point x="378.83132530120486" y="560.2530120481928" type="line"/>
      <point x="260.03614457831327" y="560.2530120481928" type="line"/>
      <point x="260.03614457831327" y="409.8975903614458" type="line"/>
      <point x="284.9879518072289" y="444.2831325301205" type="line"/>
      <point x="159.67469879518075" y="424.8072289156626"/>
      <point x="76.67469879518073" y="340.77710843373495"/>
      <point x="76.67469879518073" y="220.6566265060241" type="curve" smooth="yes"/>
      <point x="76.67469879518073" y="101.10240963855422"/>
      <point x="155.4518072289157" y="15.072289156626503"/>
      <point x="284.9879518072289" y="-5.3734939759036155" type="curve"/>
      <point x="260.03614457831327" y="26.69879518072289" type="line"/>
    </contour>
  </outline>
</glyph>
<glyph name="logicalnot" format="2">
  <advance width="600.0"/>
  <unicode hex="00AC"/>
  <outline>
    <contour>
      <point x="436.3373493975904" y="134.67469879518075" type="line"/>
      <point x="544.0" y="134.67469879518075" type="line"/>
      <point x="544.0" y="438.89156626506025" type="line"/>
      <point x="56.0" y="438.89156626506025" type="line"/>
      <point x="56.0" y="335.855421686747" type="line"/>
      <point x="436.3373493975904" y="335.855421686747" type="line"/>
    </contour>
  </outline>
</glyph>
<glyph name="registered" format="2">
  <advance width="815.0"/>
  <unicode hex="00AE"/>
  <outline>
    <contour>
      <point x="408.0" y="-10.626506024096384" type="curve" smooth="yes"/>
      <point x="613.3132530120481" y="-10.626506024096384"/>
      <point x="770.6265060240964" y="147.6867469879518"/>
      <point x="770.6265060240964" y="353.0" type="curve" smooth="yes"/>
      <point x="770.6265060240964" y="558.3132530120481"/>
      <point x="613.3132530120481" y="715.6265060240964"/>
      <point x="408.0" y="715.6265060240964" type="curve" smooth="yes"/>
      <point x="201.6867469879518" y="715.6265060240964"/>
      <point x="44.373493975903614" y="558.3132530120481"/>
      <point x="44.373493975903614" y="353.0" type="curve" smooth="yes"/>
      <point x="44.373493975903614" y="147.6867469879518"/>
      <point x="201.3734939759036" y="-10.626506024096384"/>
    </contour>
    <contour>
      <point x="408.0" y="47.69879518072289" type="curve" smooth="yes"/>
      <point x="233.87951807228916" y="47.69879518072289"/>
      <point x="106.32530120481927" y="179.50602409638554"/>
      <point x="106.32530120481927" y="353.0" type="curve" smooth="yes"/>
      <point x="106.32530120481927" y="526.4939759036145"/>
      <point x="233.87951807228916" y="657.3012048192771"/>
      <point x="408.0" y="657.3012048192771" type="curve" smooth="yes"/>
      <point x="581.8072289156626" y="657.3012048192771"/>
      <point x="708.6746987951808" y="526.4939759036145"/>
      <point x="708.6746987951808" y="353.0" type="curve" smooth="yes"/>
      <point x="708.6746987951808" y="179.50602409638554"/>
      <point x="581.8072289156626" y="47.69879518072289"/>
    </contour>
    <contour>
      <point x="246.42168674698797" y="142.0" type="line"/>
      <point x="359.96385542168673" y="142.0" type="line"/>
      <point x="359.96385542168673" y="309.6746987951807" type="line"/>
      <point x="342.39759036144574" y="298.0481927710843" type="line"/>
      <point x="393.31325301204816" y="298.0481927710843" type="line" smooth="yes"/>
      <point x="416.2409638554217" y="298.0481927710843"/>
      <point x="433.10843373493975" y="290.6746987951807"/>
      <point x="441.2289156626506" y="264.18072289156623" type="curve" smooth="yes"/>
      <point x="475.21686746987956" y="142.0" type="line"/>
      <point x="590.132530120482" y="142.0" type="line"/>
      <point x="558.0843373493976" y="249.4819277108434" type="line" smooth="yes"/>
      <point x="542.0843373493976" y="313.433734939759"/>
      <point x="515.710843373494" y="331.06024096385545"/>
      <point x="470.8313253012048" y="331.06024096385545" type="curve"/>
      <point x="442.87951807228916" y="319.7469879518072" type="line"/>
      <point x="532.8192771084337" y="319.7469879518072"/>
      <point x="585.7590361445783" y="361.7469879518072"/>
      <point x="585.7590361445783" y="439.0602409638554" type="curve" smooth="yes"/>
      <point x="585.7590361445783" y="512.1204819277108"/>
      <point x="532.1927710843373" y="565.3132530120482"/>
      <point x="436.3132530120482" y="565.3132530120482" type="curve" smooth="yes"/>
      <point x="246.42168674698797" y="565.3132530120482" type="line"/>
    </contour>
    <contour>
      <point x="358.6506024096385" y="381.0120481927711" type="line"/>
      <point x="358.6506024096385" y="482.6626506024096" type="line"/>
      <point x="420.49397590361446" y="482.6626506024096" type="line" smooth="yes"/>
      <point x="458.60240963855426" y="482.6626506024096"/>
      <point x="478.7831325301205" y="467.48192771084337"/>
      <point x="478.7831325301205" y="432.1807228915663" type="curve" smooth="yes"/>
      <point x="478.7831325301205" y="396.1927710843373"/>
      <point x="458.91566265060237" y="381.0120481927711"/>
      <point x="420.49397590361446" y="381.0120481927711" type="curve" smooth="yes"/>
    </contour>
  </outline>
</glyph>
<glyph name="questiondown" format="2">
  <advance width="468.39759036144574"/>
  <unicode hex="00BF"/>
  <outline>
    <contour>
      <point x="232.32530120481925" y="-190.6265060240964" type="curve" smooth="yes"/>
      <point x="319.6686746987952" y="-190.6265060240964"/>
      <point x="406.26506024096386" y="-165.53614457831324"/>
      <point x="466.7409638554217" y="-123.47590361445782" type="curve"/>
      <point x="417.50602409638554" y="-18.873493975903617" type="line"/>
      <point x="363.4759036144579" y="-55.024096385542165"/>
      <point x="306.3855421686747" y="-72.80120481927712"/>
      <point x="244.144578313253" y="-72.80120481927712" type="curve" smooth="yes"/>
      <point x="188.94578313253012" y="-72.80120481927712"/>
      <point x="163.01807228915663" y="-53.873493975903614"/>
      <point x="163.01807228915663" y="-22.13855421686747" type="curve" smooth="yes"/>
      <point x="163.01807228915663" y="3.1024096385542155"/>
      <point x="175.42168674698794" y="22.716867469879517"/>
      <point x="214.0963855421687" y="53.391566265060234" type="curve" smooth="yes"/>
      <point x="267.0542168674699" y="94.09638554216866"/>
      <point x="284.1144578313253" y="135.59036144578312"/>
      <point x="284.1144578313253" y="184.3975903614458" type="curve" smooth="yes"/>
      <point x="284.1144578313253" y="217.50000000000003" type="line"/>
      <point x="196.01807228915663" y="217.50000000000003" type="line"/>
      <point x="188.42168674698797" y="190.96385542168673" type="line" smooth="yes"/>
      <point x="181.04819277108436" y="157.66265060240963"/>
      <point x="161.7650602409639" y="131.7951807228916"/>
      <point x="103.61445783132531" y="93.46385542168674" type="curve" smooth="yes"/>
      <point x="35.58433734939759" y="49.50602409638553"/>
      <point x="11.018072289156628" y="8.475903614457831"/>
      <point x="11.018072289156628" y="-45.15060240963855" type="curve" smooth="yes"/>
      <point x="11.018072289156628" y="-134.0301204819277"/>
      <point x="96.03012048192771" y="-190.6265060240964"/>
    </contour>
    <contour>
      <point x="159.28915662650604" y="280.26506024096386" type="line"/>
      <point x="320.8433734939759" y="280.26506024096386" type="line"/>
      <point x="320.8433734939759" y="440.566265060241" type="line"/>
      <point x="159.28915662650604" y="440.566265060241" type="line"/>
    </contour>
  </outline>
</glyph>
<glyph name="AE" format="2">
  <advance width="998.8915662650602"/>
  <unicode hex="00C6"/>
  <anchor x="488.3132530120482" y="0.0" name="bottom"/>
  <anchor x="488.6265060240964" y="705.0" name="top"/>
  <outline>
    <contour>
      <point x="-47.903614457831324" y="0.0" type="line"/>
      <point x="115.66265060240964" y="0.0" type="line"/>
      <point x="230.7831325301205" y="193.55421686746988" type="line"/>
      <point x="173.69879518072287" y="152.97590361445785" type="line"/>
      <point x="557.1927710843373" y="152.97590361445785" type="line"/>
      <point x="508.3012048192771" y="198.80722891566265" type="line"/>
      <point x="551.3012048192771" y="0.0" type="line"/>
      <point x="947.2650602409639" y="0.0" type="line"/>
      <point x="947.2650602409639" y="121.42168674698794" type="line"/>
      <point x="618.8313253012047" y="121.42168674698794" type="line"/>
      <point x="672.3493975903615" y="78.78313253012048" type="line"/>
      <point x="615.1686746987951" y="339.8072289156627" type="line"/>
      <point x="582.7831325301205" y="297.28915662650604" type="line"/>
      <point x="925.6385542168675" y="297.28915662650604" type="line"/>
      <point x="925.6385542168675" y="418.71084337349396" type="line"/>
      <point x="556.0843373493976" y="418.71084337349396" type="line"/>
      <point x="607.2289156626506" y="376.1927710843373" type="line"/>
      <point x="553.9879518072289" y="620.3975903614459" type="line"/>
      <point x="516.4698795180723" y="583.5783132530121" type="line"/>
      <point x="947.2650602409639" y="583.5783132530121" type="line"/>
      <point x="947.2650602409639" y="705.0" type="line"/>
      <point x="395.73493975903614" y="705.0" type="line"/>
    </contour>
    <contour>
      <point x="433.0" y="535.0602409638554" type="line"/>
      <point x="435.0" y="535.0602409638554" type="line"/>
      <point x="501.3614457831326" y="231.56626506024097" type="line"/>
      <point x="531.0" y="274.3975903614458" type="line"/>
      <point x="246.5421686746988" y="274.3975903614458" type="line"/>
      <point x="255.5421686746988" y="236.81927710843374" type="line"/>
    </contour>
  </outline>
</glyph>
<glyph name="Thorn" format="2">
  <advance width="666.2168674698795"/>
  <unicode hex="00DE"/>
  <anchor x="339.6385542168675" y="0.0" name="bottom"/>
  <anchor x="339.32530120481925" y="705.0" name="top"/>
  <outline>
    <contour>
      <point x="70.73493975903614" y="0.0" type="line"/>
      <point x="225.9879518072289" y="0.0" type="line"/>
      <point x="225.9879518072289" y="141.30120481927713" type="line"/>
      <point x="395.6506024096385" y="141.30120481927713" type="line" smooth="yes"/>
      <point x="552.8433734939758" y="141.30120481927713"/>
      <point x="641.722891566265" y="225.80722891566265"/>
      <point x="641.722891566265" y="367.31325301204816" type="curve" smooth="yes"/>
      <point x="641.722891566265" y="508.8192771084337"/>
      <point x="552.8433734939758" y="592.6385542168675"/>
      <point x="395.6506024096385" y="592.6385542168675" type="curve" smooth="yes"/>
      <point x="225.9879518072289" y="592.6385542168675" type="line"/>
      <point x="225.9879518072289" y="705.0" type="line"/>
      <point x="70.73493975903614" y="705.0" type="line"/>
    </contour>
    <contour>
      <point x="225.9879518072289" y="262.03614457831327" type="line"/>
      <point x="225.9879518072289" y="471.90361445783134" type="line"/>
      <point x="369.3855421686747" y="471.90361445783134" type="line" smooth="yes"/>
      <point x="450.04819277108436" y="471.90361445783134"/>
      <point x="492.6626506024097" y="437.2289156626506"/>
      <point x="492.6626506024097" y="367.31325301204816" type="curve" smooth="yes"/>
      <point x="492.6626506024097" y="297.3975903614458"/>
      <point x="450.04819277108436" y="262.03614457831327"/>
      <point x="369.3855421686747" y="262.03614457831327" type="curve" smooth="yes"/>
    </contour>
  </outline>
</glyph>
<glyph name="germandbls" format="2">
  <advance width="675.867469879518"/>
  <unicode hex="00DF"/>
  <outline>
    <contour>
      <point x="450.1385542168675" y="-10.626506024096384" type="curve" smooth="yes"/>
      <point x="578.777108433735" y="-10.626506024096384"/>
      <point x="657.9397590361446" y="48.222891566265055"/>
      <point x="657.9397590361446" y="144.23493975903614" type="curve" smooth="yes"/>
      <point x="657.9397590361446" y="216.42771084337346"/>
      <point x="619.5963855421687" y="257.3072289156626"/>
      <point x="512.8493975903614" y="280.7409638554217" type="curve" smooth="yes"/>
      <point x="441.66867469879514" y="297.1746987951807"/>
      <point x="426.4879518072289" y="311.3253012048193"/>
      <point x="426.4879518072289" y="336.9397590361446" type="curve" smooth="yes"/>
      <point x="426.4879518072289" y="357.0903614457832"/>
      <point x="437.51807228915663" y="377.1506024096385"/>
      <point x="474.57831325301197" y="425.7469879518072" type="curve" smooth="yes"/>
      <point x="518.1927710843373" y="479.9578313253012"/>
      <point x="532.3132530120482" y="516.6144578313252"/>
      <point x="532.3132530120482" y="562.7349397590361" type="curve" smooth="yes"/>
      <point x="532.3132530120482" y="660.7469879518072"/>
      <point x="455.30120481927713" y="715.6265060240964"/>
      <point x="328.18674698795184" y="715.6265060240964" type="curve" smooth="yes"/>
      <point x="154.6867469879518" y="715.6265060240964"/>
      <point x="58.421686746987945" y="619.9277108433735"/>
      <point x="58.421686746987945" y="452.8734939759036" type="curve" smooth="yes"/>
      <point x="58.421686746987945" y="0.0" type="line"/>
      <point x="209.42168674698794" y="0.0" type="line"/>
      <point x="209.42168674698794" y="473.5421686746988" type="line" smooth="yes"/>
      <point x="209.42168674698794" y="559.1867469879519"/>
      <point x="250.25903614457832" y="608.0240963855421"/>
      <point x="325.5602409638554" y="608.0240963855421" type="curve" smooth="yes"/>
      <point x="372.83132530120486" y="608.0240963855421"/>
      <point x="397.35542168674704" y="586.5301204819277"/>
      <point x="397.35542168674704" y="548.5722891566264" type="curve" smooth="yes"/>
      <point x="397.35542168674704" y="516.7349397590363"/>
      <point x="383.66867469879514" y="487.3915662650602"/>
      <point x="352.3674698795181" y="446.83734939759034" type="curve" smooth="yes"/>
      <point x="305.5602409638554" y="388.30120481927713"/>
      <point x="291.2168674698795" y="351.61445783132535"/>
      <point x="291.2168674698795" y="313.9277108433735" type="curve" smooth="yes"/>
      <point x="291.2168674698795" y="244.67469879518075"/>
      <point x="331.49999999999994" y="204.42168674698797"/>
      <point x="439.4698795180723" y="182.9578313253012" type="curve" smooth="yes"/>
      <point x="510.74096385542174" y="167.80722891566265"/>
      <point x="527.2951807228916" y="156.0"/>
      <point x="527.2951807228916" y="133.3855421686747" type="curve" smooth="yes"/>
      <point x="527.2951807228916" y="105.99397590361446"/>
      <point x="502.933734939759" y="90.40963855421685"/>
      <point x="450.1385542168675" y="90.40963855421685" type="curve" smooth="yes"/>
      <point x="394.1686746987952" y="90.40963855421685"/>
      <point x="334.2590361445783" y="106.06626506024095"/>
      <point x="287.2590361445783" y="136.18674698795184" type="curve"/>
      <point x="252.1566265060241" y="41.80722891566265" type="line"/>
      <point x="300.0361445783132" y="9.090361445783133"/>
      <point x="374.6024096385542" y="-10.626506024096384"/>
    </contour>
  </outline>
</glyph>
<glyph name="ae" format="2">
  <advance width="867.5060240963855"/>
  <unicode hex="00E6"/>
  <anchor x="414.6867469879518" y="0.0" name="bottom"/>
  <anchor x="414.6867469879518" y="484.0" name="top"/>
  <outline>
    <contour>
      <point x="236.28313253012047" y="-10.626506024096384" type="curve" smooth="yes"/>
      <point x="334.31325301204816" y="-10.626506024096384"/>
      <point x="402.3734939759036" y="33.9277108433735"/>
      <point x="426.22289156626505" y="107.85542168674698" type="curve"/>
      <point x="399.4036144578313" y="107.85542168674698" type="line"/>
      <point x="436.5060240963856" y="29.554216867469876"/>
      <point x="523.8192771084338" y="-10.626506024096384"/>
      <point x="638.789156626506" y="-10.626506024096384" type="curve" smooth="yes"/>
      <point x="699.8192771084338" y="-10.626506024096384"/>
      <point x="776.3855421686746" y="9.090361445783133"/>
      <point x="825.2951807228916" y="40.897590361445786" type="curve"/>
      <point x="789.8493975903614" y="138.24698795180726" type="line"/>
      <point x="743.789156626506" y="110.37951807228914"/>
      <point x="689.5060240963854" y="96.66265060240963"/>
      <point x="643.6686746987951" y="96.66265060240963" type="curve" smooth="yes"/>
      <point x="550.2771084337348" y="96.66265060240963"/>
      <point x="501.6927710843374" y="135.144578313253"/>
      <point x="501.6927710843374" y="223.90963855421688" type="curve" smooth="yes"/>
      <point x="501.6927710843374" y="235.81927710843374" type="line" smooth="yes"/>
      <point x="501.6927710843374" y="311.9578313253012"/>
      <point x="542.3975903614457" y="356.7530120481928"/>
      <point x="612.0301204819277" y="356.7530120481928" type="curve" smooth="yes"/>
      <point x="677.2590361445784" y="356.7530120481928"/>
      <point x="713.2168674698795" y="318.3614457831326"/>
      <point x="713.2168674698795" y="247.19277108433732" type="curve"/>
      <point x="728.8734939759036" y="262.56626506024094" type="line"/>
      <point x="487.4397590361446" y="262.56626506024094" type="line"/>
      <point x="487.4397590361446" y="190.21084337349396" type="line"/>
      <point x="837.8915662650603" y="190.21084337349396" type="line"/>
      <point x="837.8915662650603" y="220.49397590361446" type="line" smooth="yes"/>
      <point x="837.8915662650603" y="361.71686746987956"/>
      <point x="747.8192771084337" y="451.1927710843374"/>
      <point x="608.1204819277108" y="451.1927710843374" type="curve" smooth="yes"/>
      <point x="539.3734939759036" y="451.1927710843374"/>
      <point x="467.41566265060237" y="422.9518072289157"/>
      <point x="429.22289156626505" y="371.2469879518072" type="curve"/>
      <point x="458.60843373493975" y="371.2469879518072" type="line"/>
      <point x="428.84939759036143" y="424.26506024096386"/>
      <point x="368.0602409638554" y="451.1927710843374"/>
      <point x="279.1927710843373" y="451.1927710843374" type="curve" smooth="yes"/>
      <point x="205.3132530120482" y="451.1927710843374"/>
      <point x="111.01807228915662" y="429.22289156626505"/>
      <point x="59.361445783132524" y="395.81927710843377" type="curve"/>
      <point x="95.46385542168674" y="298.7831325301205" type="line"/>
      <point x="151.80722891566265" y="331.2168674698795"/>
      <point x="211.3132530120482" y="345.56024096385545"/>
      <point x="267.40361445783134" y="345.56024096385545" type="curve" smooth="yes"/>
      <point x="330.078313253012" y="345.56024096385545"/>
      <point x="356.9156626506024" y="322.2590361445784"/>
      <point x="356.9156626506024" y="273.3734939759036" type="curve" smooth="yes"/>
      <point x="356.9156626506024" y="181.09036144578312" type="line" smooth="yes"/>
      <point x="356.9156626506024" y="125.92168674698796"/>
      <point x="314.5843373493976" y="86.8132530120482"/>
      <point x="256.0120481927711" y="86.8132530120482" type="curve" smooth="yes"/>
      <point x="207.24698795180726" y="86.8132530120482"/>
      <point x="181.25903614457832" y="109.71084337349397"/>
      <point x="181.25903614457832" y="141.13253012048193" type="curve" smooth="yes"/>
      <point x="181.25903614457832" y="175.52409638554215"/>
      <point x="211.81325301204822" y="191.52409638554215"/>
      <point x="311.79518072289153" y="191.52409638554215" type="curve" smooth="yes"/>
      <point x="371.19879518072287" y="191.52409638554215" type="line"/>
      <point x="371.19879518072287" y="263.87951807228916" type="line"/>
      <point x="315.3614457831325" y="263.87951807228916" type="line" smooth="yes"/>
      <point x="112.55421686746989" y="263.87951807228916"/>
      <point x="36.42168674698796" y="229.44578313253012"/>
      <point x="36.42168674698796" y="135.16265060240966" type="curve" smooth="yes"/>
      <point x="36.42168674698796" y="52.31325301204819"/>
      <point x="113.67469879518073" y="-10.626506024096384"/>
    </contour>
  </outline>
</glyph>
<glyph name="eth" format="2">
  <advance width="592.5301204819277"/>
  <unicode hex="00F0"/>
  <outline>
    <contour>
      <point x="286.0421686746988" y="-10.626506024096384" type="curve" smooth="yes"/>
      <point x="460.8433734939759" y="-10.626506024096384"/>
      <point x="560.5421686746988" y="98.69879518072288"/>
      <point x="560.5421686746988" y="284.0120481927711" type="curve" smooth="yes"/>
      <point x="560.5421686746988" y="403.7650602409638"/>
      <point x="513.1385542168675" y="516.9879518072289"/>
      <point x="417.43975903614455" y="599.4638554216868" type="curve"/>
      <point x="414.53012048192767" y="585.8975903614457" type="line"/>
      <point x="516.9759036144578" y="639.1506024096385" type="line"/>
      <point x="477.78313253012044" y="715.2530120481928" type="line"/>
      <point x="332.3975903614458" y="640.3734939759036" type="line"/>
      <point x="360.4879518072289" y="639.9096385542168" type="line"/>
      <point x="308.78915662650604" y="671.7590361445783"/>
      <point x="239.03012048192772" y="700.5060240963855"/>
      <point x="150.86746987951807" y="716.2530120481928" type="curve"/>
      <point x="124.42168674698796" y="620.2168674698795" type="line"/>
      <point x="171.97590361445785" y="610.4397590361446"/>
      <point x="212.8734939759036" y="595.8855421686746"/>
      <point x="242.19879518072293" y="582.289156626506" type="curve"/>
      <point x="241.1385542168675" y="594.6024096385541" type="line"/>
      <point x="109.67469879518073" y="525.4819277108434" type="line"/>
      <point x="148.52409638554218" y="449.37951807228916" type="line"/>
      <point x="325.0" y="541.0060240963857" type="line"/>
      <point x="308.5542168674699" y="541.3493975903614" type="line"/>
      <point x="371.83734939759034" y="492.63253012048193"/>
      <point x="420.078313253012" y="412.3012048192771"/>
      <point x="419.3915662650602" y="302.8614457831326" type="curve"/>
      <point x="456.12048192771084" y="302.8614457831326" type="line"/>
      <point x="431.6144578313253" y="395.8493975903615"/>
      <point x="357.0602409638554" y="425.3132530120482"/>
      <point x="275.1927710843373" y="425.3132530120482" type="curve" smooth="yes"/>
      <point x="135.3734939759036" y="425.3132530120482"/>
      <point x="34.2710843373494" y="338.0301204819277"/>
      <point x="34.2710843373494" y="208.65662650602408" type="curve" smooth="yes"/>
      <point x="34.2710843373494" y="77.6566265060241"/>
      <point x="137.34337349397592" y="-10.626506024096384"/>
    </contour>
    <contour>
      <point x="293.921686746988" y="101.5722891566265" type="curve" smooth="yes"/>
      <point x="225.97590361445782" y="101.5722891566265"/>
      <point x="184.3012048192771" y="142.30722891566265"/>
      <point x="184.3012048192771" y="209.0" type="curve" smooth="yes"/>
      <point x="184.3012048192771" y="273.3493975903615"/>
      <point x="226.00602409638557" y="314.7409638554217"/>
      <point x="293.921686746988" y="314.7409638554217" type="curve" smooth="yes"/>
      <point x="363.5240963855422" y="314.7409638554217"/>
      <point x="403.5722891566265" y="273.3493975903615"/>
      <point x="403.5722891566265" y="209.0" type="curve" smooth="yes"/>
      <point x="403.5722891566265" y="143.30722891566268"/>
      <point x="363.1807228915663" y="101.5722891566265"/>
    </contour>
  </outline>
</glyph>
<glyph name="thorn" format="2">
  <advance width="610.0240963855422"/>
  <unicode hex="00FE"/>
  <anchor x="306.95180722891564" y="0.0" name="bottom"/>
  <anchor x="306.95180722891564" y="484.0" name="top"/>
  <outline>
    <contour>
      <point x="58.421686746987945" y="-180.0" type="line"/>
      <point x="209.42168674698794" y="-180.0" type="line"/>
      <point x="209.42168674698794" y="81.79518072289157" type="line"/>
      <point x="199.10843373493975" y="81.79518072289157" type="line"/>
      <point x="220.76506024096383" y="27.83734939759036"/>
      <point x="285.8253012048193" y="-10.626506024096384"/>
      <point x="364.6927710843374" y="-10.626506024096384" type="curve" smooth="yes"/>
      <point x="488.1265060240964" y="-10.626506024096384"/>
      <point x="576.4096385542168" y="80.6566265060241"/>
      <point x="576.4096385542168" y="220.6265060240964" type="curve" smooth="yes"/>
      <point x="576.4096385542168" y="361.59638554216866"/>
      <point x="487.1265060240964" y="451.1927710843374"/>
      <point x="364.6927710843374" y="451.1927710843374" type="curve" smooth="yes"/>
      <point x="283.5120481927711" y="451.1927710843374"/>
      <point x="218.13855421686745" y="410.7590361445783"/>
      <point x="197.13855421686748" y="355.51807228915663" type="curve"/>
      <point x="209.42168674698794" y="355.51807228915663" type="line"/>
      <point x="209.42168674698794" y="705.0" type="line"/>
      <point x="58.421686746987945" y="705.0" type="line"/>
    </contour>
    <contour>
      <point x="315.7590361445783" y="100.9156626506024" type="curve" smooth="yes"/>
      <point x="248.81325301204822" y="100.9156626506024"/>
      <point x="205.79518072289156" y="142.71084337349396"/>
      <point x="205.79518072289156" y="220.6265060240964" type="curve" smooth="yes"/>
      <point x="205.79518072289156" y="298.8855421686747"/>
      <point x="248.81325301204822" y="340.3072289156626"/>
      <point x="315.7590361445783" y="340.3072289156626" type="curve" smooth="yes"/>
      <point x="382.36144578313247" y="340.3072289156626"/>
      <point x="425.72289156626505" y="298.8855421686747"/>
      <point x="425.72289156626505" y="220.6265060240964" type="curve" smooth="yes"/>
      <point x="425.72289156626505" y="142.71084337349396"/>
      <point x="382.36144578313247" y="100.9156626506024"/>
    </contour>
  </outline>
</glyph>
<glyph name="dcroat" format="2">
  <advance width="610.0240963855422"/>
  <unicode hex="0111"/>
  <outline>
    <contour>
      <point x="246.67469879518072" y="-10.626506024096384" type="curve" smooth="yes"/>
      <point x="327.51204819277103" y="-10.626506024096384"/>
      <point x="392.91566265060237" y="30.493975903614462"/>
      <point x="413.2590361445783" y="86.45180722891565" type="curve"/>
      <point x="404.54216867469876" y="86.45180722891565" type="line"/>
      <point x="404.54216867469876" y="0.0" type="line"/>
      <point x="552.2891566265059" y="0.0" type="line"/>
      <point x="552.2891566265059" y="508.04819277108425" type="line"/>
      <point x="637.0963855421686" y="508.04819277108425" type="line"/>
      <point x="637.0963855421686" y="612.3373493975904" type="line"/>
      <point x="552.2891566265059" y="612.3373493975904" type="line"/>
      <point x="552.2891566265059" y="705.0" type="line"/>
      <point x="401.28915662650604" y="705.0" type="line"/>
      <point x="401.28915662650604" y="612.3373493975904" type="line"/>
      <point x="198.39156626506025" y="612.3373493975904" type="line"/>
      <point x="198.39156626506025" y="508.04819277108425" type="line"/>
      <point x="401.28915662650604" y="508.04819277108425" type="line"/>
      <point x="401.28915662650604" y="360.3855421686747" type="line"/>
      <point x="411.9457831325301" y="360.3855421686747" type="line"/>
      <point x="389.63253012048193" y="413.3433734939759"/>
      <point x="325.8855421686747" y="451.49397590361446"/>
      <point x="246.67469879518072" y="451.49397590361446" type="curve" smooth="yes"/>
      <point x="122.5843373493976" y="451.49397590361446"/>
      <point x="34.95783132530121" y="364.4638554216868"/>
      <point x="34.95783132530121" y="220.77710843373492" type="curve" smooth="yes"/>
      <point x="34.95783132530121" y="78.09036144578313"/>
      <point x="123.5843373493976" y="-10.626506024096384"/>
    </contour>
    <contour>
      <point x="294.95180722891564" y="100.9156626506024" type="curve" smooth="yes"/>
      <point x="228.00602409638554" y="100.9156626506024"/>
      <point x="184.9879518072289" y="142.71084337349396"/>
      <point x="184.9879518072289" y="220.77710843373492" type="curve" smooth="yes"/>
      <point x="184.9879518072289" y="299.18674698795184"/>
      <point x="228.00602409638554" y="340.60843373493975"/>
      <point x="294.95180722891564" y="340.60843373493975" type="curve" smooth="yes"/>
      <point x="361.55421686746985" y="340.60843373493975"/>
      <point x="404.91566265060237" y="299.18674698795184"/>
      <point x="404.91566265060237" y="220.77710843373492" type="curve" smooth="yes"/>
      <point x="404.91566265060237" y="142.71084337349396"/>
      <point x="361.55421686746985" y="100.9156626506024"/>
    </contour>
  </outline>
</glyph>
<glyph name="Hbar" format="2">
  <advance width="828.5903614457831"/>
  <unicode hex="0126"/>
  <outline>
    <contour>
      <point x="95.2409638554217" y="0.0" type="line"/>
      <point x="250.49397590361446" y="0.0" type="line"/>
      <point x="250.49397590361446" y="279.90361445783134" type="line"/>
      <point x="578.0963855421686" y="279.90361445783134" type="line"/>
      <point x="578.0963855421686" y="0.0" type="line"/>
      <point x="733.3493975903614" y="0.0" type="line"/>
      <point x="733.3493975903614" y="505.9879518072289" type="line"/>
      <point x="814.9036144578313" y="505.9879518072289" type="line"/>
      <point x="814.9036144578313" y="617.5301204819277" type="line"/>
      <point x="733.3493975903614" y="617.5301204819277" type="line"/>
      <point x="733.3493975903614" y="705.0" type="line"/>
      <point x="578.0963855421686" y="705.0" type="line"/>
      <point x="578.0963855421686" y="617.5301204819277" type="line"/>
      <point x="250.49397590361446" y="617.5301204819277" type="line"/>
      <point x="250.49397590361446" y="705.0" type="line"/>
      <point x="95.2409638554217" y="705.0" type="line"/>
      <point x="95.2409638554217" y="617.5301204819277" type="line"/>
      <point x="13.686746987951807" y="617.5301204819277" type="line"/>
      <point x="13.686746987951807" y="505.9879518072289" type="line"/>
      <point x="95.2409638554217" y="505.9879518072289" type="line"/>
    </contour>
    <contour>
      <point x="250.49397590361446" y="408.51807228915663" type="line"/>
      <point x="250.49397590361446" y="505.9879518072289" type="line"/>
      <point x="578.0963855421686" y="505.9879518072289" type="line"/>
      <point x="578.0963855421686" y="408.51807228915663" type="line"/>
    </contour>
  </outline>
</glyph>
<glyph name="hbar" format="2">
  <advance width="595.3373493975903"/>
  <unicode hex="0127"/>
  <outline>
    <contour>
      <point x="58.421686746987945" y="0.0" type="line"/>
      <point x="209.42168674698794" y="0.0" type="line"/>
      <point x="209.42168674698794" y="229.70481927710838" type="line" smooth="yes"/>
      <point x="209.42168674698794" y="293.62048192771084"/>
      <point x="249.50000000000003" y="335.35542168674704"/>
      <point x="313.7590361445783" y="335.35542168674704" type="curve" smooth="yes"/>
      <point x="364.36144578313247" y="335.35542168674704"/>
      <point x="388.60240963855426" y="309.3975903614458"/>
      <point x="388.60240963855426" y="243.8855421686747" type="curve" smooth="yes"/>
      <point x="388.60240963855426" y="0.0" type="line"/>
      <point x="539.6024096385543" y="0.0" type="line"/>
      <point x="539.6024096385543" y="252.7951807228916" type="line" smooth="yes"/>
      <point x="539.6024096385543" y="386.58433734939763"/>
      <point x="483.91566265060237" y="451.49397590361446"/>
      <point x="366.6024096385542" y="451.49397590361446" type="curve" smooth="yes"/>
      <point x="288.48192771084337" y="451.49397590361446"/>
      <point x="226.04819277108433" y="415.06024096385545"/>
      <point x="195.79518072289156" y="352.1927710843373" type="curve"/>
      <point x="209.42168674698794" y="352.1927710843373" type="line"/>
      <point x="209.42168674698794" y="508.04819277108425" type="line"/>
      <point x="395.6024096385542" y="508.04819277108425" type="line"/>
      <point x="395.6024096385542" y="612.3373493975904" type="line"/>
      <point x="209.42168674698794" y="612.3373493975904" type="line"/>
      <point x="209.42168674698794" y="705.0" type="line"/>
      <point x="58.421686746987945" y="705.0" type="line"/>
      <point x="58.421686746987945" y="612.3373493975904" type="line"/>
      <point x="-26.3855421686747" y="612.3373493975904" type="line"/>
      <point x="-26.3855421686747" y="508.04819277108425" type="line"/>
      <point x="58.421686746987945" y="508.04819277108425" type="line"/>
    </contour>
  </outline>
</glyph>
<glyph name="idotless" format="2">
  <advance width="267.8433734939759"/>
  <unicode hex="0131"/>
  <anchor x="133.57831325301206" y="0.0" name="bottom"/>
  <anchor x="175.27710843373495" y="0.0" name="ogonek"/>
  <anchor x="133.57831325301206" y="484.0" name="top"/>
  <outline>
    <contour>
      <point x="58.421686746987945" y="0.0" type="line"/>
      <point x="209.42168674698794" y="0.0" type="line"/>
      <point x="209.42168674698794" y="440.566265060241" type="line"/>
      <point x="58.421686746987945" y="440.566265060241" type="line"/>
    </contour>
  </outline>
</glyph>
<glyph name="kgreenlandic" format="2">
  <advance width="557.6144578313252"/>
  <unicode hex="0138"/>
  <anchor x="278.6506024096385" y="0.0" name="bottom"/>
  <anchor x="278.6506024096385" y="484.0" name="top"/>
  <outline>
    <contour>
      <point x="58.421686746987945" y="0.0" type="line"/>
      <point x="209.42168674698794" y="0.0" type="line"/>
      <point x="209.42168674698794" y="191.01807228915663" type="line"/>
      <point x="211.42168674698794" y="191.01807228915663" type="line"/>
      <point x="393.83734939759034" y="0.0" type="line"/>
      <point x="577.6265060240964" y="0.0" type="line"/>
      <point x="342.19879518072287" y="254.44578313253012" type="line"/>
      <point x="342.19879518072287" y="203.40361445783134" type="line"/>
      <point x="567.0421686746988" y="440.566265060241" type="line"/>
      <point x="386.87951807228916" y="440.566265060241" type="line"/>
      <point x="211.42168674698794" y="257.9518072289157" type="line"/>
      <point x="209.42168674698794" y="257.9518072289157" type="line"/>
      <point x="209.42168674698794" y="440.566265060241" type="line"/>
      <point x="58.421686746987945" y="440.566265060241" type="line"/>
    </contour>
  </outline>
</glyph>
<glyph name="eng" format="2">
  <advance width="595.3373493975903"/>
  <unicode hex="014B"/>
  <outline>
    <contour>
      <point x="283.6867469879518" y="-193.0" type="line"/>
      <point x="327.68674698795184" y="-190.0" type="line" smooth="yes"/>
      <point x="483.34939759036143" y="-179.06024096385542"/>
      <point x="539.6024096385543" y="-121.37349397590361"/>
      <point x="539.6024096385543" y="18.39759036144578" type="curve" smooth="yes"/>
      <point x="539.6024096385543" y="252.49397590361448" type="line" smooth="yes"/>
      <point x="539.6024096385543" y="386.6265060240964"/>
      <point x="483.91566265060237" y="451.1927710843374"/>
      <point x="366.6024096385542" y="451.1927710843374" type="curve" smooth="yes"/>
      <point x="288.48192771084337" y="451.1927710843374"/>
      <point x="226.04819277108433" y="414.7590361445783"/>
      <point x="195.79518072289156" y="351.89156626506025" type="curve"/>
      <point x="205.13855421686748" y="351.89156626506025" type="line"/>
      <point x="205.13855421686748" y="440.566265060241" type="line"/>
      <point x="58.421686746987945" y="440.566265060241" type="line"/>
      <point x="58.421686746987945" y="0.0" type="line"/>
      <point x="209.42168674698794" y="0.0" type="line"/>
      <point x="209.42168674698794" y="229.4036144578313" type="line" smooth="yes"/>
      <point x="209.42168674698794" y="293.3192771084337"/>
      <point x="249.50000000000003" y="335.0542168674699"/>
      <point x="313.7590361445783" y="335.0542168674699" type="curve" smooth="yes"/>
      <point x="364.36144578313247" y="335.0542168674699"/>
      <point x="388.60240963855426" y="309.0963855421687"/>
      <point x="388.60240963855426" y="243.5843373493976" type="curve" smooth="yes"/>
      <point x="388.60240963855426" y="-2.3012048192771104" type="line" smooth="yes"/>
      <point x="388.60240963855426" y="-50.78313253012049"/>
      <point x="367.3614457831325" y="-74.3975903614458"/>
      <point x="320.3734939759036" y="-79.77108433734941" type="curve" smooth="yes"/>
      <point x="273.8072289156627" y="-85.0843373493976" type="line"/>
    </contour>
  </outline>
</glyph>
<glyph name="oe" format="2">
  <advance width="917.1325301204819"/>
  <unicode hex="0153"/>
  <anchor x="476.44578313253015" y="0.0" name="bottom"/>
  <anchor x="476.44578313253015" y="484.0" name="top"/>
  <outline>
    <contour>
      <point x="291.9518072289157" y="-10.626506024096384" type="curve" smooth="yes"/>
      <point x="385.7590361445783" y="-10.626506024096384"/>
      <point x="452.8795180722892" y="26.018072289156628"/>
      <point x="492.6686746987952" y="87.1566265060241" type="curve"/>
      <point x="465.0421686746988" y="87.1566265060241" type="line"/>
      <point x="502.42771084337346" y="25.987951807228917"/>
      <point x="584.8614457831325" y="-10.626506024096384"/>
      <point x="688.0722891566265" y="-10.626506024096384" type="curve" smooth="yes"/>
      <point x="750.8493975903614" y="-10.626506024096384"/>
      <point x="827.0421686746988" y="9.433734939759036"/>
      <point x="874.9216867469879" y="40.55421686746988" type="curve"/>
      <point x="839.4759036144578" y="138.24698795180726" type="line"/>
      <point x="793.4156626506024" y="110.37951807228914"/>
      <point x="739.1626506024096" y="96.66265060240963"/>
      <point x="689.9518072289156" y="96.66265060240963" type="curve" smooth="yes"/>
      <point x="591.2469879518072" y="96.66265060240963"/>
      <point x="550.3192771084338" y="140.45783132530119"/>
      <point x="550.3192771084338" y="223.93975903614458" type="curve" smooth="yes"/>
      <point x="550.3192771084338" y="236.1626506024096" type="line" smooth="yes"/>
      <point x="550.3192771084338" y="315.0481927710843"/>
      <point x="592.0240963855422" y="356.7530120481928"/>
      <point x="661.6265060240963" y="356.7530120481928" type="curve" smooth="yes"/>
      <point x="726.1987951807229" y="356.7530120481928"/>
      <point x="762.8132530120482" y="318.3614457831326"/>
      <point x="762.8132530120482" y="246.8493975903615" type="curve"/>
      <point x="782.4397590361446" y="261.1927710843374" type="line"/>
      <point x="533.6325301204819" y="261.1927710843374" type="line"/>
      <point x="533.6325301204819" y="188.83734939759034" type="line"/>
      <point x="887.5180722891566" y="188.83734939759034" type="line"/>
      <point x="887.5180722891566" y="220.49397590361446" type="line" smooth="yes"/>
      <point x="887.5180722891566" y="361.3433734939759"/>
      <point x="797.4156626506024" y="451.1927710843374"/>
      <point x="657.7469879518071" y="451.1927710843374" type="curve" smooth="yes"/>
      <point x="573.1024096385543" y="451.1927710843374"/>
      <point x="504.51807228915663" y="412.710843373494"/>
      <point x="467.789156626506" y="358.66265060240966" type="curve"/>
      <point x="491.6987951807229" y="358.66265060240966" type="line"/>
      <point x="451.9096385542169" y="417.8614457831325"/>
      <point x="385.44578313253015" y="451.1927710843374"/>
      <point x="291.9518072289157" y="451.1927710843374" type="curve" smooth="yes"/>
      <point x="136.0301204819277" y="451.1927710843374"/>
      <point x="34.2710843373494" y="361.9096385542169"/>
      <point x="34.2710843373494" y="221.5963855421687" type="curve" smooth="yes"/>
      <point x="34.2710843373494" y="80.3132530120482"/>
      <point x="136.0301204819277" y="-10.626506024096384"/>
    </contour>
    <contour>
      <point x="294.5783132530121" y="100.9156626506024" type="curve" smooth="yes"/>
      <point x="227.97590361445785" y="100.9156626506024"/>
      <point x="184.3012048192771" y="143.02409638554218"/>
      <point x="184.3012048192771" y="220.93975903614458" type="curve" smooth="yes"/>
      <point x="184.3012048192771" y="298.54216867469876"/>
      <point x="226.97590361445782" y="340.3072289156626"/>
      <point x="294.26506024096386" y="340.3072289156626" type="curve" smooth="yes"/>
      <point x="360.867469879518" y="340.3072289156626"/>
      <point x="404.2289156626506" y="298.54216867469876"/>
      <point x="404.2289156626506" y="220.93975903614458" type="curve" smooth="yes"/>
      <point x="404.2289156626506" y="143.02409638554218"/>
      <point x="361.86746987951807" y="100.9156626506024"/>
    </contour>
  </outline>
</glyph>
<glyph name="Schwa" format="2">
  <advance width="795.9638554216867"/>
  <unicode hex="018F"/>
  <anchor x="399.89156626506025" y="0.0" name="bottom"/>
  <anchor x="399.89156626506025" y="705.0" name="top"/>
  <outline>
    <contour>
      <point x="405.95180722891564" y="-10.626506024096384" type="curve" smooth="yes"/>
      <point x="606.710843373494" y="-10.626506024096384"/>
      <point x="746.722891566265" y="131.3132530120482"/>
      <point x="746.722891566265" y="351.6867469879518" type="curve" smooth="yes"/>
      <point x="746.722891566265" y="577.0"/>
      <point x="598.710843373494" y="715.6265060240964"/>
      <point x="374.6987951807229" y="715.6265060240964" type="curve" smooth="yes"/>
      <point x="254.19277108433735" y="715.6265060240964"/>
      <point x="151.43373493975903" y="685.9397590361446"/>
      <point x="79.86746987951808" y="636.3855421686748" type="curve"/>
      <point x="132.0722891566265" y="518.3373493975904" type="line"/>
      <point x="197.75903614457832" y="562.9518072289156"/>
      <point x="271.6385542168675" y="584.0120481927711"/>
      <point x="355.3132530120482" y="584.0120481927711" type="curve" smooth="yes"/>
      <point x="505.79518072289153" y="584.0120481927711"/>
      <point x="584.843373493976" y="503.46987951807233"/>
      <point x="584.843373493976" y="353.0" type="curve" smooth="yes"/>
      <point x="584.843373493976" y="195.33734939759034"/>
      <point x="517.3614457831325" y="115.42168674698794"/>
      <point x="398.3855421686747" y="115.42168674698794" type="curve" smooth="yes"/>
      <point x="272.5421686746988" y="115.42168674698794"/>
      <point x="208.18072289156626" y="193.27710843373492"/>
      <point x="208.18072289156626" y="353.0" type="curve"/>
      <point x="167.28915662650604" y="292.28915662650604" type="line"/>
      <point x="622.9879518072289" y="292.28915662650604" type="line"/>
      <point x="622.9879518072289" y="414.144578313253" type="line"/>
      <point x="49.92771084337349" y="414.144578313253" type="line"/>
      <point x="49.92771084337349" y="362.44578313253015" type="line" smooth="yes"/>
      <point x="49.92771084337349" y="141.19277108433735"/>
      <point x="172.6265060240964" y="-10.626506024096384"/>
    </contour>
  </outline>
</glyph>
<glyph name="yhook" format="2">
  <advance width="582.9036144578313"/>
  <unicode hex="01B4"/>
  <outline>
    <contour>
      <point x="345.7831325301205" y="328.39156626506025" type="curve" smooth="yes"/>
      <point x="255.47590361445785" y="133.28313253012047" type="line"/>
      <point x="284.0120481927711" y="133.28313253012047" type="line"/>
      <point x="145.85542168674698" y="440.566265060241" type="line"/>
      <point x="-11.487951807228912" y="440.566265060241" type="line"/>
      <point x="206.42168674698797" y="-4.120481927710843" type="line"/>
      <point x="206.42168674698797" y="54.65060240963855" type="line"/>
      <point x="85.87349397590363" y="-180.0" type="line"/>
      <point x="238.24698795180726" y="-180.0" type="line"/>
      <point x="458.8614457831325" y="266.5301204819277" type="line" smooth="yes"/>
      <point x="481.9518072289157" y="313.7409638554217"/>
      <point x="509.2048192771085" y="334.0843373493976"/>
      <point x="546.9518072289156" y="334.0843373493976" type="curve" smooth="yes"/>
      <point x="560.2650602409639" y="334.0843373493976"/>
      <point x="572.6385542168674" y="333.3975903614458"/>
      <point x="586.2650602409639" y="328.3975903614458" type="curve"/>
      <point x="605.3975903614457" y="438.6265060240964" type="line"/>
      <point x="589.0843373493975" y="446.2530120481928"/>
      <point x="556.3855421686746" y="451.1927710843374"/>
      <point x="527.1927710843373" y="451.1927710843374" type="curve" smooth="yes"/>
      <point x="427.1385542168675" y="451.1927710843374"/>
      <point x="380.6927710843374" y="400.55421686746985"/>
    </contour>
  </outline>
</glyph>
<glyph name="gstroke" format="2">
  <advance width="614.6506024096386"/>
  <unicode hex="01E5"/>
  <outline>
    <contour>
      <point x="293.2530120481928" y="-190.6265060240964" type="curve" smooth="yes"/>
      <point x="425.0542168674699" y="-190.6265060240964"/>
      <point x="509.63253012048193" y="-141.49397590361446"/>
      <point x="542.5722891566265" y="-42.168674698795186" type="curve"/>
      <point x="527.0783132530121" y="-49.48192771084338" type="line"/>
      <point x="610.5301204819277" y="-49.48192771084338" type="line"/>
      <point x="610.5301204819277" y="25.548192771084334" type="line"/>
      <point x="545.4518072289156" y="25.548192771084334" type="line"/>
      <point x="551.855421686747" y="-5.5000000000000036" type="line"/>
      <point x="554.5421686746988" y="12.15662650602409"/>
      <point x="556.2289156626506" y="34.27710843373494"/>
      <point x="556.2289156626506" y="57.14457831325301" type="curve" smooth="yes"/>
      <point x="556.2289156626506" y="440.566265060241" type="line"/>
      <point x="409.855421686747" y="440.566265060241" type="line"/>
      <point x="409.855421686747" y="358.83132530120486" type="line"/>
      <point x="415.82530120481925" y="358.710843373494" type="line"/>
      <point x="393.2590361445783" y="413.3253012048193"/>
      <point x="327.8554216867469" y="451.1927710843374"/>
      <point x="249.9578313253012" y="451.1927710843374" type="curve" smooth="yes"/>
      <point x="123.21084337349399" y="451.1927710843374"/>
      <point x="34.2710843373494" y="366.35542168674704"/>
      <point x="34.2710843373494" y="247.75903614457832" type="curve" smooth="yes"/>
      <point x="34.2710843373494" y="129.47590361445782"/>
      <point x="123.21084337349399" y="43.95180722891566"/>
      <point x="249.9578313253012" y="43.95180722891566" type="curve" smooth="yes"/>
      <point x="328.51204819277103" y="43.95180722891566"/>
      <point x="395.2289156626506" y="81.19277108433735"/>
      <point x="416.4819277108433" y="135.18072289156626" type="curve"/>
      <point x="409.16867469879514" y="135.18072289156626" type="line"/>
      <point x="409.16867469879514" y="32.68674698795181" type="line" smooth="yes"/>
      <point x="409.16867469879514" y="20.19277108433735"/>
      <point x="408.5120481927711" y="11.475903614457831"/>
      <point x="406.1385542168675" y="0.6987951807228905" type="curve"/>
      <point x="416.39156626506025" y="25.548192771084334" type="line"/>
      <point x="284.10843373493975" y="25.548192771084334" type="line"/>
      <point x="284.10843373493975" y="-49.48192771084338" type="line"/>
      <point x="391.5542168674699" y="-49.48192771084338" type="line"/>
      <point x="388.4216867469879" y="-42.48192771084338" type="line"/>
      <point x="367.67469879518075" y="-70.28915662650603"/>
      <point x="331.8975903614458" y="-84.06626506024097"/>
      <point x="280.4638554216868" y="-84.06626506024097" type="curve" smooth="yes"/>
      <point x="218.56626506024097" y="-84.06626506024097"/>
      <point x="145.9578313253012" y="-65.8132530120482"/>
      <point x="94.09036144578313" y="-33.37951807228916" type="curve"/>
      <point x="55.39156626506024" y="-131.16265060240963" type="line"/>
      <point x="120.2710843373494" y="-172.22289156626505"/>
      <point x="203.7168674698795" y="-190.6265060240964"/>
    </contour>
    <contour>
      <point x="296.578313253012" y="151.6144578313253" type="curve" smooth="yes"/>
      <point x="228.03614457831327" y="151.6144578313253"/>
      <point x="184.3012048192771" y="192.12650602409636"/>
      <point x="184.3012048192771" y="247.44578313253012" type="curve" smooth="yes"/>
      <point x="184.3012048192771" y="303.76506024096386"/>
      <point x="227.37951807228916" y="344.2469879518072"/>
      <point x="296.578313253012" y="344.2469879518072" type="curve" smooth="yes"/>
      <point x="365.7771084337349" y="344.2469879518072"/>
      <point x="408.5120481927711" y="303.4216867469879"/>
      <point x="408.5120481927711" y="247.789156626506" type="curve" smooth="yes"/>
      <point x="408.5120481927711" y="192.7831325301205"/>
      <point x="365.43373493975906" y="151.6144578313253"/>
    </contour>
  </outline>
</glyph>
<glyph name="bhook" format="2">
  <advance width="610.0240963855422"/>
  <unicode hex="0253"/>
  <outline>
    <contour>
      <point x="364.6927710843374" y="-10.626506024096384" type="curve" smooth="yes"/>
      <point x="487.4698795180723" y="-10.626506024096384"/>
      <point x="576.4096385542168" y="80.0"/>
      <point x="576.4096385542168" y="220.6265060240964" type="curve" smooth="yes"/>
      <point x="576.4096385542168" y="361.59638554216866"/>
      <point x="488.1265060240964" y="451.1927710843374"/>
      <point x="364.6927710843374" y="451.1927710843374" type="curve" smooth="yes"/>
      <point x="285.8253012048193" y="451.1927710843374"/>
      <point x="220.76506024096383" y="413.38554216867476"/>
      <point x="199.10843373493975" y="359.8012048192771" type="curve"/>
      <point x="209.42168674698794" y="359.8012048192771" type="line"/>
      <point x="209.42168674698794" y="506.9036144578314" type="line" smooth="yes"/>
      <point x="209.42168674698794" y="565.3975903614457"/>
      <point x="235.85542168674698" y="597.8313253012049"/>
      <point x="286.78313253012044" y="597.8313253012049" type="curve" smooth="yes"/>
      <point x="300.7831325301205" y="597.8313253012049"/>
      <point x="310.4096385542168" y="596.8313253012049"/>
      <point x="326.7831325301205" y="592.8313253012047" type="curve"/>
      <point x="343.6024096385542" y="704.6867469879519" type="line"/>
      <point x="324.6626506024096" y="711.3132530120482"/>
      <point x="294.9036144578313" y="715.6265060240964"/>
      <point x="272.96385542168673" y="715.6265060240964" type="curve" smooth="yes"/>
      <point x="129.74698795180723" y="715.6265060240964"/>
      <point x="58.421686746987945" y="635.0481927710844"/>
      <point x="58.421686746987945" y="508.8433734939759" type="curve" smooth="yes"/>
      <point x="58.421686746987945" y="0.0" type="line"/>
      <point x="205.13855421686748" y="0.0" type="line"/>
      <point x="205.13855421686748" y="86.39156626506023" type="line"/>
      <point x="197.13855421686748" y="86.39156626506023" type="line"/>
      <point x="218.13855421686745" y="30.807228915662655"/>
      <point x="283.5120481927711" y="-10.626506024096384"/>
    </contour>
    <contour>
      <point x="315.7590361445783" y="100.9156626506024" type="curve" smooth="yes"/>
      <point x="248.81325301204822" y="100.9156626506024"/>
      <point x="205.79518072289156" y="142.71084337349396"/>
      <point x="205.79518072289156" y="220.6265060240964" type="curve" smooth="yes"/>
      <point x="205.79518072289156" y="298.8855421686747"/>
      <point x="248.81325301204822" y="340.3072289156626"/>
      <point x="315.7590361445783" y="340.3072289156626" type="curve" smooth="yes"/>
      <point x="382.36144578313247" y="340.3072289156626"/>
      <point x="425.72289156626505" y="298.8855421686747"/>
      <point x="425.72289156626505" y="220.6265060240964" type="curve" smooth="yes"/>
      <point x="425.72289156626505" y="142.71084337349396"/>
      <point x="382.36144578313247" y="100.9156626506024"/>
    </contour>
  </outline>
</glyph>
<glyph name="dhook" format="2">
  <advance width="610.0240963855422"/>
  <unicode hex="0257"/>
  <outline>
    <contour>
      <point x="245.98795180722888" y="-10.626506024096384" type="curve" smooth="yes"/>
      <point x="326.82530120481925" y="-10.626506024096384"/>
      <point x="392.19879518072287" y="30.807228915662655"/>
      <point x="412.54216867469876" y="86.39156626506023" type="curve"/>
      <point x="405.2289156626506" y="86.39156626506023" type="line"/>
      <point x="405.2289156626506" y="0.0" type="line"/>
      <point x="551.6024096385541" y="0.0" type="line"/>
      <point x="551.6024096385541" y="506.9036144578314" type="line" smooth="yes"/>
      <point x="551.6024096385541" y="573.277108433735"/>
      <point x="584.289156626506" y="597.8313253012049"/>
      <point x="628.9638554216867" y="597.8313253012049" type="curve" smooth="yes"/>
      <point x="642.9638554216867" y="597.8313253012049"/>
      <point x="652.5903614457832" y="596.8313253012049"/>
      <point x="668.9638554216867" y="592.8313253012047" type="curve"/>
      <point x="685.7831325301205" y="704.6867469879519" type="line"/>
      <point x="668.156626506024" y="711.3132530120482"/>
      <point x="637.0843373493976" y="715.6265060240964"/>
      <point x="615.144578313253" y="715.6265060240964" type="curve" smooth="yes"/>
      <point x="471.92771084337346" y="715.6265060240964"/>
      <point x="400.6024096385542" y="635.0481927710844"/>
      <point x="400.6024096385542" y="508.8433734939759" type="curve" smooth="yes"/>
      <point x="400.6024096385542" y="359.8012048192771" type="line"/>
      <point x="411.22891566265054" y="359.8012048192771" type="line"/>
      <point x="388.9156626506024" y="413.38554216867476"/>
      <point x="325.19879518072287" y="451.1927710843374"/>
      <point x="245.98795180722888" y="451.1927710843374" type="curve" smooth="yes"/>
      <point x="121.8975903614458" y="451.1927710843374"/>
      <point x="34.2710843373494" y="361.59638554216866"/>
      <point x="34.2710843373494" y="220.6265060240964" type="curve" smooth="yes"/>
      <point x="34.2710843373494" y="80.0"/>
      <point x="122.8975903614458" y="-10.626506024096384"/>
    </contour>
    <contour>
      <point x="294.26506024096386" y="100.9156626506024" type="curve" smooth="yes"/>
      <point x="227.31927710843374" y="100.9156626506024"/>
      <point x="184.3012048192771" y="142.71084337349396"/>
      <point x="184.3012048192771" y="220.6265060240964" type="curve" smooth="yes"/>
      <point x="184.3012048192771" y="298.8855421686747"/>
      <point x="227.31927710843374" y="340.3072289156626"/>
      <point x="294.26506024096386" y="340.3072289156626" type="curve" smooth="yes"/>
      <point x="360.867469879518" y="340.3072289156626"/>
      <point x="404.2289156626506" y="298.8855421686747"/>
      <point x="404.2289156626506" y="220.6265060240964" type="curve" smooth="yes"/>
      <point x="404.2289156626506" y="142.71084337349396"/>
      <point x="360.867469879518" y="100.9156626506024"/>
    </contour>
  </outline>
</glyph>
<glyph name="schwa" format="2">
  <advance width="549.2650602409639"/>
  <unicode hex="0259"/>
  <outline>
    <contour>
      <point x="269.7590361445783" y="-10.626506024096384" type="curve" smooth="yes"/>
      <point x="411.60843373493975" y="-10.626506024096384"/>
      <point x="515.6506024096385" y="86.3132530120482"/>
      <point x="515.6506024096385" y="220.65662650602408" type="curve" smooth="yes"/>
      <point x="515.6506024096385" y="359.9397590361446"/>
      <point x="413.8614457831325" y="451.1927710843374"/>
      <point x="240.0" y="451.1927710843374" type="curve" smooth="yes"/>
      <point x="172.9698795180723" y="451.1927710843374"/>
      <point x="97.09036144578313" y="433.13253012048193"/>
      <point x="43.867469879518076" y="401.69879518072287" type="curve"/>
      <point x="77.0" y="305.31927710843377" type="line"/>
      <point x="127.71686746987952" y="330.8734939759036"/>
      <point x="183.3132530120482" y="343.90361445783134"/>
      <point x="237.40361445783134" y="343.90361445783134" type="curve" smooth="yes"/>
      <point x="331.76506024096386" y="343.90361445783134"/>
      <point x="375.8132530120482" y="302.5120481927711"/>
      <point x="375.8132530120482" y="218.3433734939759" type="curve" smooth="yes"/>
      <point x="375.8132530120482" y="206.43373493975903" type="line" smooth="yes"/>
      <point x="375.8132530120482" y="128.23493975903617"/>
      <point x="333.1385542168674" y="84.1566265060241"/>
      <point x="265.93975903614455" y="84.1566265060241" type="curve" smooth="yes"/>
      <point x="195.90361445783134" y="84.1566265060241"/>
      <point x="158.289156626506" y="120.48795180722892"/>
      <point x="158.289156626506" y="196.09036144578312" type="curve"/>
      <point x="138.63253012048193" y="179.3734939759036" type="line"/>
      <point x="391.1566265060241" y="179.3734939759036" type="line"/>
      <point x="391.1566265060241" y="251.72891566265065" type="line"/>
      <point x="29.614457831325304" y="251.72891566265065" type="line"/>
      <point x="29.614457831325304" y="221.75903614457832" type="line" smooth="yes"/>
      <point x="29.614457831325304" y="73.28313253012048"/>
      <point x="120.06024096385542" y="-10.626506024096384"/>
    </contour>
  </outline>
</glyph>
<glyph name="commaturnedmod" format="2">
  <advance width="500.0"/>
  <unicode hex="02BB"/>
  <anchor x="250.0" y="484.0" name="_top"/>
  <anchor x="250.0" y="685.0" name="top"/>
  <outline>
    <contour>
      <point x="175.28915662650604" y="512.1204819277108" type="line"/>
      <point x="324.3975903614458" y="512.1204819277108" type="line"/>
      <point x="324.3975903614458" y="624.4879518072289" type="line"/>
      <point x="219.55421686746988" y="624.4879518072289" type="line"/>
      <point x="252.0" y="606.9819277108434" type="line"/>
      <point x="252.0" y="645.578313253012"/>
      <point x="259.9397590361446" y="673.578313253012"/>
      <point x="292.59638554216866" y="703.0120481927711" type="curve"/>
      <point x="239.01807228915663" y="740.7710843373494" type="line"/>
      <point x="189.22891566265062" y="698.2048192771084"/>
      <point x="175.28915662650604" y="648.9518072289158"/>
      <point x="175.28915662650604" y="588.1927710843374" type="curve" smooth="yes"/>
    </contour>
  </outline>
</glyph>
<glyph name="apostrophemod" format="2">
  <advance width="332.8313253012048"/>
  <unicode hex="02BC"/>
  <outline>
    <contour>
      <point x="177.7710843373494" y="514.1807228915662" type="line"/>
      <point x="227.56024096385545" y="556.7469879518072"/>
      <point x="241.5" y="605.3132530120482"/>
      <point x="241.5" y="667.1024096385543" type="curve" smooth="yes"/>
      <point x="241.5" y="742.1445783132531" type="line"/>
      <point x="92.39156626506025" y="742.1445783132531" type="line"/>
      <point x="92.39156626506025" y="629.777108433735" type="line"/>
      <point x="197.23493975903617" y="629.777108433735" type="line"/>
      <point x="164.789156626506" y="647.2831325301205" type="line"/>
      <point x="164.789156626506" y="609.0301204819278"/>
      <point x="156.84939759036143" y="580.6867469879519"/>
      <point x="124.19277108433732" y="551.5963855421687" type="curve"/>
    </contour>
  </outline>
</glyph>
<glyph name="ringhalfleft" format="2">
  <advance width="500.0"/>
  <unicode hex="02BF"/>
  <anchor x="250.0" y="484.0" name="_top"/>
  <anchor x="250.0" y="685.0" name="top"/>
  <outline>
    <contour>
      <point x="250.0" y="500.433734939759" type="curve"/>
      <point x="250.0" y="561.0722891566265" type="line"/>
      <point x="223.56626506024097" y="561.0722891566265"/>
      <point x="204.81927710843374" y="582.132530120482"/>
      <point x="204.81927710843374" y="607.8795180722892" type="curve" smooth="yes"/>
      <point x="204.81927710843374" y="634.3132530120481"/>
      <point x="223.56626506024097" y="655.0602409638554"/>
      <point x="250.0" y="655.0602409638554" type="curve"/>
      <point x="250.0" y="715.6987951807229" type="line"/>
      <point x="188.43373493975903" y="715.6987951807229"/>
      <point x="140.86746987951807" y="668.4457831325301"/>
      <point x="140.86746987951807" y="607.8795180722892" type="curve" smooth="yes"/>
      <point x="140.86746987951807" y="547.0"/>
      <point x="188.43373493975903" y="500.433734939759"/>
    </contour>
  </outline>
</glyph>
<glyph name="verticallinemod" format="2">
  <advance width="500.0"/>
  <unicode hex="02C8"/>
  <outline>
    <contour>
      <point x="203.73493975903617" y="543.3734939759036" type="line"/>
      <point x="296.26506024096386" y="543.3734939759036" type="line"/>
      <point x="296.26506024096386" y="768.2831325301205" type="line"/>
      <point x="203.73493975903617" y="768.2831325301205" type="line"/>
    </contour>
  </outline>
</glyph>
<glyph name="firsttonechinese" format="2">
  <advance width="500.0"/>
  <unicode hex="02C9"/>
  <anchor x="250.0" y="484.0" name="_top"/>
  <anchor x="250.0" y="685.0" name="top"/>
  <outline>
    <contour>
      <point x="87.36144578313254" y="560.6746987951808" type="line"/>
      <point x="413.32530120481925" y="560.6746987951808" type="line"/>
      <point x="413.32530120481925" y="645.9518072289156" type="line"/>
      <point x="87.36144578313254" y="645.9518072289156" type="line"/>
    </contour>
  </outline>
</glyph>
<glyph name="acutecomb" format="2">
  <unicode hex="0301"/>
  <anchor x="0.0" y="484.0" name="_top"/>
  <anchor x="0.0" y="685.0" name="top"/>
  <outline>
    <contour>
      <point x="-49.51807228915663" y="505.2530120481928" type="line"/>
      <point x="49.51807228915663" y="505.2530120481928" type="line"/>
      <point x="197.4698795180723" y="729.8493975903615" type="line"/>
      <point x="52.855421686746986" y="729.8493975903615" type="line"/>
    </contour>
  </outline>
</glyph>
<glyph name="circumflexcomb" format="2">
  <unicode hex="0302"/>
  <anchor x="0.0" y="484.0" name="_top"/>
  <anchor x="0.0" y="685.0" name="top"/>
  <outline>
    <contour>
      <point x="-175.02409638554215" y="505.2530120481928" type="line"/>
      <point x="-81.2409638554217" y="505.2530120481928" type="line"/>
      <point x="0.0" y="648.8554216867469" type="line"/>
      <point x="81.2409638554217" y="505.2530120481928" type="line"/>
      <point x="175.02409638554215" y="505.2530120481928" type="line"/>
      <point x="64.39759036144578" y="729.8493975903615" type="line"/>
      <point x="-64.39759036144578" y="729.8493975903615" type="line"/>
    </contour>
  </outline>
</glyph>
<glyph name="tildecomb" format="2">
  <unicode hex="0303"/>
  <anchor x="0.0" y="484.0" name="_top"/>
  <anchor x="0.0" y="685.0" name="top"/>
  <outline>
    <contour>
      <point x="-130.74698795180723" y="525.5542168674699" type="line"/>
      <point x="-124.37349397590361" y="577.5722891566265"/>
      <point x="-103.96987951807229" y="599.9156626506024"/>
      <point x="-70.03012048192771" y="599.9156626506024" type="curve" smooth="yes"/>
      <point x="-51.68674698795181" y="599.9156626506024"/>
      <point x="-37.03012048192771" y="590.5421686746987"/>
      <point x="-10.343373493975903" y="569.0783132530121" type="curve" smooth="yes"/>
      <point x="20.807228915662648" y="543.4939759036145"/>
      <point x="45.373493975903614" y="530.1807228915663"/>
      <point x="76.96987951807229" y="530.1807228915663" type="curve" smooth="yes"/>
      <point x="147.0722891566265" y="530.1807228915663"/>
      <point x="197.45783132530119" y="587.0602409638554"/>
      <point x="202.144578313253" y="696.9819277108435" type="curve"/>
      <point x="130.74698795180723" y="701.6084337349398" type="line"/>
      <point x="124.74698795180723" y="649.9939759036145"/>
      <point x="104.37349397590361" y="627.2469879518071"/>
      <point x="70.71686746987952" y="627.2469879518071" type="curve" smooth="yes"/>
      <point x="53.403614457831324" y="627.2469879518071"/>
      <point x="39.06024096385542" y="635.933734939759"/>
      <point x="10.373493975903614" y="658.3975903614459" type="curve" smooth="yes"/>
      <point x="-18.716867469879517" y="680.9216867469879"/>
      <point x="-42.96987951807229" y="696.9819277108435"/>
      <point x="-76.28313253012048" y="696.9819277108435" type="curve" smooth="yes"/>
      <point x="-146.38554216867468" y="696.9819277108435"/>
      <point x="-196.77108433734938" y="640.1024096385543"/>
      <point x="-202.144578313253" y="530.1807228915663" type="curve"/>
    </contour>
  </outline>
</glyph>
<glyph name="brevecomb" format="2">
  <unicode hex="0306"/>
  <anchor x="0.0" y="484.0" name="_top"/>
  <anchor x="0.0" y="685.0" name="top"/>
  <outline>
    <contour>
      <point x="0.0" y="501.93975903614455" type="curve" smooth="yes"/>
      <point x="103.0722891566265" y="501.93975903614455"/>
      <point x="171.5180722891566" y="579.5060240963855"/>
      <point x="172.89156626506022" y="716.132530120482" type="curve"/>
      <point x="89.98795180722892" y="723.7590361445783" type="line"/>
      <point x="85.67469879518073" y="634.0240963855422"/>
      <point x="53.554216867469876" y="590.4698795180723"/>
      <point x="0.0" y="590.4698795180723" type="curve" smooth="yes"/>
      <point x="-53.554216867469876" y="590.4698795180723"/>
      <point x="-85.67469879518073" y="634.0240963855422"/>
      <point x="-89.98795180722892" y="723.7590361445783" type="curve"/>
      <point x="-172.89156626506022" y="716.132530120482" type="line"/>
      <point x="-170.8313253012048" y="579.5060240963855"/>
      <point x="-102.38554216867469" y="501.93975903614455"/>
    </contour>
  </outline>
</glyph>
<glyph name="hookabovecomb" format="2">
  <unicode hex="0309"/>
  <anchor x="0.0" y="484.0" name="_top"/>
  <anchor x="0.0" y="685.0" name="top"/>
  <outline>
    <contour>
      <point x="-44.26506024096385" y="505.2530120481928" type="line"/>
      <point x="44.26506024096385" y="505.2530120481928" type="line"/>
      <point x="44.26506024096385" y="524.8795180722892" type="line" smooth="yes"/>
      <point x="44.26506024096385" y="581.343373493976"/>
      <point x="119.57831325301206" y="587.9698795180723"/>
      <point x="119.57831325301206" y="658.5963855421687" type="curve" smooth="yes"/>
      <point x="119.57831325301206" y="709.8493975903615"/>
      <point x="77.04216867469879" y="738.4759036144579"/>
      <point x="6.939759036144578" y="738.4759036144579" type="curve" smooth="yes"/>
      <point x="-40.81927710843373" y="738.4759036144579"/>
      <point x="-79.95180722891565" y="729.8192771084337"/>
      <point x="-110.144578313253" y="712.1927710843373" type="curve"/>
      <point x="-87.01204819277108" y="649.6445783132531" type="line"/>
      <point x="-66.95180722891565" y="661.3614457831325"/>
      <point x="-49.57831325301204" y="665.6746987951807"/>
      <point x="-29.57831325301205" y="665.6746987951807" type="curve" smooth="yes"/>
      <point x="-5.397590361445779" y="665.6746987951807"/>
      <point x="7.975903614457835" y="656.6144578313254"/>
      <point x="7.975903614457835" y="637.8975903614457" type="curve" smooth="yes"/>
      <point x="7.975903614457835" y="601.0602409638553"/>
      <point x="-44.26506024096385" y="588.777108433735"/>
      <point x="-44.26506024096385" y="530.1927710843374" type="curve" smooth="yes"/>
    </contour>
  </outline>
</glyph>
<glyph name="ringcomb" format="2">
  <unicode hex="030A"/>
  <anchor x="0.0" y="484.0" name="_top"/>
  <anchor x="0.0" y="685.0" name="top"/>
  <outline>
    <contour>
      <point x="0.0" y="498.65662650602417" type="curve" smooth="yes"/>
      <point x="71.53614457831326" y="498.65662650602417"/>
      <point x="127.10240963855422" y="552.5963855421686"/>
      <point x="127.10240963855422" y="622.1325301204819" type="curve" smooth="yes"/>
      <point x="127.10240963855422" y="691.6686746987951"/>
      <point x="71.53614457831326" y="744.9216867469879"/>
      <point x="0.0" y="744.9216867469879" type="curve" smooth="yes"/>
      <point x="-71.53614457831326" y="744.9216867469879"/>
      <point x="-127.10240963855422" y="691.6686746987951"/>
      <point x="-127.10240963855422" y="622.1325301204819" type="curve" smooth="yes"/>
      <point x="-127.10240963855422" y="552.5963855421686"/>
      <point x="-71.53614457831326" y="498.65662650602417"/>
    </contour>
    <contour>
      <point x="0.0" y="560.2048192771084" type="curve" smooth="yes"/>
      <point x="-34.49397590361446" y="560.2048192771084"/>
      <point x="-60.927710843373504" y="586.3253012048193"/>
      <point x="-60.927710843373504" y="622.1325301204819" type="curve" smooth="yes"/>
      <point x="-60.927710843373504" y="657.2530120481928"/>
      <point x="-34.49397590361446" y="683.0602409638554"/>
      <point x="0.0" y="683.0602409638554" type="curve" smooth="yes"/>
      <point x="35.18072289156627" y="683.0602409638554"/>
      <point x="60.927710843373504" y="657.2530120481928"/>
      <point x="60.927710843373504" y="622.1325301204819" type="curve" smooth="yes"/>
      <point x="60.927710843373504" y="586.3253012048193"/>
      <point x="35.18072289156627" y="560.2048192771084"/>
    </contour>
  </outline>
</glyph>
<glyph name="caroncomb" format="2">
  <unicode hex="030C"/>
  <anchor x="0.0" y="484.0" name="_top"/>
  <anchor x="0.0" y="685.0" name="top"/>
  <outline>
    <contour>
      <point x="-64.39759036144578" y="505.2530120481928" type="line"/>
      <point x="64.39759036144578" y="505.2530120481928" type="line"/>
      <point x="175.02409638554215" y="729.8493975903615" type="line"/>
      <point x="81.2409638554217" y="729.8493975903615" type="line"/>
      <point x="0.0" y="586.2469879518071" type="line"/>
      <point x="-81.2409638554217" y="729.8493975903615" type="line"/>
      <point x="-175.02409638554215" y="729.8493975903615" type="line"/>
    </contour>
  </outline>
</glyph>
<glyph name="breveinvertedcomb" format="2">
  <unicode hex="0311"/>
  <anchor x="0.0" y="484.0" name="_top"/>
  <anchor x="0.0" y="685.0" name="top"/>
  <outline>
    <contour>
      <point x="-89.98795180722892" y="501.93975903614455" type="line"/>
      <point x="-85.67469879518073" y="591.9879518072289"/>
      <point x="-53.554216867469876" y="635.2289156626506"/>
      <point x="0.0" y="635.2289156626506" type="curve" smooth="yes"/>
      <point x="53.554216867469876" y="635.2289156626506"/>
      <point x="85.67469879518073" y="591.9879518072289"/>
      <point x="89.98795180722892" y="501.93975903614455" type="curve"/>
      <point x="172.89156626506022" y="509.8795180722892" type="line"/>
      <point x="171.5180722891566" y="645.8493975903615"/>
      <point x="103.0722891566265" y="723.7590361445783"/>
      <point x="0.0" y="723.7590361445783" type="curve" smooth="yes"/>
      <point x="-102.38554216867469" y="723.7590361445783"/>
      <point x="-170.8313253012048" y="645.8493975903615"/>
      <point x="-172.89156626506022" y="509.8795180722892" type="curve"/>
    </contour>
  </outline>
</glyph>
<glyph name="commaturnedabovecomb" format="2">
  <unicode hex="0312"/>
  <anchor x="0.0" y="484.0" name="_top"/>
  <anchor x="0.0" y="685.0" name="top"/>
  <outline>
    <contour>
      <point x="-74.71084337349397" y="512.1204819277108" type="line"/>
      <point x="74.39759036144578" y="512.1204819277108" type="line"/>
      <point x="74.39759036144578" y="623.4578313253012" type="line"/>
      <point x="-30.102409638554217" y="623.4578313253012" type="line"/>
      <point x="1.6566265060240963" y="605.9518072289156" type="line"/>
      <point x="1.6566265060240963" y="645.9216867469879"/>
      <point x="10.626506024096386" y="673.9216867469879"/>
      <point x="42.93975903614458" y="704.0421686746988" type="curve"/>
      <point x="-10.638554216867469" y="741.4578313253013" type="line"/>
      <point x="-59.74096385542168" y="699.2349397590361"/>
      <point x="-74.71084337349397" y="649.2951807228915"/>
      <point x="-74.71084337349397" y="587.5060240963855" type="curve" smooth="yes"/>
    </contour>
  </outline>
</glyph>
<glyph name="ogonekcomb" format="2">
  <unicode hex="0328"/>
  <anchor x="0.0" y="0.0" name="_ogonek"/>
  <outline>
    <contour>
      <point x="-22.566265060240962" y="-196.56626506024097" type="curve" smooth="yes"/>
      <point x="12.686746987951807" y="-196.56626506024097"/>
      <point x="38.373493975903614" y="-191.87951807228916"/>
      <point x="68.44578313253012" y="-179.25301204819277" type="curve"/>
      <point x="52.81927710843373" y="-109.16867469879517" type="line"/>
      <point x="33.506024096385545" y="-115.85542168674701"/>
      <point x="18.132530120481924" y="-119.54216867469881"/>
      <point x="-1.8072289156626518" y="-119.54216867469881" type="curve" smooth="yes"/>
      <point x="-33.18072289156627" y="-119.54216867469881"/>
      <point x="-56.554216867469876" y="-102.855421686747"/>
      <point x="-56.554216867469876" y="-71.67469879518073" type="curve" smooth="yes"/>
      <point x="-56.554216867469876" y="-41.74698795180723"/>
      <point x="-34.25301204819277" y="-14.0"/>
      <point x="0.0" y="0.0" type="curve"/>
      <point x="-42.325301204819276" y="45.13253012048193" type="line"/>
      <point x="-105.89156626506025" y="20.385542168674696"/>
      <point x="-148.08433734939757" y="-30.927710843373493"/>
      <point x="-148.08433734939757" y="-88.80722891566265" type="curve" smooth="yes"/>
      <point x="-148.08433734939757" y="-155.0"/>
      <point x="-102.20481927710844" y="-196.56626506024097"/>
    </contour>
  </outline>
</glyph>
<glyph name="macronbelowcomb" format="2">
  <unicode hex="0331"/>
  <anchor x="0.0" y="0.0" name="_bottom"/>
  <anchor x="0.0" y="-170.0" name="bottom"/>
  <outline>
    <contour>
      <point x="-162.63855421686745" y="-169.66867469879517" type="line"/>
      <point x="163.32530120481925" y="-169.66867469879517" type="line"/>
      <point x="163.32530120481925" y="-84.73493975903614" type="line"/>
      <point x="-162.63855421686745" y="-84.73493975903614" type="line"/>
    </contour>
  </outline>
</glyph>
<glyph name="slashshortcomb" format="2">
  <unicode hex="0337"/>
  <anchor x="-37.734939759036145" y="317.37349397590367" name="_center"/>
  <outline>
    <contour>
      <point x="-181.16265060240966" y="186.27710843373495" type="line"/>
      <point x="154.89759036144576" y="345.5542168674699" type="line"/>
      <point x="107.03614457831326" y="448.15662650602405" type="line"/>
      <point x="-229.02409638554218" y="288.87951807228916" type="line"/>
    </contour>
  </outline>
</glyph>
<glyph name="slashlongcomb" format="2">
  <unicode hex="0338"/>
  <anchor x="19.042168674698793" y="220.96987951807228" name="_center"/>
  <outline>
    <contour>
      <point x="-116.95783132530121" y="-63.638554216867476" type="line"/>
      <point x="225.02409638554218" y="460.8192771084337" type="line"/>
      <point x="154.3855421686747" y="505.23493975903614" type="line"/>
      <point x="-187.5963855421687" y="-19.22289156626506" type="line"/>
    </contour>
  </outline>
</glyph>
<glyph name="mu" format="2">
  <advance width="589.6506024096386"/>
  <unicode hex="03BC"/>
  <outline>
    <contour>
      <point x="55.73493975903614" y="-180.0" type="line"/>
      <point x="206.73493975903614" y="-180.0" type="line"/>
      <point x="194.85542168674698" y="41.28915662650603" type="line"/>
      <point x="190.95783132530119" y="41.28915662650603" type="line"/>
      <point x="209.10843373493975" y="4.120481927710844"/>
      <point x="236.87349397590364" y="-10.626506024096384"/>
      <point x="278.29518072289153" y="-10.626506024096384" type="curve" smooth="yes"/>
      <point x="327.15060240963857" y="-10.626506024096384"/>
      <point x="372.48192771084337" y="27.493975903614462"/>
      <point x="385.00602409638554" y="93.644578313253" type="curve"/>
      <point x="383.855421686747" y="93.644578313253" type="line"/>
      <point x="383.855421686747" y="0.0" type="line"/>
      <point x="531.2289156626506" y="0.0" type="line"/>
      <point x="531.2289156626506" y="440.566265060241" type="line"/>
      <point x="380.2289156626506" y="440.566265060241" type="line"/>
      <point x="380.2289156626506" y="212.16265060240963" type="line" smooth="yes"/>
      <point x="380.2289156626506" y="149.5602409638554"/>
      <point x="339.83734939759034" y="106.19879518072288"/>
      <point x="283.89156626506025" y="106.19879518072288" type="curve" smooth="yes"/>
      <point x="231.97590361445782" y="106.19879518072288"/>
      <point x="206.73493975903614" y="132.46987951807228"/>
      <point x="206.73493975903614" y="193.7289156626506" type="curve" smooth="yes"/>
      <point x="206.73493975903614" y="440.566265060241" type="line"/>
      <point x="55.73493975903614" y="440.566265060241" type="line"/>
    </contour>
  </outline>
</glyph>
<glyph name="pi" format="2">
  <advance width="636.4819277108434"/>
  <unicode hex="03C0"/>
  <outline>
    <contour>
      <point x="549.0963855421687" y="-9.251638554216868" type="curve" smooth="yes"/>
      <point x="570.0361445783132" y="-9.251638554216868"/>
      <point x="593.289156626506" y="-7.253012048192771"/>
      <point x="622.1686746987953" y="-3.2530120481927707" type="curve"/>
      <point x="628.1084337349397" y="117.54216867469879" type="line"/>
      <point x="613.3614457831326" y="115.82530120481927"/>
      <point x="599.301204819277" y="113.48192771084337"/>
      <point x="587.2409638554217" y="113.48192771084337" type="curve" smooth="yes"/>
      <point x="522.433734939759" y="113.48192771084337"/>
      <point x="497.6867469879518" y="144.31927710843374"/>
      <point x="497.6867469879518" y="211.24698795180726" type="curve" smooth="yes"/>
      <point x="497.6867469879518" y="328.3975903614458" type="line"/>
      <point x="601.0481927710844" y="328.3975903614458" type="line"/>
      <point x="601.0481927710844" y="440.566265060241" type="line"/>
      <point x="3.6867469879518078" y="440.566265060241" type="line"/>
      <point x="3.6867469879518078" y="328.3975903614458" type="line"/>
      <point x="95.12048192771084" y="328.3975903614458" type="line"/>
      <point x="90.12048192771084" y="222.6144578313253"/>
      <point x="73.06024096385542" y="127.47590361445782"/>
      <point x="33.31325301204819" y="0.0" type="curve"/>
      <point x="188.0" y="0.0" type="line"/>
      <point x="225.71686746987953" y="103.15060240963855"/>
      <point x="240.12048192771084" y="195.85542168674698"/>
      <point x="246.12048192771084" y="328.3975903614458" type="curve"/>
      <point x="346.68674698795184" y="328.3975903614458" type="line"/>
      <point x="346.68674698795184" y="198.77108433734938" type="line" smooth="yes"/>
      <point x="346.68674698795184" y="70.84939759036145"/>
      <point x="406.3855421686747" y="-9.251638554216868"/>
    </contour>
  </outline>
</glyph>
<glyph name="De-cy" format="2">
  <advance width="811.2168674698795"/>
  <unicode hex="0414"/>
  <outline>
    <contour>
      <point x="12.433734939759038" y="-169.69879518072287" type="line"/>
      <point x="148.67469879518072" y="-169.69879518072287" type="line"/>
      <point x="148.67469879518072" y="0.0" type="line"/>
      <point x="652.9759036144578" y="0.0" type="line"/>
      <point x="652.9759036144578" y="-169.69879518072287" type="line"/>
      <point x="789.2168674698795" y="-169.69879518072287" type="line"/>
      <point x="789.2168674698795" y="121.73493975903614" type="line"/>
      <point x="689.2168674698795" y="121.73493975903614" type="line"/>
      <point x="689.2168674698795" y="705.0" type="line"/>
      <point x="172.04819277108436" y="705.0" type="line"/>
      <point x="172.04819277108436" y="519.433734939759" type="line" smooth="yes"/>
      <point x="172.04819277108436" y="327.71084337349396"/>
      <point x="143.3012048192771" y="197.34939759036143"/>
      <point x="83.06024096385542" y="121.73493975903614" type="curve"/>
      <point x="12.433734939759038" y="121.73493975903614" type="line"/>
    </contour>
    <contour>
      <point x="238.74698795180723" y="121.73493975903614" type="line"/>
      <point x="290.04819277108436" y="203.40963855421688"/>
      <point x="315.48192771084337" y="325.4578313253012"/>
      <point x="315.48192771084337" y="503.67469879518075" type="curve" smooth="yes"/>
      <point x="315.48192771084337" y="583.5783132530121" type="line"/>
      <point x="533.277108433735" y="583.5783132530121" type="line"/>
      <point x="533.277108433735" y="121.73493975903614" type="line"/>
    </contour>
  </outline>
</glyph>
<glyph name="Zhe-cy" format="2">
  <advance width="1040.9397590361446"/>
  <unicode hex="0416"/>
  <anchor x="872.8795180722892" y="0.0" name="bottomright"/>
  <anchor x="520.4698795180723" y="705.0" name="top"/>
  <outline>
    <contour>
      <point x="-0.07228915662650515" y="0.0" type="line"/>
      <point x="168.0602409638554" y="0.0" type="line"/>
      <point x="260.49397590361446" y="200.49397590361446" type="line" smooth="yes"/>
      <point x="289.04819277108436" y="261.60240963855426"/>
      <point x="326.9759036144578" y="286.46987951807233"/>
      <point x="390.90361445783134" y="286.46987951807233" type="curve" smooth="yes"/>
      <point x="446.6265060240964" y="286.46987951807233" type="line"/>
      <point x="446.6265060240964" y="0.0" type="line"/>
      <point x="595.3132530120481" y="0.0" type="line"/>
      <point x="595.3132530120481" y="286.46987951807233" type="line"/>
      <point x="650.722891566265" y="286.46987951807233" type="line" smooth="yes"/>
      <point x="713.9638554216867" y="286.46987951807233"/>
      <point x="751.5180722891566" y="262.28915662650604"/>
      <point x="780.7590361445783" y="200.49397590361446" type="curve" smooth="yes"/>
      <point x="873.566265060241" y="0.0" type="line"/>
      <point x="1041.012048192771" y="0.0" type="line"/>
      <point x="917.4457831325301" y="254.44578313253012" type="line" smooth="yes"/>
      <point x="873.5060240963855" y="344.3253012048193"/>
      <point x="814.566265060241" y="393.32530120481925"/>
      <point x="725.1204819277109" y="408.51807228915663" type="curve"/>
      <point x="786.710843373494" y="365.566265060241" type="line"/>
      <point x="1005.6385542168674" y="705.0" type="line"/>
      <point x="835.8192771084338" y="705.0" type="line"/>
      <point x="646.156626506024" y="396.8313253012048" type="line"/>
      <point x="671.7831325301204" y="414.4578313253012" type="line"/>
      <point x="595.3132530120481" y="414.4578313253012" type="line"/>
      <point x="595.3132530120481" y="705.0" type="line"/>
      <point x="446.6265060240964" y="705.0" type="line"/>
      <point x="446.6265060240964" y="414.4578313253012" type="line"/>
      <point x="370.8433734939759" y="414.4578313253012" type="line"/>
      <point x="395.78313253012044" y="396.8313253012048" type="line"/>
      <point x="205.80722891566262" y="705.0" type="line"/>
      <point x="35.98795180722892" y="705.0" type="line"/>
      <point x="254.91566265060243" y="365.566265060241" type="line"/>
      <point x="316.50602409638554" y="408.51807228915663" type="line"/>
      <point x="227.3734939759036" y="393.32530120481925"/>
      <point x="168.06024096385542" y="345.32530120481925"/>
      <point x="123.80722891566265" y="254.44578313253012" type="curve" smooth="yes"/>
    </contour>
  </outline>
</glyph>
<glyph name="Pe-cy" format="2">
  <advance width="772.9518072289156"/>
  <unicode hex="041F"/>
  <anchor x="555.4698795180723" y="0.0" name="bottomright"/>
  <outline>
    <contour>
      <point x="70.73493975903614" y="0.0" type="line"/>
      <point x="225.9879518072289" y="0.0" type="line"/>
      <point x="225.9879518072289" y="577.0120481927711" type="line"/>
      <point x="546.9638554216867" y="577.0120481927711" type="line"/>
      <point x="546.9638554216867" y="0.0" type="line"/>
      <point x="702.2168674698795" y="0.0" type="line"/>
      <point x="702.2168674698795" y="705.0" type="line"/>
      <point x="70.73493975903614" y="705.0" type="line"/>
    </contour>
  </outline>
</glyph>
<glyph name="Che-cy" format="2">
  <advance width="708.9036144578313"/>
  <unicode hex="0427"/>
  <anchor x="491.4216867469879" y="0.0" name="bottomright"/>
  <anchor x="306.9397590361446" y="295.0" name="center"/>
  <anchor x="338.83132530120486" y="705.0" name="top"/>
  <outline>
    <contour>
      <point x="482.91566265060237" y="0.0" type="line"/>
      <point x="638.1686746987951" y="0.0" type="line"/>
      <point x="638.1686746987951" y="705.0" type="line"/>
      <point x="482.91566265060237" y="705.0" type="line"/>
      <point x="482.91566265060237" y="393.89156626506025" type="line"/>
      <point x="446.6144578313253" y="375.96385542168673"/>
      <point x="400.6265060240964" y="368.2168674698795"/>
      <point x="359.20481927710847" y="368.2168674698795" type="curve" smooth="yes"/>
      <point x="257.1686746987952" y="368.2168674698795"/>
      <point x="205.12048192771084" y="419.6385542168675"/>
      <point x="205.12048192771084" y="542.6746987951808" type="curve" smooth="yes"/>
      <point x="205.12048192771084" y="705.0" type="line"/>
      <point x="49.867469879518076" y="705.0" type="line"/>
      <point x="49.867469879518076" y="536.6746987951808" type="line" smooth="yes"/>
      <point x="49.867469879518076" y="334.9156626506024"/>
      <point x="154.6867469879518" y="236.60240963855424"/>
      <point x="340.81927710843377" y="236.60240963855424" type="curve" smooth="yes"/>
      <point x="392.7469879518072" y="236.60240963855424"/>
      <point x="450.0481927710843" y="246.66265060240963"/>
      <point x="482.91566265060237" y="261.5301204819277" type="curve"/>
    </contour>
  </outline>
</glyph>
<glyph name="Ereversed-cy" format="2">
  <advance width="683.0722891566265"/>
  <unicode hex="042D"/>
  <anchor x="308.0722891566265" y="0.0" name="bottom"/>
  <anchor x="308.0722891566265" y="705.0" name="top"/>
  <outline>
    <contour>
      <point x="270.5542168674699" y="-10.626506024096384" type="curve" smooth="yes"/>
      <point x="497.4457831325301" y="-10.626506024096384"/>
      <point x="633.144578313253" y="131.6265060240964"/>
      <point x="633.144578313253" y="353.0" type="curve" smooth="yes"/>
      <point x="633.144578313253" y="573.3734939759036"/>
      <point x="497.4457831325301" y="715.6265060240964"/>
      <point x="280.5542168674699" y="715.6265060240964" type="curve" smooth="yes"/>
      <point x="186.49397590361446" y="715.6265060240964"/>
      <point x="95.30120481927712" y="684.6265060240964"/>
      <point x="31.240963855421686" y="633.7590361445783" type="curve"/>
      <point x="79.50602409638554" y="510.7710843373494" type="line"/>
      <point x="148.87951807228916" y="560.6385542168674"/>
      <point x="208.3132530120482" y="578.7590361445783"/>
      <point x="275.3012048192771" y="578.7590361445783" type="curve" smooth="yes"/>
      <point x="387.3975903614458" y="578.7590361445783"/>
      <point x="460.69879518072287" y="508.72289156626505"/>
      <point x="469.95180722891564" y="382.3855421686747" type="curve"/>
      <point x="512.9036144578313" y="419.71084337349396" type="line"/>
      <point x="168.6867469879518" y="419.71084337349396" type="line"/>
      <point x="168.6867469879518" y="298.28915662650604" type="line"/>
      <point x="515.2168674698795" y="298.28915662650604" type="line"/>
      <point x="471.26506024096386" y="335.18072289156623" type="line"/>
      <point x="462.6987951807229" y="194.65060240963854"/>
      <point x="387.3975903614458" y="126.24096385542168"/>
      <point x="265.3012048192771" y="126.24096385542168" type="curve" smooth="yes"/>
      <point x="198.3132530120482" y="126.24096385542168"/>
      <point x="138.87951807228916" y="146.9879518072289"/>
      <point x="79.50602409638554" y="194.2289156626506" type="curve"/>
      <point x="31.240963855421686" y="71.2409638554217" type="line"/>
      <point x="85.30120481927712" y="21.060240963855424"/>
      <point x="176.49397590361446" y="-10.626506024096384"/>
    </contour>
  </outline>
</glyph>
<glyph name="Ia-cy" format="2">
  <advance width="699.3373493975904"/>
  <unicode hex="042F"/>
  <outline>
    <contour>
      <point x="24.987951807228917" y="0.0" type="line"/>
      <point x="195.74698795180723" y="0.0" type="line"/>
      <point x="318.7469879518072" y="224.6867469879518" type="line" smooth="yes"/>
      <point x="338.6746987951807" y="260.855421686747"/>
      <point x="366.85542168674704" y="272.60240963855426"/>
      <point x="407.08433734939763" y="272.60240963855426" type="curve" smooth="yes"/>
      <point x="473.3493975903615" y="272.60240963855426" type="line"/>
      <point x="473.3493975903615" y="0.0" type="line"/>
      <point x="628.6024096385543" y="0.0" type="line"/>
      <point x="628.6024096385543" y="705.0" type="line"/>
      <point x="305.6265060240964" y="705.0" type="line" smooth="yes"/>
      <point x="148.43373493975903" y="705.0"/>
      <point x="59.55421686746988" y="624.4939759036145"/>
      <point x="59.55421686746988" y="489.30120481927713" type="curve" smooth="yes"/>
      <point x="59.55421686746988" y="355.7951807228916"/>
      <point x="149.49397590361446" y="275.28915662650604"/>
      <point x="305.6265060240964" y="275.28915662650604" type="curve"/>
      <point x="304.8072289156627" y="291.54216867469876" type="line"/>
      <point x="267.421686746988" y="291.54216867469876" type="line" smooth="yes"/>
      <point x="211.4819277108434" y="291.54216867469876"/>
      <point x="169.60240963855424" y="264.9156626506024"/>
      <point x="138.9156626506024" y="208.855421686747" type="curve" smooth="yes"/>
    </contour>
    <contour>
      <point x="333.26506024096386" y="384.8313253012048" type="line" smooth="yes"/>
      <point x="251.9156626506024" y="384.8313253012048"/>
      <point x="208.6144578313253" y="417.8192771084337"/>
      <point x="208.6144578313253" y="485.04819277108436" type="curve" smooth="yes"/>
      <point x="208.6144578313253" y="551.277108433735"/>
      <point x="251.9156626506024" y="584.2650602409639"/>
      <point x="333.26506024096386" y="584.2650602409639" type="curve" smooth="yes"/>
      <point x="473.3493975903615" y="584.2650602409639" type="line"/>
      <point x="473.3493975903615" y="384.8313253012048" type="line"/>
    </contour>
  </outline>
</glyph>
<glyph name="be-cy" format="2">
  <advance width="604.4096385542169"/>
  <unicode hex="0431"/>
  <outline>
    <contour>
      <point x="308.4578313253012" y="-10.626506024096384" type="curve" smooth="yes"/>
      <point x="460.15662650602405" y="-10.626506024096384"/>
      <point x="562.855421686747" y="78.03012048192771"/>
      <point x="562.855421686747" y="222.25301204819277" type="curve" smooth="yes"/>
      <point x="562.855421686747" y="356.9698795180723"/>
      <point x="473.289156626506" y="441.68674698795184"/>
      <point x="353.48192771084337" y="441.68674698795184" type="curve" smooth="yes"/>
      <point x="243.5" y="441.68674698795184"/>
      <point x="181.6325301204819" y="376.9879518072289"/>
      <point x="164.51204819277106" y="301.5843373493976" type="curve"/>
      <point x="184.0180722891566" y="301.5843373493976" type="line"/>
      <point x="184.0180722891566" y="371.84939759036143" type="line" smooth="yes"/>
      <point x="184.0180722891566" y="468.1385542168675"/>
      <point x="232.1987951807229" y="522.7831325301205"/>
      <point x="327.53012048192767" y="549.9939759036146" type="curve" smooth="yes"/>
      <point x="532.5421686746988" y="607.4277108433735" type="line"/>
      <point x="488.933734939759" y="724.2228915662652" type="line"/>
      <point x="307.710843373494" y="673.0421686746988" type="line" smooth="yes"/>
      <point x="123.71686746987953" y="621.6686746987951"/>
      <point x="42.21084337349397" y="525.9096385542169"/>
      <point x="42.21084337349397" y="343.28313253012044" type="curve" smooth="yes"/>
      <point x="42.21084337349397" y="261.60843373493975" type="line" smooth="yes"/>
      <point x="42.21084337349397" y="77.6867469879518"/>
      <point x="144.90963855421685" y="-10.626506024096384"/>
    </contour>
    <contour>
      <point x="303.17469879518075" y="100.9156626506024" type="curve" smooth="yes"/>
      <point x="234.57228915662648" y="100.9156626506024"/>
      <point x="194.21084337349396" y="141.99397590361446"/>
      <point x="194.21084337349396" y="218.12048192771084" type="curve" smooth="yes"/>
      <point x="194.21084337349396" y="288.72289156626505"/>
      <point x="235.25903614457832" y="330.45783132530124"/>
      <point x="302.8614457831326" y="330.45783132530124" type="curve" smooth="yes"/>
      <point x="371.12048192771084" y="330.45783132530124"/>
      <point x="412.16867469879514" y="289.06626506024094"/>
      <point x="412.16867469879514" y="215.3734939759036" type="curve" smooth="yes"/>
      <point x="412.16867469879514" y="140.99397590361446"/>
      <point x="371.46385542168673" y="100.9156626506024"/>
    </contour>
  </outline>
</glyph>
<glyph name="ve-cy" format="2">
  <advance width="580.8433734939758"/>
  <unicode hex="0432"/>
  <outline>
    <contour>
      <point x="65.67469879518073" y="0.0" type="line"/>
      <point x="366.62048192771084" y="0.0" type="line" smooth="yes"/>
      <point x="481.37951807228916" y="0.0"/>
      <point x="547.2289156626506" y="48.96987951807229"/>
      <point x="547.2289156626506" y="125.59638554216868" type="curve" smooth="yes"/>
      <point x="547.2289156626506" y="187.5963855421687"/>
      <point x="507.42168674698803" y="229.3132530120482"/>
      <point x="423.9457831325301" y="236.19277108433738" type="curve"/>
      <point x="423.9457831325301" y="222.25301204819277" type="line"/>
      <point x="485.9457831325301" y="232.50602409638554"/>
      <point x="529.289156626506" y="272.1927710843373"/>
      <point x="529.289156626506" y="326.2530120481928" type="curve" smooth="yes"/>
      <point x="529.289156626506" y="397.0"/>
      <point x="478.9156626506024" y="440.566265060241"/>
      <point x="358.62048192771084" y="440.566265060241" type="curve" smooth="yes"/>
      <point x="65.67469879518073" y="440.566265060241" type="line"/>
    </contour>
    <contour>
      <point x="204.1987951807229" y="82.30722891566263" type="line"/>
      <point x="204.1987951807229" y="183.9578313253012" type="line"/>
      <point x="345.355421686747" y="183.9578313253012" type="line" smooth="yes"/>
      <point x="389.1204819277109" y="183.9578313253012"/>
      <point x="411.9879518072289" y="166.77710843373492"/>
      <point x="411.9879518072289" y="132.78915662650604" type="curve" smooth="yes"/>
      <point x="411.9879518072289" y="99.83132530120481"/>
      <point x="389.1204819277109" y="82.30722891566263"/>
      <point x="345.355421686747" y="82.30722891566263" type="curve" smooth="yes"/>
    </contour>
    <contour>
      <point x="204.1987951807229" y="266.26506024096386" type="line"/>
      <point x="204.1987951807229" y="359.2590361445783" type="line"/>
      <point x="334.3855421686747" y="359.2590361445783" type="line" smooth="yes"/>
      <point x="372.83734939759034" y="359.2590361445783"/>
      <point x="394.04819277108436" y="343.078313253012"/>
      <point x="394.04819277108436" y="313.433734939759" type="curve" smooth="yes"/>
      <point x="394.04819277108436" y="283.13253012048193"/>
      <point x="372.83734939759034" y="266.26506024096386"/>
      <point x="334.3855421686747" y="266.26506024096386" type="curve" smooth="yes"/>
    </contour>
  </outline>
</glyph>
<glyph name="ge-cy" format="2">
  <advance width="470.4698795180723"/>
  <unicode hex="0433"/>
  <anchor x="76.2409638554217" y="0.0" name="bottomright"/>
  <anchor x="174.08433734939757" y="222.28313253012047" name="center"/>
  <anchor x="242.19277108433735" y="484.0" name="top"/>
  <outline>
    <contour>
      <point x="65.67469879518073" y="0.0" type="line"/>
      <point x="216.67469879518072" y="0.0" type="line"/>
      <point x="216.67469879518072" y="323.80120481927713" type="line"/>
      <point x="452.9036144578313" y="323.80120481927713" type="line"/>
      <point x="452.9036144578313" y="440.566265060241" type="line"/>
      <point x="65.67469879518073" y="440.566265060241" type="line"/>
    </contour>
  </outline>
</glyph>
<glyph name="de-cy" format="2">
  <advance width="633.3493975903614"/>
  <unicode hex="0434"/>
  <outline>
    <contour>
      <point x="25.686746987951807" y="-130.0" type="line"/>
      <point x="153.3012048192771" y="-130.0" type="line"/>
      <point x="153.3012048192771" y="0.0" type="line"/>
      <point x="488.49397590361446" y="0.0" type="line"/>
      <point x="488.49397590361446" y="-130.0" type="line"/>
      <point x="616.1084337349398" y="-130.0" type="line"/>
      <point x="616.1084337349398" y="114.22891566265059" type="line"/>
      <point x="534.5421686746988" y="114.22891566265059" type="line"/>
      <point x="534.5421686746988" y="440.566265060241" type="line"/>
      <point x="131.9277108433735" y="440.566265060241" type="line"/>
      <point x="131.9277108433735" y="320.3855421686747" type="line" smooth="yes"/>
      <point x="131.9277108433735" y="219.8313253012048"/>
      <point x="118.80722891566265" y="164.12650602409641"/>
      <point x="83.19277108433735" y="114.22891566265059" type="curve"/>
      <point x="25.686746987951807" y="114.22891566265059" type="line"/>
    </contour>
    <contour>
      <point x="216.8975903614458" y="113.9156626506024" type="line"/>
      <point x="243.48192771084337" y="156.93373493975906"/>
      <point x="258.9457831325301" y="220.0120481927711"/>
      <point x="258.9457831325301" y="281.3012048192771" type="curve" smooth="yes"/>
      <point x="258.9457831325301" y="328.3975903614458" type="line"/>
      <point x="395.0481927710843" y="328.3975903614458" type="line"/>
      <point x="395.0481927710843" y="113.9156626506024" type="line"/>
    </contour>
  </outline>
</glyph>
<glyph name="zhe-cy" format="2">
  <advance width="851.6867469879518"/>
  <unicode hex="0436"/>
  <anchor x="713.698795180723" y="0.0" name="bottomright"/>
  <anchor x="425.8433734939759" y="484.0" name="top"/>
  <outline>
    <contour>
      <point x="-10.102409638554215" y="0.0" type="line"/>
      <point x="151.49397590361446" y="0.0" type="line"/>
      <point x="227.76506024096386" y="125.15060240963855" type="line" smooth="yes"/>
      <point x="249.03614457831324" y="158.54216867469881"/>
      <point x="267.8132530120482" y="168.2590361445783"/>
      <point x="305.26506024096386" y="168.2590361445783" type="curve" smooth="yes"/>
      <point x="351.34337349397595" y="168.2590361445783" type="line"/>
      <point x="351.34337349397595" y="0.0" type="line"/>
      <point x="501.6867469879518" y="0.0" type="line"/>
      <point x="501.6867469879518" y="168.2590361445783" type="line"/>
      <point x="547.7650602409639" y="168.2590361445783" type="line" smooth="yes"/>
      <point x="584.5301204819277" y="168.2590361445783"/>
      <point x="603.9939759036145" y="158.54216867469881"/>
      <point x="624.6084337349398" y="125.15060240963855" type="curve" smooth="yes"/>
      <point x="701.5361445783133" y="0.0" type="line"/>
      <point x="861.7891566265059" y="0.0" type="line"/>
      <point x="757.222891566265" y="174.17469879518072" type="line" smooth="yes"/>
      <point x="725.9518072289156" y="225.22289156626505"/>
      <point x="687.4156626506024" y="254.38554216867473"/>
      <point x="634.3554216867469" y="260.7289156626506" type="curve"/>
      <point x="655.5481927710842" y="213.89759036144576" type="line"/>
      <point x="841.6686746987951" y="440.566265060241" type="line"/>
      <point x="680.6987951807229" y="440.566265060241" type="line"/>
      <point x="550.0361445783133" y="281.0843373493976" type="line"/>
      <point x="501.6867469879518" y="281.0843373493976" type="line"/>
      <point x="501.6867469879518" y="440.566265060241" type="line"/>
      <point x="351.34337349397595" y="440.566265060241" type="line"/>
      <point x="351.34337349397595" y="281.0843373493976" type="line"/>
      <point x="302.99397590361446" y="281.0843373493976" type="line"/>
      <point x="171.64457831325302" y="440.566265060241" type="line"/>
      <point x="10.01807228915663" y="440.566265060241" type="line"/>
      <point x="197.82530120481928" y="213.89759036144576" type="line"/>
      <point x="218.33132530120486" y="260.7289156626506" type="line"/>
      <point x="165.2710843373494" y="254.38554216867473"/>
      <point x="126.42168674698797" y="225.22289156626505"/>
      <point x="96.15060240963855" y="174.17469879518072" type="curve" smooth="yes"/>
    </contour>
  </outline>
</glyph>
<glyph name="ze-cy" format="2">
  <advance width="532.4698795180723"/>
  <unicode hex="0437"/>
  <anchor x="268.2048192771084" y="0.0" name="bottom"/>
  <anchor x="260.32530120481925" y="490.566265060241" name="top"/>
  <outline>
    <contour>
      <point x="258.9518072289157" y="-10.626506024096384" type="curve" smooth="yes"/>
      <point x="411.5903614457831" y="-10.626506024096384"/>
      <point x="498.855421686747" y="41.0"/>
      <point x="498.855421686747" y="124.90963855421687" type="curve" smooth="yes"/>
      <point x="498.855421686747" y="191.19277108433735"/>
      <point x="454.4518072289157" y="228.9698795180723"/>
      <point x="372.28915662650604" y="235.5361445783133" type="curve"/>
      <point x="372.28915662650604" y="222.25301204819277" type="line"/>
      <point x="438.22891566265065" y="231.84939759036146"/>
      <point x="480.5722891566265" y="271.87951807228916"/>
      <point x="480.5722891566265" y="325.56626506024094" type="curve" smooth="yes"/>
      <point x="480.5722891566265" y="404.53614457831327"/>
      <point x="404.1867469879518" y="451.1927710843374"/>
      <point x="269.2048192771084" y="451.1927710843374" type="curve" smooth="yes"/>
      <point x="172.53614457831327" y="451.1927710843374"/>
      <point x="90.46385542168674" y="432.87951807228916"/>
      <point x="34.807228915662655" y="402.7590361445784" type="curve"/>
      <point x="69.25301204819277" y="316.2289156626506" type="line"/>
      <point x="118.96987951807229" y="339.4096385542169"/>
      <point x="174.6265060240964" y="354.4397590361446"/>
      <point x="245.25301204819277" y="354.4397590361446" type="curve" smooth="yes"/>
      <point x="318.7469879518072" y="354.4397590361446"/>
      <point x="344.3313253012048" y="338.8855421686747"/>
      <point x="344.3313253012048" y="310.5240963855422" type="curve" smooth="yes"/>
      <point x="344.3313253012048" y="285.132530120482"/>
      <point x="325.0602409638554" y="270.23493975903614"/>
      <point x="284.35542168674704" y="270.23493975903614" type="curve" smooth="yes"/>
      <point x="155.77710843373495" y="270.23493975903614" type="line"/>
      <point x="155.77710843373495" y="174.70481927710844" type="line"/>
      <point x="297.2951807228916" y="174.70481927710844" type="line" smooth="yes"/>
      <point x="343.34337349397595" y="174.70481927710844"/>
      <point x="362.9578313253012" y="160.18072289156626"/>
      <point x="362.9578313253012" y="131.41566265060243" type="curve" smooth="yes"/>
      <point x="362.9578313253012" y="98.39759036144578"/>
      <point x="329.1506024096385" y="86.1867469879518"/>
      <point x="258.6084337349397" y="86.1867469879518" type="curve" smooth="yes"/>
      <point x="187.29518072289156" y="86.1867469879518"/>
      <point x="112.19277108433735" y="101.90361445783132"/>
      <point x="61.90963855421687" y="130.05421686746988" type="curve"/>
      <point x="28.12048192771084" y="41.18072289156627" type="line"/>
      <point x="85.25301204819277" y="7.4638554216867465"/>
      <point x="167.75903614457832" y="-10.626506024096384"/>
    </contour>
  </outline>
</glyph>
<glyph name="ii-cy" format="2">
  <advance width="615.9036144578314"/>
  <unicode hex="0438"/>
  <anchor x="414.0481927710843" y="0.0" name="bottomright"/>
  <anchor x="307.9518072289157" y="484.0" name="top"/>
  <outline>
    <contour>
      <point x="65.67469879518073" y="0.0" type="line"/>
      <point x="189.03614457831324" y="0.0" type="line"/>
      <point x="440.04819277108436" y="292.0602409638554" type="line"/>
      <point x="414.0481927710843" y="292.0602409638554" type="line"/>
      <point x="414.0481927710843" y="0.0" type="line"/>
      <point x="550.2289156626506" y="0.0" type="line"/>
      <point x="550.2289156626506" y="440.566265060241" type="line"/>
      <point x="427.21084337349396" y="440.566265060241" type="line"/>
      <point x="176.88554216867468" y="149.19277108433735" type="line"/>
      <point x="201.85542168674698" y="149.19277108433735" type="line"/>
      <point x="201.85542168674698" y="440.566265060241" type="line"/>
      <point x="65.67469879518073" y="440.566265060241" type="line"/>
    </contour>
  </outline>
</glyph>
<glyph name="ka-cy" format="2">
  <advance width="578.7349397590361"/>
  <unicode hex="043A"/>
  <anchor x="440.0602409638554" y="0.0" name="bottomright"/>
  <anchor x="283.3373493975904" y="222.28313253012047" name="center"/>
  <anchor x="317.0240963855422" y="484.0" name="top"/>
  <outline>
    <contour>
      <point x="65.67469879518073" y="0.0" type="line"/>
      <point x="216.67469879518072" y="0.0" type="line"/>
      <point x="216.67469879518072" y="168.2590361445783" type="line"/>
      <point x="274.1265060240964" y="168.2590361445783" type="line" smooth="yes"/>
      <point x="311.578313253012" y="168.2590361445783"/>
      <point x="330.35542168674704" y="158.54216867469881"/>
      <point x="350.9698795180723" y="125.15060240963855" type="curve" smooth="yes"/>
      <point x="427.89759036144574" y="0.0" type="line"/>
      <point x="588.8373493975903" y="0.0" type="line"/>
      <point x="483.5843373493976" y="174.17469879518072" type="line" smooth="yes"/>
      <point x="452.31325301204816" y="225.22289156626505"/>
      <point x="414.46385542168673" y="254.38554216867473"/>
      <point x="361.4036144578313" y="260.7289156626506" type="curve"/>
      <point x="384.6566265060241" y="213.89759036144576" type="line"/>
      <point x="568.7168674698795" y="440.566265060241" type="line"/>
      <point x="407.7469879518072" y="440.566265060241" type="line"/>
      <point x="276.3975903614458" y="281.0843373493976" type="line"/>
      <point x="216.67469879518072" y="281.0843373493976" type="line"/>
      <point x="216.67469879518072" y="440.566265060241" type="line"/>
      <point x="65.67469879518073" y="440.566265060241" type="line"/>
    </contour>
  </outline>
</glyph>
<glyph name="el-cy" format="2">
  <advance width="610.156626506024"/>
  <unicode hex="043B"/>
  <anchor x="404.04819277108436" y="0.0" name="bottomright"/>
  <outline>
    <contour>
      <point x="60.81927710843374" y="-15.25301204819277" type="line"/>
      <point x="202.27710843373492" y="4.198795180722897"/>
      <point x="264.5421686746988" y="103.61445783132531"/>
      <point x="264.5421686746988" y="277.62048192771084" type="curve" smooth="yes"/>
      <point x="264.5421686746988" y="324.4277108433735" type="line"/>
      <point x="393.48192771084337" y="324.4277108433735" type="line"/>
      <point x="393.48192771084337" y="0.0" type="line"/>
      <point x="544.4819277108434" y="0.0" type="line"/>
      <point x="544.4819277108434" y="440.566265060241" type="line"/>
      <point x="126.67469879518073" y="440.566265060241" type="line"/>
      <point x="126.67469879518073" y="282.5602409638554" type="line" smooth="yes"/>
      <point x="126.67469879518073" y="171.17469879518072"/>
      <point x="96.73493975903614" y="120.5301204819277"/>
      <point x="16.49397590361446" y="104.45180722891565" type="curve"/>
    </contour>
  </outline>
</glyph>
<glyph name="em-cy" format="2">
  <advance width="700.3493975903614"/>
  <unicode hex="043C"/>
  <anchor x="502.12048192771084" y="0.0" name="bottomright"/>
  <outline>
    <contour>
      <point x="65.67469879518073" y="0.0" type="line"/>
      <point x="198.2289156626506" y="0.0" type="line"/>
      <point x="198.2289156626506" y="285.9397590361446" type="line"/>
      <point x="167.3795180722892" y="285.9397590361446" type="line"/>
      <point x="315.84939759036143" y="71.96987951807229" type="line"/>
      <point x="384.8433734939759" y="71.96987951807229" type="line"/>
      <point x="532.9698795180723" y="285.9397590361446" type="line"/>
      <point x="502.12048192771084" y="285.9397590361446" type="line"/>
      <point x="502.12048192771084" y="0.0" type="line"/>
      <point x="634.6746987951808" y="0.0" type="line"/>
      <point x="634.6746987951808" y="440.566265060241" type="line"/>
      <point x="513.0301204819277" y="440.566265060241" type="line"/>
      <point x="350.83132530120486" y="204.64457831325302" type="line"/>
      <point x="188.34939759036143" y="440.566265060241" type="line"/>
      <point x="65.67469879518073" y="440.566265060241" type="line"/>
    </contour>
  </outline>
</glyph>
<glyph name="ef-cy" format="2">
  <advance width="863.6867469879518"/>
  <unicode hex="0444"/>
  <outline>
    <contour>
      <point x="356.68674698795184" y="-180.0" type="line"/>
      <point x="507.6867469879518" y="-180.0" type="line"/>
      <point x="507.6867469879518" y="80.07831325301204" type="line"/>
      <point x="495.7168674698795" y="80.07831325301204" type="line"/>
      <point x="518.343373493976" y="24.807228915662648"/>
      <point x="565.6867469879519" y="-10.626506024096384"/>
      <point x="635.0602409638553" y="-10.626506024096384" type="curve" smooth="yes"/>
      <point x="746.3132530120482" y="-10.626506024096384"/>
      <point x="822.132530120482" y="82.3132530120482"/>
      <point x="822.132530120482" y="220.6265060240964" type="curve" smooth="yes"/>
      <point x="822.132530120482" y="360.59638554216866"/>
      <point x="745.3132530120481" y="451.1927710843374"/>
      <point x="635.0602409638553" y="451.1927710843374" type="curve" smooth="yes"/>
      <point x="565.0301204819277" y="451.1927710843374"/>
      <point x="516.6867469879518" y="415.1024096385542"/>
      <point x="495.7168674698795" y="361.4879518072289" type="curve"/>
      <point x="507.6867469879518" y="361.4879518072289" type="line"/>
      <point x="507.6867469879518" y="705.0" type="line"/>
      <point x="356.68674698795184" y="705.0" type="line"/>
      <point x="356.68674698795184" y="362.8012048192771" type="line"/>
      <point x="367.3132530120482" y="362.8012048192771" type="line"/>
      <point x="345.68674698795184" y="417.07228915662654"/>
      <point x="298.68674698795184" y="451.1927710843374"/>
      <point x="228.6265060240964" y="451.1927710843374" type="curve" smooth="yes"/>
      <point x="118.71686746987952" y="451.1927710843374"/>
      <point x="42.21084337349397" y="360.59638554216866"/>
      <point x="42.21084337349397" y="220.6265060240964" type="curve" smooth="yes"/>
      <point x="42.21084337349397" y="82.3132530120482"/>
      <point x="118.71686746987952" y="-10.626506024096384"/>
      <point x="228.6265060240964" y="-10.626506024096384" type="curve" smooth="yes"/>
      <point x="298.0301204819277" y="-10.626506024096384"/>
      <point x="344.7168674698795" y="22.83734939759036"/>
      <point x="367.3132530120482" y="78.10843373493975" type="curve"/>
      <point x="356.68674698795184" y="78.10843373493975" type="line"/>
    </contour>
    <contour>
      <point x="275.62048192771084" y="99.6024096385542" type="curve" smooth="yes"/>
      <point x="223.16867469879517" y="99.6024096385542"/>
      <point x="191.24096385542168" y="139.99397590361443"/>
      <point x="191.24096385542168" y="220.93975903614458" type="curve" smooth="yes"/>
      <point x="191.24096385542168" y="301.19879518072287"/>
      <point x="224.16867469879517" y="341.62048192771084"/>
      <point x="275.62048192771084" y="341.62048192771084" type="curve" smooth="yes"/>
      <point x="326.0722891566265" y="341.62048192771084"/>
      <point x="359.0" y="300.51204819277103"/>
      <point x="359.0" y="220.93975903614458" type="curve" smooth="yes"/>
      <point x="359.0" y="140.68072289156623"/>
      <point x="327.0722891566265" y="99.6024096385542"/>
    </contour>
    <contour>
      <point x="589.066265060241" y="99.6024096385542" type="curve" smooth="yes"/>
      <point x="537.6144578313252" y="99.6024096385542"/>
      <point x="505.3734939759036" y="140.68072289156623"/>
      <point x="505.3734939759036" y="220.93975903614458" type="curve" smooth="yes"/>
      <point x="505.3734939759036" y="300.51204819277103"/>
      <point x="536.9578313253012" y="341.62048192771084"/>
      <point x="589.066265060241" y="341.62048192771084" type="curve" smooth="yes"/>
      <point x="640.5180722891566" y="341.62048192771084"/>
      <point x="673.1024096385543" y="301.19879518072287"/>
      <point x="673.1024096385543" y="220.93975903614458" type="curve" smooth="yes"/>
      <point x="673.1024096385543" y="139.99397590361443"/>
      <point x="640.8614457831326" y="99.6024096385542"/>
    </contour>
  </outline>
</glyph>
<glyph name="che-cy" format="2">
  <advance width="586.843373493976"/>
  <unicode hex="0447"/>
  <anchor x="380.73493975903614" y="0.0" name="bottomright"/>
  <anchor x="283.5783132530121" y="180.0" name="center"/>
  <anchor x="283.5783132530121" y="484.0" name="top"/>
  <outline>
    <contour>
      <point x="373.10843373493975" y="0.0" type="line"/>
      <point x="521.1686746987951" y="0.0" type="line"/>
      <point x="521.1686746987951" y="440.566265060241" type="line"/>
      <point x="370.1686746987952" y="440.566265060241" type="line"/>
      <point x="370.1686746987952" y="262.8614457831325" type="line"/>
      <point x="349.49397590361446" y="250.96385542168673"/>
      <point x="325.56626506024094" y="245.53012048192772"/>
      <point x="296.7710843373494" y="245.53012048192772" type="curve" smooth="yes"/>
      <point x="224.289156626506" y="245.53012048192772"/>
      <point x="196.67469879518072" y="278.08433734939763"/>
      <point x="196.67469879518072" y="349.87951807228916" type="curve" smooth="yes"/>
      <point x="196.67469879518072" y="440.566265060241" type="line"/>
      <point x="45.674698795180724" y="440.566265060241" type="line"/>
      <point x="45.674698795180724" y="336.7168674698795" type="line" smooth="yes"/>
      <point x="45.674698795180724" y="198.27108433734938"/>
      <point x="118.80722891566265" y="125.45180722891568"/>
      <point x="267.56626506024094" y="125.45180722891568" type="curve" smooth="yes"/>
      <point x="302.86746987951807" y="125.45180722891568"/>
      <point x="338.0481927710843" y="131.8855421686747"/>
      <point x="373.10843373493975" y="145.03614457831324" type="curve"/>
    </contour>
  </outline>
</glyph>
<glyph name="hardsign-cy" format="2">
  <advance width="644.5903614457832"/>
  <unicode hex="044A"/>
  <outline>
    <contour>
      <point x="148.24096385542168" y="0.0" type="line"/>
      <point x="431.1867469879518" y="0.0" type="line" smooth="yes"/>
      <point x="547.1265060240963" y="0.0"/>
      <point x="616.9759036144578" y="60.16265060240964"/>
      <point x="616.9759036144578" y="156.355421686747" type="curve" smooth="yes"/>
      <point x="616.9759036144578" y="254.51807228915663"/>
      <point x="554.0361445783133" y="305.80120481927713"/>
      <point x="431.1867469879518" y="305.80120481927713" type="curve" smooth="yes"/>
      <point x="299.2409638554217" y="305.80120481927713" type="line"/>
      <point x="299.2409638554217" y="440.566265060241" type="line"/>
      <point x="7.939759036144578" y="440.566265060241" type="line"/>
      <point x="7.939759036144578" y="323.51807228915663" type="line"/>
      <point x="148.24096385542168" y="323.51807228915663" type="line"/>
    </contour>
    <contour>
      <point x="299.2409638554217" y="92.78313253012048" type="line"/>
      <point x="299.2409638554217" y="214.01807228915663" type="line"/>
      <point x="402.98192771084337" y="214.01807228915663" type="line" smooth="yes"/>
      <point x="451.8072289156627" y="214.01807228915663"/>
      <point x="479.4216867469879" y="194.15060240963854"/>
      <point x="479.4216867469879" y="154.0722891566265" type="curve" smooth="yes"/>
      <point x="479.4216867469879" y="112.96385542168674"/>
      <point x="450.8072289156626" y="92.78313253012048"/>
      <point x="402.98192771084337" y="92.78313253012048" type="curve" smooth="yes"/>
    </contour>
  </outline>
</glyph>
<glyph name="softsign-cy" format="2">
  <advance width="562.7108433734941"/>
  <unicode hex="044C"/>
  <outline>
    <contour>
      <point x="65.67469879518073" y="0.0" type="line"/>
      <point x="349.3072289156626" y="0.0" type="line" smooth="yes"/>
      <point x="465.2469879518072" y="0.0"/>
      <point x="535.0963855421686" y="60.16265060240964"/>
      <point x="535.0963855421686" y="156.355421686747" type="curve" smooth="yes"/>
      <point x="535.0963855421686" y="254.51807228915663"/>
      <point x="471.4698795180722" y="305.80120481927713"/>
      <point x="349.3072289156626" y="305.80120481927713" type="curve" smooth="yes"/>
      <point x="216.67469879518072" y="305.80120481927713" type="line"/>
      <point x="216.67469879518072" y="440.566265060241" type="line"/>
      <point x="65.67469879518073" y="440.566265060241" type="line"/>
    </contour>
    <contour>
      <point x="216.67469879518072" y="92.78313253012048" type="line"/>
      <point x="216.67469879518072" y="214.01807228915663" type="line"/>
      <point x="321.1024096385542" y="214.01807228915663" type="line" smooth="yes"/>
      <point x="369.2409638554217" y="214.01807228915663"/>
      <point x="397.5421686746988" y="194.15060240963854"/>
      <point x="397.5421686746988" y="154.0722891566265" type="curve" smooth="yes"/>
      <point x="397.5421686746988" y="112.96385542168674"/>
      <point x="368.92771084337346" y="92.78313253012048"/>
      <point x="321.1024096385542" y="92.78313253012048" type="curve" smooth="yes"/>
    </contour>
  </outline>
</glyph>
<glyph name="ereversed-cy" format="2">
  <advance width="522.9638554216867"/>
  <unicode hex="044D"/>
  <anchor x="231.3855421686747" y="484.0" name="top"/>
  <outline>
    <contour>
      <point x="210.19277108433735" y="-10.626506024096384" type="curve" smooth="yes"/>
      <point x="375.4277108433735" y="-10.626506024096384"/>
      <point x="481.4096385542168" y="78.71686746987952"/>
      <point x="481.4096385542168" y="220.96987951807228" type="curve" smooth="yes"/>
      <point x="481.4096385542168" y="363.87951807228916"/>
      <point x="376.45783132530124" y="451.1927710843374"/>
      <point x="207.25301204819277" y="451.1927710843374" type="curve" smooth="yes"/>
      <point x="140.0" y="451.1927710843374"/>
      <point x="66.12048192771084" y="432.4759036144578"/>
      <point x="20.554216867469883" y="400.0722891566265" type="curve"/>
      <point x="56.0" y="313.1987951807229" type="line"/>
      <point x="98.93975903614458" y="341.37951807228916"/>
      <point x="150.3433734939759" y="354.4096385542169"/>
      <point x="198.06024096385542" y="354.4096385542169" type="curve" smooth="yes"/>
      <point x="281.25903614457826" y="354.4096385542169"/>
      <point x="329.34939759036143" y="317.8674698795181"/>
      <point x="342.54216867469876" y="248.75903614457832" type="curve"/>
      <point x="353.82530120481925" y="270.26506024096386" type="line"/>
      <point x="119.0" y="270.26506024096386" type="line"/>
      <point x="119.0" y="174.33132530120483" type="line"/>
      <point x="353.82530120481925" y="174.33132530120483" type="line"/>
      <point x="342.54216867469876" y="200.21084337349396" type="line"/>
      <point x="333.66265060240966" y="124.63855421686748"/>
      <point x="278.8554216867469" y="86.46987951807228"/>
      <point x="198.06024096385542" y="86.46987951807228" type="curve" smooth="yes"/>
      <point x="151.3132530120482" y="86.46987951807228"/>
      <point x="98.62650602409639" y="101.1566265060241"/>
      <point x="56.0" y="128.02409638554215" type="curve"/>
      <point x="20.554216867469883" y="41.837349397590366" type="line"/>
      <point x="64.71686746987952" y="8.433734939759036"/>
      <point x="138.96987951807228" y="-10.626506024096384"/>
    </contour>
  </outline>
</glyph>
<glyph name="iu-cy" format="2">
  <advance width="843.8795180722892"/>
  <unicode hex="044E"/>
  <outline>
    <contour>
      <point x="541.6746987951808" y="-10.626506024096384" type="curve" smooth="yes"/>
      <point x="699.2831325301205" y="-10.626506024096384"/>
      <point x="802.3253012048192" y="79.0"/>
      <point x="802.3253012048192" y="220.6265060240964" type="curve" smooth="yes"/>
      <point x="802.3253012048192" y="362.2228915662651"/>
      <point x="699.2831325301205" y="451.1927710843374"/>
      <point x="541.6746987951808" y="451.1927710843374" type="curve" smooth="yes"/>
      <point x="410.8253012048193" y="451.1927710843374"/>
      <point x="317.3192771084337" y="387.355421686747"/>
      <point x="291.2168674698795" y="283.08433734939763" type="curve"/>
      <point x="213.04819277108433" y="283.08433734939763" type="line"/>
      <point x="213.04819277108433" y="441.2228915662651" type="line"/>
      <point x="65.67469879518073" y="441.2228915662651" type="line"/>
      <point x="65.67469879518073" y="0.0" type="line"/>
      <point x="213.04819277108433" y="0.0" type="line"/>
      <point x="213.04819277108433" y="166.9457831325301" type="line"/>
      <point x="290.2168674698795" y="166.9457831325301" type="line"/>
      <point x="313.60240963855415" y="56.61445783132531"/>
      <point x="407.79518072289153" y="-10.626506024096384"/>
    </contour>
    <contour>
      <point x="541.6746987951808" y="100.9156626506024" type="curve" smooth="yes"/>
      <point x="475.4156626506024" y="100.9156626506024"/>
      <point x="431.71084337349396" y="142.71084337349396"/>
      <point x="431.71084337349396" y="220.6265060240964" type="curve" smooth="yes"/>
      <point x="431.71084337349396" y="298.8855421686747"/>
      <point x="475.4156626506024" y="340.3072289156626"/>
      <point x="541.6746987951808" y="340.3072289156626" type="curve" smooth="yes"/>
      <point x="608.9638554216867" y="340.3072289156626"/>
      <point x="651.6385542168674" y="298.8855421686747"/>
      <point x="651.6385542168674" y="220.6265060240964" type="curve" smooth="yes"/>
      <point x="651.6385542168674" y="142.71084337349396"/>
      <point x="608.9638554216867" y="100.9156626506024"/>
    </contour>
  </outline>
</glyph>
<glyph name="ia-cy" format="2">
  <advance width="573.8433734939758"/>
  <unicode hex="044F"/>
  <outline>
    <contour>
      <point x="22.421686746987955" y="0.0" type="line"/>
      <point x="191.9277108433735" y="0.0" type="line"/>
      <point x="254.67469879518072" y="99.77710843373494" type="line" smooth="yes"/>
      <point x="271.1686746987952" y="124.33132530120484"/>
      <point x="294.6927710843373" y="142.5421686746988"/>
      <point x="327.14457831325296" y="142.5421686746988" type="curve" smooth="yes"/>
      <point x="368.9879518072289" y="142.5421686746988" type="line"/>
      <point x="368.9879518072289" y="0.0" type="line"/>
      <point x="508.1686746987952" y="0.0" type="line"/>
      <point x="508.1686746987952" y="440.566265060241" type="line"/>
      <point x="231.6265060240964" y="440.566265060241" type="line" smooth="yes"/>
      <point x="108.83734939759036" y="440.566265060241"/>
      <point x="46.04819277108434" y="388.9096385542169"/>
      <point x="46.04819277108434" y="302.40361445783134" type="curve" smooth="yes"/>
      <point x="46.04819277108434" y="215.21084337349396"/>
      <point x="105.9578313253012" y="166.86746987951807"/>
      <point x="224.3734939759036" y="166.86746987951807" type="curve"/>
      <point x="224.3734939759036" y="178.46385542168673" type="line"/>
      <point x="199.67469879518075" y="178.46385542168673" type="line" smooth="yes"/>
      <point x="159.76506024096386" y="178.46385542168673"/>
      <point x="119.1686746987952" y="151.77710843373492"/>
      <point x="93.855421686747" y="110.80722891566265" type="curve" smooth="yes"/>
    </contour>
    <contour>
      <point x="264.54819277108436" y="231.04216867469881" type="line" smooth="yes"/>
      <point x="213.69277108433732" y="231.04216867469881"/>
      <point x="187.85542168674698" y="253.90963855421685"/>
      <point x="187.85542168674698" y="292.2409638554217" type="curve" smooth="yes"/>
      <point x="187.85542168674698" y="329.8855421686747"/>
      <point x="213.69277108433732" y="352.06626506024094"/>
      <point x="264.54819277108436" y="352.06626506024094" type="curve" smooth="yes"/>
      <point x="368.9879518072289" y="352.06626506024094" type="line"/>
      <point x="368.9879518072289" y="231.04216867469881" type="line"/>
    </contour>
  </outline>
</glyph>
<glyph name="dje-cy" format="2">
  <advance width="608.1777108433735"/>
  <unicode hex="0452"/>
  <outline>
    <contour>
      <point x="342.96385542168673" y="-187.3132530120482" type="line"/>
      <point x="505.2289156626506" y="-143.55421686746988"/>
      <point x="549.4819277108434" y="-57.67469879518073"/>
      <point x="549.4819277108434" y="66.22289156626506" type="curve" smooth="yes"/>
      <point x="549.4819277108434" y="252.7951807228916" type="line" smooth="yes"/>
      <point x="549.4819277108434" y="386.2409638554217"/>
      <point x="494.16867469879514" y="451.49397590361446"/>
      <point x="376.855421686747" y="451.49397590361446" type="curve" smooth="yes"/>
      <point x="298.79518072289153" y="451.49397590361446"/>
      <point x="236.04819277108433" y="416.12048192771084"/>
      <point x="205.82530120481925" y="351.6566265060241" type="curve"/>
      <point x="218.04819277108433" y="351.6566265060241" type="line"/>
      <point x="218.04819277108433" y="508.04819277108425" type="line"/>
      <point x="404.2289156626506" y="508.04819277108425" type="line"/>
      <point x="404.2289156626506" y="612.3373493975904" type="line"/>
      <point x="218.04819277108433" y="612.3373493975904" type="line"/>
      <point x="218.04819277108433" y="705.0" type="line"/>
      <point x="67.04819277108435" y="705.0" type="line"/>
      <point x="67.04819277108435" y="612.3373493975904" type="line"/>
      <point x="-18.445783132530117" y="612.3373493975904" type="line"/>
      <point x="-18.445783132530117" y="508.04819277108425" type="line"/>
      <point x="67.04819277108435" y="508.04819277108425" type="line"/>
      <point x="67.04819277108435" y="0.0" type="line"/>
      <point x="218.04819277108433" y="0.0" type="line"/>
      <point x="218.04819277108433" y="229.70481927710838" type="line" smooth="yes"/>
      <point x="218.04819277108433" y="293.62048192771084"/>
      <point x="259.4096385542169" y="335.35542168674704"/>
      <point x="323.32530120481925" y="335.35542168674704" type="curve" smooth="yes"/>
      <point x="373.7469879518072" y="335.35542168674704"/>
      <point x="398.48192771084337" y="309.3975903614458"/>
      <point x="398.48192771084337" y="243.8855421686747" type="curve" smooth="yes"/>
      <point x="398.48192771084337" y="64.84939759036145" type="line" smooth="yes"/>
      <point x="398.48192771084337" y="-19.289156626506028"/>
      <point x="379.04819277108436" y="-54.397590361445786"/>
      <point x="295.56626506024094" y="-78.0843373493976" type="curve"/>
    </contour>
  </outline>
</glyph>
<glyph name="e-cy" format="2">
  <advance width="523.6506024096385"/>
  <unicode hex="0454"/>
  <outline>
    <contour>
      <point x="314.1144578313253" y="-10.626506024096384" type="curve" smooth="yes"/>
      <point x="385.3373493975904" y="-10.626506024096384"/>
      <point x="458.9036144578313" y="8.433734939759036"/>
      <point x="503.7530120481928" y="41.837349397590366" type="curve"/>
      <point x="468.6506024096385" y="127.68072289156625" type="line"/>
      <point x="425.68072289156623" y="101.1566265060241"/>
      <point x="372.9939759036144" y="86.46987951807228"/>
      <point x="326.2469879518072" y="86.46987951807228" type="curve" smooth="yes"/>
      <point x="244.76506024096386" y="86.46987951807228"/>
      <point x="190.9879518072289" y="124.63855421686748"/>
      <point x="181.07831325301203" y="200.21084337349396" type="curve"/>
      <point x="170.13855421686748" y="174.33132530120483" type="line"/>
      <point x="405.3072289156627" y="174.33132530120483" type="line"/>
      <point x="405.3072289156627" y="270.26506024096386" type="line"/>
      <point x="169.79518072289156" y="270.26506024096386" type="line"/>
      <point x="181.07831325301203" y="248.41566265060243" type="line"/>
      <point x="193.9277108433735" y="317.5240963855422"/>
      <point x="242.70481927710844" y="354.4096385542169"/>
      <point x="326.2469879518072" y="354.4096385542169" type="curve" smooth="yes"/>
      <point x="373.96385542168673" y="354.4096385542169"/>
      <point x="424.68072289156623" y="341.37951807228916"/>
      <point x="468.6506024096385" y="313.1987951807229" type="curve"/>
      <point x="503.7530120481928" y="399.7289156626506" type="line"/>
      <point x="461.53012048192767" y="432.4759036144578"/>
      <point x="389.65060240963857" y="451.1927710843374"/>
      <point x="321.0240963855421" y="451.1927710843374" type="curve" smooth="yes"/>
      <point x="148.53614457831324" y="451.1927710843374"/>
      <point x="42.21084337349397" y="364.2228915662651"/>
      <point x="42.21084337349397" y="221.65662650602408" type="curve" smooth="yes"/>
      <point x="42.21084337349397" y="79.06024096385542"/>
      <point x="148.19277108433735" y="-10.626506024096384"/>
    </contour>
  </outline>
</glyph>
